<ttFont>
    <TTGlyph name=".ttfautohint" xMin="0" yMin="0" xMax="0" yMax="0">
      <contour>
        <pt x="0" y="0" on="1"/>
      </contour>
    </TTGlyph>
    <TTGlyph name="A" xMin="-9" yMin="0" xMax="617" yMax="653">
      <contour>
        <pt x="54" y="57" on="1"/>
        <pt x="275" y="653" on="1"/>
        <pt x="323" y="653" on="1"/>
        <pt x="553" y="57" on="1"/>
        <pt x="617" y="41" on="1"/>
        <pt x="617" y="0" on="1"/>
        <pt x="378" y="0" on="1"/>
        <pt x="378" y="41" on="1"/>
        <pt x="449" y="57" on="1"/>
        <pt x="449" y="75" on="1"/>
        <pt x="406" y="186" on="1"/>
        <pt x="165" y="186" on="1"/>
        <pt x="126" y="75" on="1"/>
        <pt x="126" y="57" on="1"/>
        <pt x="202" y="41" on="1"/>
        <pt x="202" y="0" on="1"/>
        <pt x="-9" y="0" on="1"/>
        <pt x="-9" y="41" on="1"/>
      </contour>
      <contour>
        <pt x="288" y="500" on="1"/>
        <pt x="284" y="511" on="1"/>
        <pt x="282" y="516" on="1"/>
        <pt x="276" y="498" on="1"/>
        <pt x="185" y="243" on="1"/>
        <pt x="385" y="243" on="1"/>
      </contour>
    </TTGlyph>
    <TTGlyph name="AE" xMin="-9" yMin="0" xMax="773" yMax="648">
      <contour>
        <pt x="54" y="57" on="1"/>
        <pt x="334" y="648" on="1"/>
        <pt x="712" y="648" on="1"/>
        <pt x="712" y="484" on="1"/>
        <pt x="663" y="484" on="1"/>
        <pt x="642" y="593" on="1"/>
        <pt x="548" y="593" on="1"/>
        <pt x="454" y="587" on="1"/>
        <pt x="475" y="328" on="1"/>
        <pt x="617" y="328" on="1"/>
        <pt x="634" y="377" on="1"/>
        <pt x="676" y="377" on="1"/>
        <pt x="676" y="222" on="1"/>
        <pt x="634" y="222" on="1"/>
        <pt x="617" y="271" on="1"/>
        <pt x="480" y="271" on="1"/>
        <pt x="499" y="67" on="1"/>
        <pt x="515" y="63" on="0"/>
        <pt x="573" y="57" on="0"/>
        <pt x="602" y="57" on="1"/>
        <pt x="702" y="57" on="1"/>
        <pt x="724" y="164" on="1"/>
        <pt x="773" y="164" on="1"/>
        <pt x="773" y="0" on="1"/>
        <pt x="326" y="0" on="1"/>
        <pt x="326" y="43" on="1"/>
        <pt x="409" y="60" on="1"/>
        <pt x="391" y="271" on="1"/>
        <pt x="221" y="271" on="1"/>
        <pt x="128" y="75" on="1"/>
        <pt x="128" y="57" on="1"/>
        <pt x="202" y="41" on="1"/>
        <pt x="202" y="0" on="1"/>
        <pt x="-9" y="0" on="1"/>
        <pt x="-9" y="41" on="1"/>
      </contour>
      <contour>
        <pt x="365" y="583" on="1"/>
        <pt x="250" y="328" on="1"/>
        <pt x="386" y="328" on="1"/>
      </contour>
    </TTGlyph>
    <TTGlyph name="AEacute" xMin="-9" yMin="0" xMax="773" yMax="836">
      <component glyphName=".ttfautohint" x="0" y="0" flags="0x0"/>
      <component glyphName="AE" x="0" y="0" flags="0x0"/>
      <component glyphName="acutecomb.case" x="591" y="0" flags="0x0"/>
    </TTGlyph>
    <TTGlyph name="Aacute" xMin="-9" yMin="0" xMax="617" yMax="836">
      <contour>
        <pt x="340" y="814" on="1"/>
        <pt x="352" y="823" on="0"/>
        <pt x="375" y="836" on="0"/>
        <pt x="382" y="836" on="1"/>
        <pt x="397" y="836" on="0"/>
        <pt x="421" y="800" on="0"/>
        <pt x="424" y="767" on="1"/>
        <pt x="231" y="681" on="1"/>
        <pt x="209" y="716" on="1"/>
      </contour>
      <contour>
        <pt x="54" y="57" on="1"/>
        <pt x="275" y="653" on="1"/>
        <pt x="323" y="653" on="1"/>
        <pt x="553" y="57" on="1"/>
        <pt x="617" y="41" on="1"/>
        <pt x="617" y="0" on="1"/>
        <pt x="378" y="0" on="1"/>
        <pt x="378" y="41" on="1"/>
        <pt x="449" y="57" on="1"/>
        <pt x="449" y="75" on="1"/>
        <pt x="406" y="186" on="1"/>
        <pt x="165" y="186" on="1"/>
        <pt x="126" y="75" on="1"/>
        <pt x="126" y="57" on="1"/>
        <pt x="202" y="41" on="1"/>
        <pt x="202" y="0" on="1"/>
        <pt x="-9" y="0" on="1"/>
        <pt x="-9" y="41" on="1"/>
      </contour>
      <contour>
        <pt x="288" y="500" on="1"/>
        <pt x="284" y="511" on="1"/>
        <pt x="282" y="516" on="1"/>
        <pt x="276" y="498" on="1"/>
        <pt x="185" y="243" on="1"/>
        <pt x="385" y="243" on="1"/>
      </contour>
    </TTGlyph>
    <TTGlyph name="Abreve" xMin="-9" yMin="0" xMax="617" yMax="821">
      <contour>
        <pt x="229" y="817" on="0"/>
        <pt x="246" y="783" on="0"/>
        <pt x="284" y="753" on="0"/>
        <pt x="313" y="753" on="1"/>
        <pt x="348" y="753" on="0"/>
        <pt x="394" y="783" on="0"/>
        <pt x="417" y="818" on="0"/>
        <pt x="417" y="821" on="1"/>
        <pt x="448" y="813" on="1"/>
        <pt x="448" y="806" on="0"/>
        <pt x="422" y="746" on="0"/>
        <pt x="360" y="692" on="0"/>
        <pt x="310" y="692" on="1"/>
        <pt x="252" y="692" on="0"/>
        <pt x="190" y="744" on="0"/>
        <pt x="169" y="798" on="0"/>
        <pt x="169" y="808" on="1"/>
        <pt x="229" y="821" on="1"/>
      </contour>
      <contour>
        <pt x="54" y="57" on="1"/>
        <pt x="275" y="653" on="1"/>
        <pt x="323" y="653" on="1"/>
        <pt x="553" y="57" on="1"/>
        <pt x="617" y="41" on="1"/>
        <pt x="617" y="0" on="1"/>
        <pt x="378" y="0" on="1"/>
        <pt x="378" y="41" on="1"/>
        <pt x="449" y="57" on="1"/>
        <pt x="449" y="75" on="1"/>
        <pt x="406" y="186" on="1"/>
        <pt x="165" y="186" on="1"/>
        <pt x="126" y="75" on="1"/>
        <pt x="126" y="57" on="1"/>
        <pt x="202" y="41" on="1"/>
        <pt x="202" y="0" on="1"/>
        <pt x="-9" y="0" on="1"/>
        <pt x="-9" y="41" on="1"/>
      </contour>
      <contour>
        <pt x="288" y="500" on="1"/>
        <pt x="284" y="511" on="1"/>
        <pt x="282" y="516" on="1"/>
        <pt x="276" y="498" on="1"/>
        <pt x="185" y="243" on="1"/>
        <pt x="385" y="243" on="1"/>
      </contour>
    </TTGlyph>
    <TTGlyph name="Acircumflex" xMin="-9" yMin="0" xMax="617" yMax="834">
      <contour>
        <pt x="221" y="780" on="1"/>
        <pt x="250" y="803" on="1"/>
        <pt x="266" y="817" on="0"/>
        <pt x="290" y="834" on="0"/>
        <pt x="297" y="834" on="1"/>
        <pt x="306" y="834" on="0"/>
        <pt x="328" y="819" on="0"/>
        <pt x="352" y="798" on="1"/>
        <pt x="360" y="792" on="0"/>
        <pt x="374" y="780" on="1"/>
        <pt x="448" y="719" on="1"/>
        <pt x="415" y="678" on="1"/>
        <pt x="293" y="743" on="1"/>
        <pt x="167" y="680" on="1"/>
        <pt x="142" y="716" on="1"/>
      </contour>
      <contour>
        <pt x="54" y="57" on="1"/>
        <pt x="275" y="653" on="1"/>
        <pt x="323" y="653" on="1"/>
        <pt x="553" y="57" on="1"/>
        <pt x="617" y="41" on="1"/>
        <pt x="617" y="0" on="1"/>
        <pt x="378" y="0" on="1"/>
        <pt x="378" y="41" on="1"/>
        <pt x="449" y="57" on="1"/>
        <pt x="449" y="75" on="1"/>
        <pt x="406" y="186" on="1"/>
        <pt x="165" y="186" on="1"/>
        <pt x="126" y="75" on="1"/>
        <pt x="126" y="57" on="1"/>
        <pt x="202" y="41" on="1"/>
        <pt x="202" y="0" on="1"/>
        <pt x="-9" y="0" on="1"/>
        <pt x="-9" y="41" on="1"/>
      </contour>
      <contour>
        <pt x="288" y="500" on="1"/>
        <pt x="284" y="511" on="1"/>
        <pt x="282" y="516" on="1"/>
        <pt x="276" y="498" on="1"/>
        <pt x="185" y="243" on="1"/>
        <pt x="385" y="243" on="1"/>
      </contour>
    </TTGlyph>
    <TTGlyph name="Adieresis" xMin="-9" yMin="0" xMax="617" yMax="802">
      <contour>
        <pt x="168" y="686" on="0"/>
        <pt x="140" y="717" on="0"/>
        <pt x="140" y="742" on="1"/>
        <pt x="140" y="767" on="0"/>
        <pt x="171" y="802" on="0"/>
        <pt x="195" y="802" on="1"/>
        <pt x="218" y="802" on="0"/>
        <pt x="246" y="773" on="0"/>
        <pt x="246" y="748" on="1"/>
        <pt x="246" y="722" on="0"/>
        <pt x="216" y="686" on="0"/>
        <pt x="191" y="686" on="1"/>
      </contour>
      <contour>
        <pt x="379" y="686" on="0"/>
        <pt x="351" y="717" on="0"/>
        <pt x="351" y="742" on="1"/>
        <pt x="351" y="767" on="0"/>
        <pt x="382" y="802" on="0"/>
        <pt x="406" y="802" on="1"/>
        <pt x="429" y="802" on="0"/>
        <pt x="457" y="773" on="0"/>
        <pt x="457" y="748" on="1"/>
        <pt x="457" y="722" on="0"/>
        <pt x="427" y="686" on="0"/>
        <pt x="402" y="686" on="1"/>
      </contour>
      <contour>
        <pt x="54" y="57" on="1"/>
        <pt x="275" y="653" on="1"/>
        <pt x="323" y="653" on="1"/>
        <pt x="553" y="57" on="1"/>
        <pt x="617" y="41" on="1"/>
        <pt x="617" y="0" on="1"/>
        <pt x="378" y="0" on="1"/>
        <pt x="378" y="41" on="1"/>
        <pt x="449" y="57" on="1"/>
        <pt x="449" y="75" on="1"/>
        <pt x="406" y="186" on="1"/>
        <pt x="165" y="186" on="1"/>
        <pt x="126" y="75" on="1"/>
        <pt x="126" y="57" on="1"/>
        <pt x="202" y="41" on="1"/>
        <pt x="202" y="0" on="1"/>
        <pt x="-9" y="0" on="1"/>
        <pt x="-9" y="41" on="1"/>
      </contour>
      <contour>
        <pt x="288" y="500" on="1"/>
        <pt x="284" y="511" on="1"/>
        <pt x="282" y="516" on="1"/>
        <pt x="276" y="498" on="1"/>
        <pt x="185" y="243" on="1"/>
        <pt x="385" y="243" on="1"/>
      </contour>
    </TTGlyph>
    <TTGlyph name="Agrave" xMin="-9" yMin="0" xMax="617" yMax="836">
      <contour>
        <pt x="167" y="800" on="0"/>
        <pt x="191" y="836" on="0"/>
        <pt x="206" y="836" on="1"/>
        <pt x="213" y="836" on="0"/>
        <pt x="236" y="823" on="0"/>
        <pt x="248" y="814" on="1"/>
        <pt x="379" y="716" on="1"/>
        <pt x="357" y="681" on="1"/>
        <pt x="164" y="767" on="1"/>
      </contour>
      <contour>
        <pt x="54" y="57" on="1"/>
        <pt x="275" y="653" on="1"/>
        <pt x="323" y="653" on="1"/>
        <pt x="553" y="57" on="1"/>
        <pt x="617" y="41" on="1"/>
        <pt x="617" y="0" on="1"/>
        <pt x="378" y="0" on="1"/>
        <pt x="378" y="41" on="1"/>
        <pt x="449" y="57" on="1"/>
        <pt x="449" y="75" on="1"/>
        <pt x="406" y="186" on="1"/>
        <pt x="165" y="186" on="1"/>
        <pt x="126" y="75" on="1"/>
        <pt x="126" y="57" on="1"/>
        <pt x="202" y="41" on="1"/>
        <pt x="202" y="0" on="1"/>
        <pt x="-9" y="0" on="1"/>
        <pt x="-9" y="41" on="1"/>
      </contour>
      <contour>
        <pt x="288" y="500" on="1"/>
        <pt x="284" y="511" on="1"/>
        <pt x="282" y="516" on="1"/>
        <pt x="276" y="498" on="1"/>
        <pt x="185" y="243" on="1"/>
        <pt x="385" y="243" on="1"/>
      </contour>
    </TTGlyph>
    <TTGlyph name="Amacron" xMin="-9" yMin="0" xMax="617" yMax="781">
      <contour>
        <pt x="470" y="781" on="1"/>
        <pt x="460" y="723" on="1"/>
        <pt x="128" y="723" on="1"/>
        <pt x="138" y="781" on="1"/>
      </contour>
      <contour>
        <pt x="54" y="57" on="1"/>
        <pt x="275" y="653" on="1"/>
        <pt x="323" y="653" on="1"/>
        <pt x="553" y="57" on="1"/>
        <pt x="617" y="41" on="1"/>
        <pt x="617" y="0" on="1"/>
        <pt x="378" y="0" on="1"/>
        <pt x="378" y="41" on="1"/>
        <pt x="449" y="57" on="1"/>
        <pt x="449" y="75" on="1"/>
        <pt x="406" y="186" on="1"/>
        <pt x="165" y="186" on="1"/>
        <pt x="126" y="75" on="1"/>
        <pt x="126" y="57" on="1"/>
        <pt x="202" y="41" on="1"/>
        <pt x="202" y="0" on="1"/>
        <pt x="-9" y="0" on="1"/>
        <pt x="-9" y="41" on="1"/>
      </contour>
      <contour>
        <pt x="288" y="500" on="1"/>
        <pt x="284" y="511" on="1"/>
        <pt x="282" y="516" on="1"/>
        <pt x="276" y="498" on="1"/>
        <pt x="185" y="243" on="1"/>
        <pt x="385" y="243" on="1"/>
      </contour>
    </TTGlyph>
    <TTGlyph name="Aogonek" xMin="-9" yMin="-187" xMax="617" yMax="653">
      <contour>
        <pt x="368" y="-45" on="0"/>
        <pt x="368" y="-83" on="1"/>
        <pt x="368" y="-127" on="0"/>
        <pt x="411" y="-127" on="1"/>
        <pt x="432" y="-127" on="0"/>
        <pt x="468" y="-106" on="1"/>
        <pt x="486" y="-136" on="1"/>
        <pt x="486" y="-137" on="0"/>
        <pt x="455" y="-164" on="0"/>
        <pt x="410" y="-187" on="0"/>
        <pt x="385" y="-187" on="1"/>
        <pt x="348" y="-187" on="0"/>
        <pt x="302" y="-149" on="0"/>
        <pt x="302" y="-113" on="1"/>
        <pt x="302" y="-48" on="0"/>
        <pt x="378" y="1" on="1"/>
        <pt x="378" y="41" on="1"/>
        <pt x="449" y="57" on="1"/>
        <pt x="449" y="75" on="1"/>
        <pt x="406" y="186" on="1"/>
        <pt x="165" y="186" on="1"/>
        <pt x="126" y="75" on="1"/>
        <pt x="126" y="57" on="1"/>
        <pt x="202" y="41" on="1"/>
        <pt x="202" y="0" on="1"/>
        <pt x="-9" y="0" on="1"/>
        <pt x="-9" y="41" on="1"/>
        <pt x="54" y="57" on="1"/>
        <pt x="275" y="653" on="1"/>
        <pt x="323" y="653" on="1"/>
        <pt x="553" y="57" on="1"/>
        <pt x="617" y="41" on="1"/>
        <pt x="617" y="0" on="1"/>
        <pt x="423" y="0" on="1"/>
      </contour>
      <contour>
        <pt x="385" y="243" on="1"/>
        <pt x="288" y="500" on="1"/>
        <pt x="284" y="511" on="1"/>
        <pt x="282" y="516" on="1"/>
        <pt x="276" y="498" on="1"/>
        <pt x="185" y="243" on="1"/>
      </contour>
    </TTGlyph>
    <TTGlyph name="Aring" xMin="-9" yMin="0" xMax="617" yMax="821">
      <contour>
        <pt x="617" y="41" on="1"/>
        <pt x="617" y="0" on="1"/>
        <pt x="378" y="0" on="1"/>
        <pt x="378" y="41" on="1"/>
        <pt x="449" y="57" on="1"/>
        <pt x="449" y="75" on="1"/>
        <pt x="406" y="186" on="1"/>
        <pt x="165" y="186" on="1"/>
        <pt x="126" y="75" on="1"/>
        <pt x="126" y="57" on="1"/>
        <pt x="202" y="41" on="1"/>
        <pt x="202" y="0" on="1"/>
        <pt x="-9" y="0" on="1"/>
        <pt x="-9" y="41" on="1"/>
        <pt x="54" y="57" on="1"/>
        <pt x="273" y="646" on="1"/>
        <pt x="238" y="651" on="0"/>
        <pt x="208" y="692" on="0"/>
        <pt x="208" y="731" on="1"/>
        <pt x="208" y="775" on="0"/>
        <pt x="260" y="821" on="0"/>
        <pt x="301" y="821" on="1"/>
        <pt x="341" y="821" on="0"/>
        <pt x="390" y="781" on="0"/>
        <pt x="390" y="738" on="1"/>
        <pt x="390" y="699" on="0"/>
        <pt x="359" y="654" on="0"/>
        <pt x="325" y="648" on="1"/>
        <pt x="553" y="57" on="1"/>
      </contour>
      <contour>
        <pt x="256" y="711" on="0"/>
        <pt x="273" y="690" on="0"/>
        <pt x="300" y="690" on="1"/>
        <pt x="324" y="690" on="0"/>
        <pt x="342" y="709" on="0"/>
        <pt x="342" y="733" on="1"/>
        <pt x="342" y="757" on="0"/>
        <pt x="326" y="778" on="0"/>
        <pt x="300" y="778" on="1"/>
        <pt x="276" y="778" on="0"/>
        <pt x="256" y="759" on="0"/>
        <pt x="256" y="735" on="1"/>
      </contour>
      <contour>
        <pt x="385" y="243" on="1"/>
        <pt x="288" y="500" on="1"/>
        <pt x="284" y="511" on="1"/>
        <pt x="282" y="516" on="1"/>
        <pt x="276" y="498" on="1"/>
        <pt x="185" y="243" on="1"/>
      </contour>
    </TTGlyph>
    <TTGlyph name="Aringacute" xMin="-9" yMin="0" xMax="617" yMax="1011">
      <contour>
        <pt x="270" y="856" on="1"/>
        <pt x="248" y="891" on="1"/>
        <pt x="379" y="989" on="1"/>
        <pt x="391" y="998" on="0"/>
        <pt x="414" y="1011" on="0"/>
        <pt x="421" y="1011" on="1"/>
        <pt x="436" y="1011" on="0"/>
        <pt x="460" y="975" on="0"/>
        <pt x="463" y="942" on="1"/>
      </contour>
      <contour>
        <pt x="617" y="41" on="1"/>
        <pt x="617" y="0" on="1"/>
        <pt x="378" y="0" on="1"/>
        <pt x="378" y="41" on="1"/>
        <pt x="449" y="57" on="1"/>
        <pt x="449" y="75" on="1"/>
        <pt x="406" y="186" on="1"/>
        <pt x="165" y="186" on="1"/>
        <pt x="126" y="75" on="1"/>
        <pt x="126" y="57" on="1"/>
        <pt x="202" y="41" on="1"/>
        <pt x="202" y="0" on="1"/>
        <pt x="-9" y="0" on="1"/>
        <pt x="-9" y="41" on="1"/>
        <pt x="54" y="57" on="1"/>
        <pt x="274" y="651" on="1"/>
        <pt x="213" y="663" on="0"/>
        <pt x="213" y="733" on="1"/>
        <pt x="213" y="777" on="0"/>
        <pt x="265" y="823" on="0"/>
        <pt x="306" y="823" on="1"/>
        <pt x="346" y="823" on="0"/>
        <pt x="395" y="783" on="0"/>
        <pt x="395" y="740" on="1"/>
        <pt x="395" y="702" on="0"/>
        <pt x="356" y="658" on="0"/>
        <pt x="324" y="651" on="1"/>
        <pt x="553" y="57" on="1"/>
      </contour>
      <contour>
        <pt x="261" y="713" on="0"/>
        <pt x="278" y="692" on="0"/>
        <pt x="305" y="692" on="1"/>
        <pt x="329" y="692" on="0"/>
        <pt x="347" y="711" on="0"/>
        <pt x="347" y="735" on="1"/>
        <pt x="347" y="759" on="0"/>
        <pt x="331" y="780" on="0"/>
        <pt x="305" y="780" on="1"/>
        <pt x="281" y="780" on="0"/>
        <pt x="261" y="761" on="0"/>
        <pt x="261" y="737" on="1"/>
      </contour>
      <contour>
        <pt x="385" y="243" on="1"/>
        <pt x="288" y="500" on="1"/>
        <pt x="284" y="511" on="1"/>
        <pt x="282" y="516" on="1"/>
        <pt x="276" y="498" on="1"/>
        <pt x="185" y="243" on="1"/>
      </contour>
    </TTGlyph>
    <TTGlyph name="Atilde" xMin="-9" yMin="0" xMax="617" yMax="806">
      <contour>
        <pt x="161" y="777" on="1"/>
        <pt x="182" y="806" on="0"/>
        <pt x="222" y="806" on="1"/>
        <pt x="245" y="806" on="0"/>
        <pt x="292" y="791" on="1"/>
        <pt x="371" y="766" on="1"/>
        <pt x="451" y="802" on="1"/>
        <pt x="474" y="776" on="1"/>
        <pt x="437" y="727" on="1"/>
        <pt x="416" y="698" on="0"/>
        <pt x="376" y="698" on="1"/>
        <pt x="353" y="698" on="0"/>
        <pt x="306" y="713" on="1"/>
        <pt x="227" y="738" on="1"/>
        <pt x="147" y="702" on="1"/>
        <pt x="124" y="728" on="1"/>
      </contour>
      <contour>
        <pt x="54" y="57" on="1"/>
        <pt x="275" y="653" on="1"/>
        <pt x="323" y="653" on="1"/>
        <pt x="553" y="57" on="1"/>
        <pt x="617" y="41" on="1"/>
        <pt x="617" y="0" on="1"/>
        <pt x="378" y="0" on="1"/>
        <pt x="378" y="41" on="1"/>
        <pt x="449" y="57" on="1"/>
        <pt x="449" y="75" on="1"/>
        <pt x="406" y="186" on="1"/>
        <pt x="165" y="186" on="1"/>
        <pt x="126" y="75" on="1"/>
        <pt x="126" y="57" on="1"/>
        <pt x="202" y="41" on="1"/>
        <pt x="202" y="0" on="1"/>
        <pt x="-9" y="0" on="1"/>
        <pt x="-9" y="41" on="1"/>
      </contour>
      <contour>
        <pt x="288" y="500" on="1"/>
        <pt x="284" y="511" on="1"/>
        <pt x="282" y="516" on="1"/>
        <pt x="276" y="498" on="1"/>
        <pt x="185" y="243" on="1"/>
        <pt x="385" y="243" on="1"/>
      </contour>
    </TTGlyph>
    <TTGlyph name="B" xMin="59" yMin="0" xMax="559" yMax="648">
      <contour>
        <pt x="59" y="43" on="1"/>
        <pt x="142" y="60" on="1"/>
        <pt x="142" y="588" on="1"/>
        <pt x="59" y="605" on="1"/>
        <pt x="59" y="648" on="1"/>
        <pt x="321" y="648" on="1"/>
        <pt x="415" y="648" on="0"/>
        <pt x="525" y="564" on="0"/>
        <pt x="525" y="492" on="1"/>
        <pt x="525" y="436" on="0"/>
        <pt x="470" y="366" on="0"/>
        <pt x="410" y="345" on="1"/>
        <pt x="474" y="332" on="0"/>
        <pt x="559" y="237" on="0"/>
        <pt x="559" y="178" on="1"/>
        <pt x="559" y="94" on="0"/>
        <pt x="441" y="0" on="0"/>
        <pt x="336" y="0" on="1"/>
        <pt x="59" y="0" on="1"/>
      </contour>
      <contour>
        <pt x="279" y="357" on="1"/>
        <pt x="355" y="357" on="0"/>
        <pt x="434" y="426" on="0"/>
        <pt x="434" y="491" on="1"/>
        <pt x="434" y="590" on="0"/>
        <pt x="301" y="590" on="1"/>
        <pt x="265" y="590" on="0"/>
        <pt x="228" y="585" on="1"/>
        <pt x="228" y="357" on="1"/>
      </contour>
      <contour>
        <pt x="388" y="55" on="0"/>
        <pt x="460" y="120" on="0"/>
        <pt x="460" y="181" on="1"/>
        <pt x="460" y="245" on="0"/>
        <pt x="383" y="302" on="0"/>
        <pt x="296" y="302" on="1"/>
        <pt x="228" y="302" on="1"/>
        <pt x="228" y="61" on="1"/>
        <pt x="266" y="55" on="0"/>
        <pt x="320" y="55" on="1"/>
      </contour>
    </TTGlyph>
    <TTGlyph name="C" xMin="45" yMin="-11" xMax="557" yMax="660">
      <contour>
        <pt x="557" y="184" on="1"/>
        <pt x="557" y="32" on="1"/>
        <pt x="512" y="13" on="0"/>
        <pt x="419" y="-11" on="0"/>
        <pt x="340" y="-11" on="1"/>
        <pt x="45" y="-11" on="0"/>
        <pt x="45" y="316" on="1"/>
        <pt x="45" y="408" on="0"/>
        <pt x="121" y="566" on="0"/>
        <pt x="263" y="660" on="0"/>
        <pt x="355" y="660" on="1"/>
        <pt x="481" y="660" on="0"/>
        <pt x="553" y="631" on="1"/>
        <pt x="553" y="474" on="1"/>
        <pt x="504" y="474" on="1"/>
        <pt x="483" y="584" on="1"/>
        <pt x="479" y="585" on="0"/>
        <pt x="443" y="593" on="0"/>
        <pt x="383" y="600" on="0"/>
        <pt x="348" y="600" on="1"/>
        <pt x="275" y="600" on="0"/>
        <pt x="186" y="542" on="0"/>
        <pt x="146" y="419" on="0"/>
        <pt x="146" y="319" on="1"/>
        <pt x="146" y="194" on="0"/>
        <pt x="255" y="45" on="0"/>
        <pt x="352" y="45" on="1"/>
        <pt x="396" y="45" on="0"/>
        <pt x="456" y="61" on="0"/>
        <pt x="488" y="80" on="0"/>
        <pt x="488" y="82" on="1"/>
        <pt x="508" y="184" on="1"/>
      </contour>
    </TTGlyph>
    <TTGlyph name="Cacute" xMin="45" yMin="-11" xMax="557" yMax="836">
      <contour>
        <pt x="411" y="814" on="1"/>
        <pt x="423" y="823" on="0"/>
        <pt x="446" y="836" on="0"/>
        <pt x="453" y="836" on="1"/>
        <pt x="468" y="836" on="0"/>
        <pt x="492" y="800" on="0"/>
        <pt x="495" y="767" on="1"/>
        <pt x="302" y="681" on="1"/>
        <pt x="280" y="716" on="1"/>
      </contour>
      <contour>
        <pt x="557" y="184" on="1"/>
        <pt x="557" y="32" on="1"/>
        <pt x="512" y="13" on="0"/>
        <pt x="419" y="-11" on="0"/>
        <pt x="340" y="-11" on="1"/>
        <pt x="45" y="-11" on="0"/>
        <pt x="45" y="316" on="1"/>
        <pt x="45" y="408" on="0"/>
        <pt x="121" y="566" on="0"/>
        <pt x="263" y="660" on="0"/>
        <pt x="355" y="660" on="1"/>
        <pt x="481" y="660" on="0"/>
        <pt x="553" y="631" on="1"/>
        <pt x="553" y="474" on="1"/>
        <pt x="504" y="474" on="1"/>
        <pt x="483" y="584" on="1"/>
        <pt x="479" y="585" on="0"/>
        <pt x="443" y="593" on="0"/>
        <pt x="383" y="600" on="0"/>
        <pt x="348" y="600" on="1"/>
        <pt x="275" y="600" on="0"/>
        <pt x="186" y="542" on="0"/>
        <pt x="146" y="419" on="0"/>
        <pt x="146" y="319" on="1"/>
        <pt x="146" y="194" on="0"/>
        <pt x="255" y="45" on="0"/>
        <pt x="352" y="45" on="1"/>
        <pt x="396" y="45" on="0"/>
        <pt x="456" y="61" on="0"/>
        <pt x="488" y="80" on="0"/>
        <pt x="488" y="82" on="1"/>
        <pt x="508" y="184" on="1"/>
      </contour>
    </TTGlyph>
    <TTGlyph name="Cacute.loclPLK" xMin="45" yMin="-11" xMax="557" yMax="862">
      <contour>
        <pt x="329" y="692" on="1"/>
        <pt x="400" y="822" on="1"/>
        <pt x="412" y="843" on="0"/>
        <pt x="428" y="862" on="0"/>
        <pt x="439" y="862" on="1"/>
        <pt x="452" y="862" on="0"/>
        <pt x="482" y="838" on="0"/>
        <pt x="496" y="814" on="1"/>
        <pt x="365" y="666" on="1"/>
      </contour>
      <contour>
        <pt x="557" y="184" on="1"/>
        <pt x="557" y="32" on="1"/>
        <pt x="512" y="13" on="0"/>
        <pt x="419" y="-11" on="0"/>
        <pt x="340" y="-11" on="1"/>
        <pt x="45" y="-11" on="0"/>
        <pt x="45" y="316" on="1"/>
        <pt x="45" y="408" on="0"/>
        <pt x="121" y="566" on="0"/>
        <pt x="263" y="660" on="0"/>
        <pt x="355" y="660" on="1"/>
        <pt x="481" y="660" on="0"/>
        <pt x="553" y="631" on="1"/>
        <pt x="553" y="474" on="1"/>
        <pt x="504" y="474" on="1"/>
        <pt x="483" y="584" on="1"/>
        <pt x="479" y="585" on="0"/>
        <pt x="443" y="593" on="0"/>
        <pt x="383" y="600" on="0"/>
        <pt x="348" y="600" on="1"/>
        <pt x="275" y="600" on="0"/>
        <pt x="186" y="542" on="0"/>
        <pt x="146" y="419" on="0"/>
        <pt x="146" y="319" on="1"/>
        <pt x="146" y="194" on="0"/>
        <pt x="255" y="45" on="0"/>
        <pt x="352" y="45" on="1"/>
        <pt x="396" y="45" on="0"/>
        <pt x="456" y="61" on="0"/>
        <pt x="488" y="80" on="0"/>
        <pt x="488" y="82" on="1"/>
        <pt x="508" y="184" on="1"/>
      </contour>
    </TTGlyph>
    <TTGlyph name="Ccaron" xMin="45" yMin="-11" xMax="557" yMax="834">
      <contour>
        <pt x="346" y="769" on="1"/>
        <pt x="472" y="832" on="1"/>
        <pt x="497" y="796" on="1"/>
        <pt x="418" y="732" on="1"/>
        <pt x="389" y="709" on="1"/>
        <pt x="373" y="695" on="0"/>
        <pt x="349" y="678" on="0"/>
        <pt x="342" y="678" on="1"/>
        <pt x="333" y="678" on="0"/>
        <pt x="311" y="693" on="0"/>
        <pt x="287" y="714" on="1"/>
        <pt x="279" y="720" on="0"/>
        <pt x="265" y="732" on="1"/>
        <pt x="191" y="793" on="1"/>
        <pt x="224" y="834" on="1"/>
      </contour>
      <contour>
        <pt x="557" y="184" on="1"/>
        <pt x="557" y="32" on="1"/>
        <pt x="512" y="13" on="0"/>
        <pt x="419" y="-11" on="0"/>
        <pt x="340" y="-11" on="1"/>
        <pt x="45" y="-11" on="0"/>
        <pt x="45" y="316" on="1"/>
        <pt x="45" y="408" on="0"/>
        <pt x="121" y="566" on="0"/>
        <pt x="263" y="660" on="0"/>
        <pt x="355" y="660" on="1"/>
        <pt x="481" y="660" on="0"/>
        <pt x="553" y="631" on="1"/>
        <pt x="553" y="474" on="1"/>
        <pt x="504" y="474" on="1"/>
        <pt x="483" y="584" on="1"/>
        <pt x="479" y="585" on="0"/>
        <pt x="443" y="593" on="0"/>
        <pt x="383" y="600" on="0"/>
        <pt x="348" y="600" on="1"/>
        <pt x="275" y="600" on="0"/>
        <pt x="186" y="542" on="0"/>
        <pt x="146" y="419" on="0"/>
        <pt x="146" y="319" on="1"/>
        <pt x="146" y="194" on="0"/>
        <pt x="255" y="45" on="0"/>
        <pt x="352" y="45" on="1"/>
        <pt x="396" y="45" on="0"/>
        <pt x="456" y="61" on="0"/>
        <pt x="488" y="80" on="0"/>
        <pt x="488" y="82" on="1"/>
        <pt x="508" y="184" on="1"/>
      </contour>
    </TTGlyph>
    <TTGlyph name="Ccedilla" xMin="45" yMin="-187" xMax="557" yMax="660">
      <contour>
        <pt x="301" y="-145" on="0"/>
        <pt x="327" y="-145" on="1"/>
        <pt x="386" y="-145" on="0"/>
        <pt x="386" y="-115" on="1"/>
        <pt x="386" y="-100" on="0"/>
        <pt x="372" y="-89" on="0"/>
        <pt x="355" y="-86" on="1"/>
        <pt x="318" y="-78" on="1"/>
        <pt x="299" y="-59" on="1"/>
        <pt x="319" y="-10" on="1"/>
        <pt x="45" y="0" on="0"/>
        <pt x="45" y="316" on="1"/>
        <pt x="45" y="408" on="0"/>
        <pt x="121" y="566" on="0"/>
        <pt x="263" y="660" on="0"/>
        <pt x="355" y="660" on="1"/>
        <pt x="481" y="660" on="0"/>
        <pt x="553" y="631" on="1"/>
        <pt x="553" y="474" on="1"/>
        <pt x="504" y="474" on="1"/>
        <pt x="483" y="584" on="1"/>
        <pt x="479" y="585" on="0"/>
        <pt x="443" y="593" on="0"/>
        <pt x="383" y="600" on="0"/>
        <pt x="348" y="600" on="1"/>
        <pt x="275" y="600" on="0"/>
        <pt x="186" y="542" on="0"/>
        <pt x="146" y="419" on="0"/>
        <pt x="146" y="319" on="1"/>
        <pt x="146" y="194" on="0"/>
        <pt x="255" y="45" on="0"/>
        <pt x="352" y="45" on="1"/>
        <pt x="396" y="45" on="0"/>
        <pt x="456" y="61" on="0"/>
        <pt x="488" y="80" on="0"/>
        <pt x="488" y="82" on="1"/>
        <pt x="508" y="184" on="1"/>
        <pt x="557" y="184" on="1"/>
        <pt x="557" y="32" on="1"/>
        <pt x="518" y="14" on="0"/>
        <pt x="433" y="-8" on="0"/>
        <pt x="365" y="-11" on="1"/>
        <pt x="365" y="-29" on="1"/>
        <pt x="382" y="-33" on="1"/>
        <pt x="418" y="-42" on="0"/>
        <pt x="454" y="-66" on="0"/>
        <pt x="454" y="-96" on="1"/>
        <pt x="454" y="-144" on="0"/>
        <pt x="383" y="-187" on="0"/>
        <pt x="331" y="-187" on="1"/>
        <pt x="309" y="-187" on="0"/>
        <pt x="276" y="-179" on="0"/>
        <pt x="257" y="-171" on="1"/>
        <pt x="273" y="-134" on="1"/>
      </contour>
    </TTGlyph>
    <TTGlyph name="Ccircumflex" xMin="45" yMin="-11" xMax="557" yMax="834">
      <component glyphName=".ttfautohint" x="45" y="0" flags="0x0"/>
      <component glyphName="C" x="0" y="0" flags="0x0"/>
      <component glyphName="uni0302.case" x="508" y="0" flags="0x0"/>
    </TTGlyph>
    <TTGlyph name="Cdotaccent" xMin="45" yMin="-11" xMax="557" yMax="822">
      <component glyphName=".ttfautohint" x="45" y="0" flags="0x0"/>
      <component glyphName="C" x="0" y="0" flags="0x0"/>
      <component glyphName="uni0307.case" x="413" y="0" flags="0x0"/>
    </TTGlyph>
    <TTGlyph name="D" xMin="55" yMin="0" xMax="658" yMax="648">
      <contour>
        <pt x="55" y="43" on="1"/>
        <pt x="138" y="60" on="1"/>
        <pt x="138" y="587" on="1"/>
        <pt x="55" y="605" on="1"/>
        <pt x="55" y="648" on="1"/>
        <pt x="351" y="648" on="1"/>
        <pt x="499" y="648" on="0"/>
        <pt x="658" y="488" on="0"/>
        <pt x="658" y="340" on="1"/>
        <pt x="658" y="172" on="0"/>
        <pt x="482" y="0" on="0"/>
        <pt x="310" y="0" on="1"/>
        <pt x="55" y="0" on="1"/>
      </contour>
      <contour>
        <pt x="404" y="51" on="0"/>
        <pt x="508" y="110" on="0"/>
        <pt x="557" y="235" on="0"/>
        <pt x="557" y="337" on="1"/>
        <pt x="557" y="468" on="0"/>
        <pt x="442" y="590" on="0"/>
        <pt x="320" y="590" on="1"/>
        <pt x="260" y="590" on="0"/>
        <pt x="224" y="583" on="1"/>
        <pt x="224" y="62" on="1"/>
        <pt x="238" y="57" on="0"/>
        <pt x="293" y="51" on="0"/>
        <pt x="319" y="51" on="1"/>
      </contour>
    </TTGlyph>
    <TTGlyph name="Dcaron" xMin="55" yMin="0" xMax="658" yMax="834">
      <contour>
        <pt x="341" y="769" on="1"/>
        <pt x="467" y="832" on="1"/>
        <pt x="492" y="796" on="1"/>
        <pt x="413" y="732" on="1"/>
        <pt x="384" y="709" on="1"/>
        <pt x="368" y="695" on="0"/>
        <pt x="344" y="678" on="0"/>
        <pt x="337" y="678" on="1"/>
        <pt x="328" y="678" on="0"/>
        <pt x="306" y="693" on="0"/>
        <pt x="282" y="714" on="1"/>
        <pt x="274" y="720" on="0"/>
        <pt x="260" y="732" on="1"/>
        <pt x="186" y="793" on="1"/>
        <pt x="219" y="834" on="1"/>
      </contour>
      <contour>
        <pt x="55" y="43" on="1"/>
        <pt x="138" y="60" on="1"/>
        <pt x="138" y="587" on="1"/>
        <pt x="55" y="605" on="1"/>
        <pt x="55" y="648" on="1"/>
        <pt x="351" y="648" on="1"/>
        <pt x="499" y="648" on="0"/>
        <pt x="658" y="488" on="0"/>
        <pt x="658" y="340" on="1"/>
        <pt x="658" y="172" on="0"/>
        <pt x="482" y="0" on="0"/>
        <pt x="310" y="0" on="1"/>
        <pt x="55" y="0" on="1"/>
      </contour>
      <contour>
        <pt x="404" y="51" on="0"/>
        <pt x="508" y="110" on="0"/>
        <pt x="557" y="235" on="0"/>
        <pt x="557" y="337" on="1"/>
        <pt x="557" y="468" on="0"/>
        <pt x="442" y="590" on="0"/>
        <pt x="320" y="590" on="1"/>
        <pt x="260" y="590" on="0"/>
        <pt x="224" y="583" on="1"/>
        <pt x="224" y="62" on="1"/>
        <pt x="238" y="57" on="0"/>
        <pt x="293" y="51" on="0"/>
        <pt x="319" y="51" on="1"/>
      </contour>
    </TTGlyph>
    <TTGlyph name="Dcroat" xMin="57" yMin="0" xMax="662" yMax="648">
      <component glyphName=".ttfautohint" x="57" y="0" flags="0x0"/>
      <component glyphName="Eth" x="0" y="0" flags="0x0"/>
    </TTGlyph>
    <TTGlyph name="E" xMin="55" yMin="0" xMax="522" yMax="648">
      <contour>
        <pt x="138" y="60" on="1"/>
        <pt x="138" y="588" on="1"/>
        <pt x="55" y="605" on="1"/>
        <pt x="55" y="648" on="1"/>
        <pt x="513" y="648" on="1"/>
        <pt x="513" y="484" on="1"/>
        <pt x="464" y="484" on="1"/>
        <pt x="443" y="593" on="1"/>
        <pt x="322" y="593" on="1"/>
        <pt x="224" y="587" on="1"/>
        <pt x="224" y="358" on="1"/>
        <pt x="382" y="358" on="1"/>
        <pt x="397" y="417" on="1"/>
        <pt x="439" y="417" on="1"/>
        <pt x="439" y="246" on="1"/>
        <pt x="397" y="246" on="1"/>
        <pt x="382" y="305" on="1"/>
        <pt x="224" y="305" on="1"/>
        <pt x="224" y="67" on="1"/>
        <pt x="243" y="63" on="0"/>
        <pt x="303" y="57" on="0"/>
        <pt x="331" y="57" on="1"/>
        <pt x="451" y="57" on="1"/>
        <pt x="473" y="164" on="1"/>
        <pt x="522" y="164" on="1"/>
        <pt x="522" y="0" on="1"/>
        <pt x="55" y="0" on="1"/>
        <pt x="55" y="43" on="1"/>
      </contour>
    </TTGlyph>
    <TTGlyph name="Eacute" xMin="55" yMin="0" xMax="522" yMax="836">
      <contour>
        <pt x="342" y="814" on="1"/>
        <pt x="354" y="823" on="0"/>
        <pt x="377" y="836" on="0"/>
        <pt x="384" y="836" on="1"/>
        <pt x="399" y="836" on="0"/>
        <pt x="423" y="800" on="0"/>
        <pt x="426" y="767" on="1"/>
        <pt x="233" y="681" on="1"/>
        <pt x="211" y="716" on="1"/>
      </contour>
      <contour>
        <pt x="138" y="60" on="1"/>
        <pt x="138" y="588" on="1"/>
        <pt x="55" y="605" on="1"/>
        <pt x="55" y="648" on="1"/>
        <pt x="513" y="648" on="1"/>
        <pt x="513" y="484" on="1"/>
        <pt x="464" y="484" on="1"/>
        <pt x="443" y="593" on="1"/>
        <pt x="322" y="593" on="1"/>
        <pt x="224" y="587" on="1"/>
        <pt x="224" y="358" on="1"/>
        <pt x="382" y="358" on="1"/>
        <pt x="397" y="417" on="1"/>
        <pt x="439" y="417" on="1"/>
        <pt x="439" y="246" on="1"/>
        <pt x="397" y="246" on="1"/>
        <pt x="382" y="305" on="1"/>
        <pt x="224" y="305" on="1"/>
        <pt x="224" y="67" on="1"/>
        <pt x="243" y="63" on="0"/>
        <pt x="303" y="57" on="0"/>
        <pt x="331" y="57" on="1"/>
        <pt x="451" y="57" on="1"/>
        <pt x="473" y="164" on="1"/>
        <pt x="522" y="164" on="1"/>
        <pt x="522" y="0" on="1"/>
        <pt x="55" y="0" on="1"/>
        <pt x="55" y="43" on="1"/>
      </contour>
    </TTGlyph>
    <TTGlyph name="Ebreve" xMin="55" yMin="0" xMax="522" yMax="821">
      <component glyphName=".ttfautohint" x="55" y="0" flags="0x0"/>
      <component glyphName="E" x="0" y="0" flags="0x0"/>
      <component glyphName="uni0306.case" x="459" y="0" flags="0x0"/>
    </TTGlyph>
    <TTGlyph name="Ecaron" xMin="55" yMin="0" xMax="522" yMax="834">
      <contour>
        <pt x="306" y="769" on="1"/>
        <pt x="432" y="832" on="1"/>
        <pt x="457" y="796" on="1"/>
        <pt x="378" y="732" on="1"/>
        <pt x="349" y="709" on="1"/>
        <pt x="333" y="695" on="0"/>
        <pt x="309" y="678" on="0"/>
        <pt x="302" y="678" on="1"/>
        <pt x="293" y="678" on="0"/>
        <pt x="271" y="693" on="0"/>
        <pt x="247" y="714" on="1"/>
        <pt x="239" y="720" on="0"/>
        <pt x="225" y="732" on="1"/>
        <pt x="151" y="793" on="1"/>
        <pt x="184" y="834" on="1"/>
      </contour>
      <contour>
        <pt x="138" y="60" on="1"/>
        <pt x="138" y="588" on="1"/>
        <pt x="55" y="605" on="1"/>
        <pt x="55" y="648" on="1"/>
        <pt x="513" y="648" on="1"/>
        <pt x="513" y="484" on="1"/>
        <pt x="464" y="484" on="1"/>
        <pt x="443" y="593" on="1"/>
        <pt x="322" y="593" on="1"/>
        <pt x="224" y="587" on="1"/>
        <pt x="224" y="358" on="1"/>
        <pt x="382" y="358" on="1"/>
        <pt x="397" y="417" on="1"/>
        <pt x="439" y="417" on="1"/>
        <pt x="439" y="246" on="1"/>
        <pt x="397" y="246" on="1"/>
        <pt x="382" y="305" on="1"/>
        <pt x="224" y="305" on="1"/>
        <pt x="224" y="67" on="1"/>
        <pt x="243" y="63" on="0"/>
        <pt x="303" y="57" on="0"/>
        <pt x="331" y="57" on="1"/>
        <pt x="451" y="57" on="1"/>
        <pt x="473" y="164" on="1"/>
        <pt x="522" y="164" on="1"/>
        <pt x="522" y="0" on="1"/>
        <pt x="55" y="0" on="1"/>
        <pt x="55" y="43" on="1"/>
      </contour>
    </TTGlyph>
    <TTGlyph name="Ecircumflex" xMin="55" yMin="0" xMax="522" yMax="834">
      <contour>
        <pt x="228" y="780" on="1"/>
        <pt x="257" y="803" on="1"/>
        <pt x="273" y="817" on="0"/>
        <pt x="297" y="834" on="0"/>
        <pt x="304" y="834" on="1"/>
        <pt x="313" y="834" on="0"/>
        <pt x="335" y="819" on="0"/>
        <pt x="359" y="798" on="1"/>
        <pt x="367" y="792" on="0"/>
        <pt x="381" y="780" on="1"/>
        <pt x="455" y="719" on="1"/>
        <pt x="422" y="678" on="1"/>
        <pt x="300" y="743" on="1"/>
        <pt x="174" y="680" on="1"/>
        <pt x="149" y="716" on="1"/>
      </contour>
      <contour>
        <pt x="138" y="60" on="1"/>
        <pt x="138" y="588" on="1"/>
        <pt x="55" y="605" on="1"/>
        <pt x="55" y="648" on="1"/>
        <pt x="513" y="648" on="1"/>
        <pt x="513" y="484" on="1"/>
        <pt x="464" y="484" on="1"/>
        <pt x="443" y="593" on="1"/>
        <pt x="322" y="593" on="1"/>
        <pt x="224" y="587" on="1"/>
        <pt x="224" y="358" on="1"/>
        <pt x="382" y="358" on="1"/>
        <pt x="397" y="417" on="1"/>
        <pt x="439" y="417" on="1"/>
        <pt x="439" y="246" on="1"/>
        <pt x="397" y="246" on="1"/>
        <pt x="382" y="305" on="1"/>
        <pt x="224" y="305" on="1"/>
        <pt x="224" y="67" on="1"/>
        <pt x="243" y="63" on="0"/>
        <pt x="303" y="57" on="0"/>
        <pt x="331" y="57" on="1"/>
        <pt x="451" y="57" on="1"/>
        <pt x="473" y="164" on="1"/>
        <pt x="522" y="164" on="1"/>
        <pt x="522" y="0" on="1"/>
        <pt x="55" y="0" on="1"/>
        <pt x="55" y="43" on="1"/>
      </contour>
    </TTGlyph>
    <TTGlyph name="Edieresis" xMin="55" yMin="0" xMax="522" yMax="809">
      <contour>
        <pt x="181" y="693" on="0"/>
        <pt x="153" y="724" on="0"/>
        <pt x="153" y="749" on="1"/>
        <pt x="153" y="774" on="0"/>
        <pt x="184" y="809" on="0"/>
        <pt x="208" y="809" on="1"/>
        <pt x="231" y="809" on="0"/>
        <pt x="259" y="780" on="0"/>
        <pt x="259" y="755" on="1"/>
        <pt x="259" y="729" on="0"/>
        <pt x="229" y="693" on="0"/>
        <pt x="204" y="693" on="1"/>
      </contour>
      <contour>
        <pt x="392" y="693" on="0"/>
        <pt x="364" y="724" on="0"/>
        <pt x="364" y="749" on="1"/>
        <pt x="364" y="774" on="0"/>
        <pt x="395" y="809" on="0"/>
        <pt x="419" y="809" on="1"/>
        <pt x="442" y="809" on="0"/>
        <pt x="470" y="780" on="0"/>
        <pt x="470" y="755" on="1"/>
        <pt x="470" y="729" on="0"/>
        <pt x="440" y="693" on="0"/>
        <pt x="415" y="693" on="1"/>
      </contour>
      <contour>
        <pt x="138" y="60" on="1"/>
        <pt x="138" y="588" on="1"/>
        <pt x="55" y="605" on="1"/>
        <pt x="55" y="648" on="1"/>
        <pt x="513" y="648" on="1"/>
        <pt x="513" y="484" on="1"/>
        <pt x="464" y="484" on="1"/>
        <pt x="443" y="593" on="1"/>
        <pt x="322" y="593" on="1"/>
        <pt x="224" y="587" on="1"/>
        <pt x="224" y="358" on="1"/>
        <pt x="382" y="358" on="1"/>
        <pt x="397" y="417" on="1"/>
        <pt x="439" y="417" on="1"/>
        <pt x="439" y="246" on="1"/>
        <pt x="397" y="246" on="1"/>
        <pt x="382" y="305" on="1"/>
        <pt x="224" y="305" on="1"/>
        <pt x="224" y="67" on="1"/>
        <pt x="243" y="63" on="0"/>
        <pt x="303" y="57" on="0"/>
        <pt x="331" y="57" on="1"/>
        <pt x="451" y="57" on="1"/>
        <pt x="473" y="164" on="1"/>
        <pt x="522" y="164" on="1"/>
        <pt x="522" y="0" on="1"/>
        <pt x="55" y="0" on="1"/>
        <pt x="55" y="43" on="1"/>
      </contour>
    </TTGlyph>
    <TTGlyph name="Edotaccent" xMin="55" yMin="0" xMax="522" yMax="822">
      <contour>
        <pt x="285" y="694" on="0"/>
        <pt x="254" y="728" on="0"/>
        <pt x="254" y="756" on="1"/>
        <pt x="254" y="783" on="0"/>
        <pt x="289" y="822" on="0"/>
        <pt x="315" y="822" on="1"/>
        <pt x="341" y="822" on="0"/>
        <pt x="371" y="790" on="0"/>
        <pt x="371" y="762" on="1"/>
        <pt x="371" y="734" on="0"/>
        <pt x="338" y="694" on="0"/>
        <pt x="310" y="694" on="1"/>
      </contour>
      <contour>
        <pt x="138" y="60" on="1"/>
        <pt x="138" y="588" on="1"/>
        <pt x="55" y="605" on="1"/>
        <pt x="55" y="648" on="1"/>
        <pt x="513" y="648" on="1"/>
        <pt x="513" y="484" on="1"/>
        <pt x="464" y="484" on="1"/>
        <pt x="443" y="593" on="1"/>
        <pt x="322" y="593" on="1"/>
        <pt x="224" y="587" on="1"/>
        <pt x="224" y="358" on="1"/>
        <pt x="382" y="358" on="1"/>
        <pt x="397" y="417" on="1"/>
        <pt x="439" y="417" on="1"/>
        <pt x="439" y="246" on="1"/>
        <pt x="397" y="246" on="1"/>
        <pt x="382" y="305" on="1"/>
        <pt x="224" y="305" on="1"/>
        <pt x="224" y="67" on="1"/>
        <pt x="243" y="63" on="0"/>
        <pt x="303" y="57" on="0"/>
        <pt x="331" y="57" on="1"/>
        <pt x="451" y="57" on="1"/>
        <pt x="473" y="164" on="1"/>
        <pt x="522" y="164" on="1"/>
        <pt x="522" y="0" on="1"/>
        <pt x="55" y="0" on="1"/>
        <pt x="55" y="43" on="1"/>
      </contour>
    </TTGlyph>
    <TTGlyph name="Egrave" xMin="55" yMin="0" xMax="522" yMax="836">
      <contour>
        <pt x="197" y="800" on="0"/>
        <pt x="221" y="836" on="0"/>
        <pt x="236" y="836" on="1"/>
        <pt x="243" y="836" on="0"/>
        <pt x="266" y="823" on="0"/>
        <pt x="278" y="814" on="1"/>
        <pt x="409" y="716" on="1"/>
        <pt x="387" y="681" on="1"/>
        <pt x="194" y="767" on="1"/>
      </contour>
      <contour>
        <pt x="138" y="60" on="1"/>
        <pt x="138" y="588" on="1"/>
        <pt x="55" y="605" on="1"/>
        <pt x="55" y="648" on="1"/>
        <pt x="513" y="648" on="1"/>
        <pt x="513" y="484" on="1"/>
        <pt x="464" y="484" on="1"/>
        <pt x="443" y="593" on="1"/>
        <pt x="322" y="593" on="1"/>
        <pt x="224" y="587" on="1"/>
        <pt x="224" y="358" on="1"/>
        <pt x="382" y="358" on="1"/>
        <pt x="397" y="417" on="1"/>
        <pt x="439" y="417" on="1"/>
        <pt x="439" y="246" on="1"/>
        <pt x="397" y="246" on="1"/>
        <pt x="382" y="305" on="1"/>
        <pt x="224" y="305" on="1"/>
        <pt x="224" y="67" on="1"/>
        <pt x="243" y="63" on="0"/>
        <pt x="303" y="57" on="0"/>
        <pt x="331" y="57" on="1"/>
        <pt x="451" y="57" on="1"/>
        <pt x="473" y="164" on="1"/>
        <pt x="522" y="164" on="1"/>
        <pt x="522" y="0" on="1"/>
        <pt x="55" y="0" on="1"/>
        <pt x="55" y="43" on="1"/>
      </contour>
    </TTGlyph>
    <TTGlyph name="Emacron" xMin="55" yMin="0" xMax="522" yMax="781">
      <contour>
        <pt x="477" y="781" on="1"/>
        <pt x="467" y="723" on="1"/>
        <pt x="135" y="723" on="1"/>
        <pt x="145" y="781" on="1"/>
      </contour>
      <contour>
        <pt x="138" y="60" on="1"/>
        <pt x="138" y="588" on="1"/>
        <pt x="55" y="605" on="1"/>
        <pt x="55" y="648" on="1"/>
        <pt x="513" y="648" on="1"/>
        <pt x="513" y="484" on="1"/>
        <pt x="464" y="484" on="1"/>
        <pt x="443" y="593" on="1"/>
        <pt x="322" y="593" on="1"/>
        <pt x="224" y="587" on="1"/>
        <pt x="224" y="358" on="1"/>
        <pt x="382" y="358" on="1"/>
        <pt x="397" y="417" on="1"/>
        <pt x="439" y="417" on="1"/>
        <pt x="439" y="246" on="1"/>
        <pt x="397" y="246" on="1"/>
        <pt x="382" y="305" on="1"/>
        <pt x="224" y="305" on="1"/>
        <pt x="224" y="67" on="1"/>
        <pt x="243" y="63" on="0"/>
        <pt x="303" y="57" on="0"/>
        <pt x="331" y="57" on="1"/>
        <pt x="451" y="57" on="1"/>
        <pt x="473" y="164" on="1"/>
        <pt x="522" y="164" on="1"/>
        <pt x="522" y="0" on="1"/>
        <pt x="55" y="0" on="1"/>
        <pt x="55" y="43" on="1"/>
      </contour>
    </TTGlyph>
    <TTGlyph name="Eng" xMin="55" yMin="-165" xMax="680" yMax="648">
      <contour>
        <pt x="680" y="648" on="1"/>
        <pt x="680" y="606" on="1"/>
        <pt x="611" y="590" on="1"/>
        <pt x="611" y="-83" on="1"/>
        <pt x="611" y="-122" on="0"/>
        <pt x="556" y="-165" on="0"/>
        <pt x="504" y="-165" on="1"/>
        <pt x="474" y="-165" on="0"/>
        <pt x="421" y="-156" on="0"/>
        <pt x="421" y="-155" on="1"/>
        <pt x="421" y="-117" on="1"/>
        <pt x="518" y="-94" on="1"/>
        <pt x="518" y="2" on="1"/>
        <pt x="194" y="516" on="1"/>
        <pt x="185" y="516" on="1"/>
        <pt x="185" y="58" on="1"/>
        <pt x="255" y="42" on="1"/>
        <pt x="255" y="0" on="1"/>
        <pt x="55" y="0" on="1"/>
        <pt x="55" y="42" on="1"/>
        <pt x="125" y="58" on="1"/>
        <pt x="125" y="590" on="1"/>
        <pt x="60" y="604" on="1"/>
        <pt x="60" y="648" on="1"/>
        <pt x="213" y="648" on="1"/>
        <pt x="528" y="149" on="1"/>
        <pt x="541" y="129" on="1"/>
        <pt x="550" y="129" on="1"/>
        <pt x="550" y="590" on="1"/>
        <pt x="481" y="606" on="1"/>
        <pt x="481" y="648" on="1"/>
      </contour>
    </TTGlyph>
    <TTGlyph name="Eogonek" xMin="55" yMin="-187" xMax="593" yMax="648">
      <contour>
        <pt x="138" y="60" on="1"/>
        <pt x="138" y="588" on="1"/>
        <pt x="55" y="605" on="1"/>
        <pt x="55" y="648" on="1"/>
        <pt x="513" y="648" on="1"/>
        <pt x="513" y="484" on="1"/>
        <pt x="464" y="484" on="1"/>
        <pt x="443" y="593" on="1"/>
        <pt x="322" y="593" on="1"/>
        <pt x="224" y="587" on="1"/>
        <pt x="224" y="358" on="1"/>
        <pt x="382" y="358" on="1"/>
        <pt x="397" y="417" on="1"/>
        <pt x="439" y="417" on="1"/>
        <pt x="439" y="246" on="1"/>
        <pt x="397" y="246" on="1"/>
        <pt x="382" y="305" on="1"/>
        <pt x="224" y="305" on="1"/>
        <pt x="224" y="67" on="1"/>
        <pt x="276" y="57" on="0"/>
        <pt x="331" y="57" on="1"/>
        <pt x="451" y="57" on="1"/>
        <pt x="486" y="164" on="1"/>
        <pt x="535" y="164" on="1"/>
        <pt x="522" y="16" on="1"/>
        <pt x="521" y="15" on="1"/>
        <pt x="475" y="-39" on="0"/>
        <pt x="475" y="-83" on="1"/>
        <pt x="475" y="-127" on="0"/>
        <pt x="518" y="-127" on="1"/>
        <pt x="539" y="-127" on="0"/>
        <pt x="575" y="-106" on="1"/>
        <pt x="593" y="-136" on="1"/>
        <pt x="593" y="-137" on="0"/>
        <pt x="562" y="-164" on="0"/>
        <pt x="517" y="-187" on="0"/>
        <pt x="492" y="-187" on="1"/>
        <pt x="455" y="-187" on="0"/>
        <pt x="409" y="-149" on="0"/>
        <pt x="409" y="-113" on="1"/>
        <pt x="409" y="-58" on="0"/>
        <pt x="461" y="0" on="1"/>
        <pt x="55" y="0" on="1"/>
        <pt x="55" y="43" on="1"/>
      </contour>
    </TTGlyph>
    <TTGlyph name="Eth" xMin="57" yMin="0" xMax="662" yMax="648">
      <contour>
        <pt x="142" y="60" on="1"/>
        <pt x="142" y="305" on="1"/>
        <pt x="57" y="305" on="1"/>
        <pt x="57" y="362" on="1"/>
        <pt x="142" y="362" on="1"/>
        <pt x="142" y="587" on="1"/>
        <pt x="59" y="605" on="1"/>
        <pt x="59" y="648" on="1"/>
        <pt x="367" y="648" on="1"/>
        <pt x="509" y="648" on="0"/>
        <pt x="662" y="483" on="0"/>
        <pt x="662" y="330" on="1"/>
        <pt x="662" y="231" on="0"/>
        <pt x="582" y="82" on="0"/>
        <pt x="436" y="0" on="0"/>
        <pt x="340" y="0" on="1"/>
        <pt x="59" y="0" on="1"/>
        <pt x="59" y="43" on="1"/>
      </contour>
      <contour>
        <pt x="267" y="51" on="0"/>
        <pt x="329" y="51" on="1"/>
        <pt x="412" y="51" on="0"/>
        <pt x="514" y="107" on="0"/>
        <pt x="561" y="228" on="0"/>
        <pt x="561" y="327" on="1"/>
        <pt x="561" y="464" on="0"/>
        <pt x="453" y="590" on="0"/>
        <pt x="336" y="590" on="1"/>
        <pt x="277" y="590" on="0"/>
        <pt x="228" y="583" on="1"/>
        <pt x="228" y="362" on="1"/>
        <pt x="404" y="362" on="1"/>
        <pt x="404" y="305" on="1"/>
        <pt x="228" y="305" on="1"/>
        <pt x="228" y="62" on="1"/>
      </contour>
    </TTGlyph>
    <TTGlyph name="Euro" xMin="-5" yMin="-11" xMax="487" yMax="660">
      <contour>
        <pt x="347" y="361" on="1"/>
        <pt x="5" y="361" on="1"/>
        <pt x="25" y="418" on="1"/>
        <pt x="73" y="418" on="1"/>
        <pt x="98" y="530" on="0"/>
        <pt x="237" y="660" on="0"/>
        <pt x="339" y="660" on="1"/>
        <pt x="375" y="660" on="0"/>
        <pt x="456" y="645" on="0"/>
        <pt x="483" y="631" on="1"/>
        <pt x="483" y="474" on="1"/>
        <pt x="434" y="474" on="1"/>
        <pt x="415" y="584" on="1"/>
        <pt x="401" y="591" on="0"/>
        <pt x="352" y="600" on="0"/>
        <pt x="329" y="600" on="1"/>
        <pt x="193" y="600" on="0"/>
        <pt x="167" y="418" on="1"/>
        <pt x="367" y="418" on="1"/>
      </contour>
      <contour>
        <pt x="487" y="184" on="1"/>
        <pt x="487" y="32" on="1"/>
        <pt x="452" y="13" on="0"/>
        <pt x="358" y="-11" on="0"/>
        <pt x="312" y="-11" on="1"/>
        <pt x="199" y="-11" on="0"/>
        <pt x="77" y="137" on="0"/>
        <pt x="67" y="256" on="1"/>
        <pt x="-5" y="256" on="1"/>
        <pt x="15" y="313" on="1"/>
        <pt x="330" y="313" on="1"/>
        <pt x="310" y="256" on="1"/>
        <pt x="170" y="256" on="1"/>
        <pt x="180" y="157" on="0"/>
        <pt x="256" y="45" on="0"/>
        <pt x="319" y="45" on="1"/>
        <pt x="346" y="45" on="0"/>
        <pt x="401" y="65" on="0"/>
        <pt x="419" y="82" on="1"/>
        <pt x="438" y="184" on="1"/>
      </contour>
    </TTGlyph>
    <TTGlyph name="Euro.osf" xMin="-15" yMin="-9" xMax="464" yMax="531">
      <contour>
        <pt x="60" y="335" on="1"/>
        <pt x="79" y="422" on="0"/>
        <pt x="196" y="531" on="0"/>
        <pt x="298" y="531" on="1"/>
        <pt x="352" y="531" on="0"/>
        <pt x="423" y="515" on="0"/>
        <pt x="460" y="500" on="1"/>
        <pt x="460" y="362" on="1"/>
        <pt x="415" y="362" on="1"/>
        <pt x="396" y="456" on="1"/>
        <pt x="393" y="457" on="0"/>
        <pt x="368" y="464" on="0"/>
        <pt x="326" y="470" on="0"/>
        <pt x="302" y="470" on="1"/>
        <pt x="223" y="470" on="0"/>
        <pt x="152" y="399" on="0"/>
        <pt x="145" y="335" on="1"/>
        <pt x="357" y="335" on="1"/>
        <pt x="337" y="278" on="1"/>
        <pt x="13" y="278" on="1"/>
        <pt x="33" y="335" on="1"/>
      </contour>
      <contour>
        <pt x="320" y="230" on="1"/>
        <pt x="300" y="173" on="1"/>
        <pt x="149" y="173" on="1"/>
        <pt x="166" y="50" on="0"/>
        <pt x="295" y="50" on="1"/>
        <pt x="326" y="50" on="0"/>
        <pt x="373" y="60" on="0"/>
        <pt x="398" y="71" on="0"/>
        <pt x="401" y="73" on="1"/>
        <pt x="419" y="166" on="1"/>
        <pt x="464" y="166" on="1"/>
        <pt x="464" y="30" on="1"/>
        <pt x="456" y="27" on="0"/>
        <pt x="407" y="4" on="0"/>
        <pt x="334" y="-9" on="0"/>
        <pt x="284" y="-9" on="1"/>
        <pt x="182" y="-9" on="0"/>
        <pt x="72" y="76" on="0"/>
        <pt x="58" y="173" on="1"/>
        <pt x="-15" y="173" on="1"/>
        <pt x="5" y="230" on="1"/>
      </contour>
    </TTGlyph>
    <TTGlyph name="F" xMin="55" yMin="0" xMax="517" yMax="648">
      <contour>
        <pt x="138" y="60" on="1"/>
        <pt x="138" y="588" on="1"/>
        <pt x="55" y="605" on="1"/>
        <pt x="55" y="648" on="1"/>
        <pt x="517" y="648" on="1"/>
        <pt x="517" y="484" on="1"/>
        <pt x="467" y="484" on="1"/>
        <pt x="446" y="593" on="1"/>
        <pt x="322" y="593" on="1"/>
        <pt x="224" y="587" on="1"/>
        <pt x="224" y="338" on="1"/>
        <pt x="391" y="338" on="1"/>
        <pt x="405" y="398" on="1"/>
        <pt x="447" y="398" on="1"/>
        <pt x="447" y="226" on="1"/>
        <pt x="405" y="226" on="1"/>
        <pt x="391" y="285" on="1"/>
        <pt x="224" y="285" on="1"/>
        <pt x="224" y="63" on="1"/>
        <pt x="338" y="49" on="1"/>
        <pt x="338" y="0" on="1"/>
        <pt x="55" y="0" on="1"/>
        <pt x="55" y="43" on="1"/>
      </contour>
    </TTGlyph>
    <TTGlyph name="G" xMin="45" yMin="-11" xMax="610" yMax="660">
      <contour>
        <pt x="413" y="278" on="1"/>
        <pt x="413" y="321" on="1"/>
        <pt x="610" y="321" on="1"/>
        <pt x="610" y="271" on="1"/>
        <pt x="569" y="263" on="1"/>
        <pt x="569" y="0" on="1"/>
        <pt x="528" y="0" on="1"/>
        <pt x="496" y="27" on="1"/>
        <pt x="482" y="27" on="1"/>
        <pt x="425" y="-11" on="0"/>
        <pt x="329" y="-11" on="1"/>
        <pt x="189" y="-11" on="0"/>
        <pt x="45" y="148" on="0"/>
        <pt x="45" y="316" on="1"/>
        <pt x="45" y="409" on="0"/>
        <pt x="120" y="566" on="0"/>
        <pt x="262" y="660" on="0"/>
        <pt x="359" y="660" on="1"/>
        <pt x="431" y="660" on="0"/>
        <pt x="540" y="641" on="0"/>
        <pt x="558" y="630" on="1"/>
        <pt x="558" y="474" on="1"/>
        <pt x="510" y="474" on="1"/>
        <pt x="481" y="584" on="1"/>
        <pt x="477" y="585" on="0"/>
        <pt x="444" y="593" on="0"/>
        <pt x="384" y="601" on="0"/>
        <pt x="346" y="601" on="1"/>
        <pt x="237" y="601" on="0"/>
        <pt x="146" y="466" on="0"/>
        <pt x="146" y="326" on="1"/>
        <pt x="146" y="185" on="0"/>
        <pt x="243" y="45" on="0"/>
        <pt x="354" y="45" on="1"/>
        <pt x="399" y="45" on="0"/>
        <pt x="452" y="60" on="0"/>
        <pt x="485" y="77" on="1"/>
        <pt x="485" y="260" on="1"/>
      </contour>
    </TTGlyph>
    <TTGlyph name="G_tilde.loclGUA" xMin="45" yMin="-11" xMax="610" yMax="806">
      <component glyphName=".ttfautohint" x="45" y="0" flags="0x0"/>
      <component glyphName="G" x="0" y="0" flags="0x0"/>
      <component glyphName="tildecomb.case" x="520" y="0" flags="0x0"/>
    </TTGlyph>
    <TTGlyph name="Gbreve" xMin="45" yMin="-11" xMax="610" yMax="821">
      <contour>
        <pt x="262" y="817" on="0"/>
        <pt x="279" y="783" on="0"/>
        <pt x="317" y="753" on="0"/>
        <pt x="346" y="753" on="1"/>
        <pt x="381" y="753" on="0"/>
        <pt x="427" y="783" on="0"/>
        <pt x="450" y="818" on="0"/>
        <pt x="450" y="821" on="1"/>
        <pt x="481" y="813" on="1"/>
        <pt x="481" y="806" on="0"/>
        <pt x="455" y="746" on="0"/>
        <pt x="393" y="692" on="0"/>
        <pt x="343" y="692" on="1"/>
        <pt x="285" y="692" on="0"/>
        <pt x="223" y="744" on="0"/>
        <pt x="202" y="798" on="0"/>
        <pt x="202" y="808" on="1"/>
        <pt x="262" y="821" on="1"/>
      </contour>
      <contour>
        <pt x="413" y="278" on="1"/>
        <pt x="413" y="321" on="1"/>
        <pt x="610" y="321" on="1"/>
        <pt x="610" y="271" on="1"/>
        <pt x="569" y="263" on="1"/>
        <pt x="569" y="0" on="1"/>
        <pt x="528" y="0" on="1"/>
        <pt x="496" y="27" on="1"/>
        <pt x="482" y="27" on="1"/>
        <pt x="425" y="-11" on="0"/>
        <pt x="329" y="-11" on="1"/>
        <pt x="189" y="-11" on="0"/>
        <pt x="45" y="148" on="0"/>
        <pt x="45" y="316" on="1"/>
        <pt x="45" y="409" on="0"/>
        <pt x="120" y="566" on="0"/>
        <pt x="262" y="660" on="0"/>
        <pt x="359" y="660" on="1"/>
        <pt x="431" y="660" on="0"/>
        <pt x="540" y="641" on="0"/>
        <pt x="558" y="630" on="1"/>
        <pt x="558" y="474" on="1"/>
        <pt x="510" y="474" on="1"/>
        <pt x="481" y="584" on="1"/>
        <pt x="477" y="585" on="0"/>
        <pt x="444" y="593" on="0"/>
        <pt x="384" y="601" on="0"/>
        <pt x="346" y="601" on="1"/>
        <pt x="237" y="601" on="0"/>
        <pt x="146" y="466" on="0"/>
        <pt x="146" y="326" on="1"/>
        <pt x="146" y="185" on="0"/>
        <pt x="243" y="45" on="0"/>
        <pt x="354" y="45" on="1"/>
        <pt x="399" y="45" on="0"/>
        <pt x="452" y="60" on="0"/>
        <pt x="485" y="77" on="1"/>
        <pt x="485" y="260" on="1"/>
      </contour>
    </TTGlyph>
    <TTGlyph name="Gcaron" xMin="45" yMin="-11" xMax="610" yMax="834">
      <component glyphName=".ttfautohint" x="45" y="0" flags="0x0"/>
      <component glyphName="G" x="0" y="0" flags="0x0"/>
      <component glyphName="uni030C.case" x="498" y="0" flags="0x0"/>
    </TTGlyph>
    <TTGlyph name="Gcircumflex" xMin="45" yMin="-11" xMax="610" yMax="834">
      <component glyphName=".ttfautohint" x="45" y="0" flags="0x0"/>
      <component glyphName="G" x="0" y="0" flags="0x0"/>
      <component glyphName="uni0302.case" x="498" y="0" flags="0x0"/>
    </TTGlyph>
    <TTGlyph name="Gcommaaccent" xMin="45" yMin="-189" xMax="610" yMax="660">
      <contour>
        <pt x="413" y="278" on="1"/>
        <pt x="413" y="321" on="1"/>
        <pt x="610" y="321" on="1"/>
        <pt x="610" y="271" on="1"/>
        <pt x="569" y="263" on="1"/>
        <pt x="569" y="0" on="1"/>
        <pt x="528" y="0" on="1"/>
        <pt x="496" y="27" on="1"/>
        <pt x="482" y="27" on="1"/>
        <pt x="425" y="-11" on="0"/>
        <pt x="329" y="-11" on="1"/>
        <pt x="189" y="-11" on="0"/>
        <pt x="45" y="148" on="0"/>
        <pt x="45" y="316" on="1"/>
        <pt x="45" y="409" on="0"/>
        <pt x="120" y="566" on="0"/>
        <pt x="262" y="660" on="0"/>
        <pt x="359" y="660" on="1"/>
        <pt x="431" y="660" on="0"/>
        <pt x="540" y="641" on="0"/>
        <pt x="558" y="630" on="1"/>
        <pt x="558" y="474" on="1"/>
        <pt x="510" y="474" on="1"/>
        <pt x="481" y="584" on="1"/>
        <pt x="477" y="585" on="0"/>
        <pt x="444" y="593" on="0"/>
        <pt x="384" y="601" on="0"/>
        <pt x="346" y="601" on="1"/>
        <pt x="237" y="601" on="0"/>
        <pt x="146" y="466" on="0"/>
        <pt x="146" y="326" on="1"/>
        <pt x="146" y="185" on="0"/>
        <pt x="243" y="45" on="0"/>
        <pt x="354" y="45" on="1"/>
        <pt x="399" y="45" on="0"/>
        <pt x="452" y="60" on="0"/>
        <pt x="485" y="77" on="1"/>
        <pt x="485" y="260" on="1"/>
      </contour>
      <contour>
        <pt x="334" y="-161" on="0"/>
        <pt x="342" y="-127" on="0"/>
        <pt x="342" y="-108" on="1"/>
        <pt x="342" y="-75" on="0"/>
        <pt x="316" y="-51" on="1"/>
        <pt x="326" y="-40" on="0"/>
        <pt x="350" y="-29" on="0"/>
        <pt x="361" y="-29" on="1"/>
        <pt x="385" y="-29" on="0"/>
        <pt x="409" y="-60" on="0"/>
        <pt x="409" y="-81" on="1"/>
        <pt x="409" y="-111" on="0"/>
        <pt x="385" y="-158" on="0"/>
        <pt x="356" y="-189" on="0"/>
        <pt x="356" y="-187" on="1"/>
        <pt x="325" y="-187" on="1"/>
      </contour>
    </TTGlyph>
    <TTGlyph name="Gdotaccent" xMin="45" yMin="-11" xMax="610" yMax="822">
      <component glyphName=".ttfautohint" x="45" y="0" flags="0x0"/>
      <component glyphName="G" x="0" y="0" flags="0x0"/>
      <component glyphName="uni0307.case" x="403" y="0" flags="0x0"/>
    </TTGlyph>
    <TTGlyph name="H" xMin="55" yMin="0" xMax="698" yMax="648">
      <contour>
        <pt x="138" y="59" on="1"/>
        <pt x="138" y="589" on="1"/>
        <pt x="55" y="604" on="1"/>
        <pt x="55" y="648" on="1"/>
        <pt x="307" y="648" on="1"/>
        <pt x="307" y="604" on="1"/>
        <pt x="224" y="589" on="1"/>
        <pt x="224" y="360" on="1"/>
        <pt x="529" y="360" on="1"/>
        <pt x="529" y="589" on="1"/>
        <pt x="447" y="604" on="1"/>
        <pt x="447" y="648" on="1"/>
        <pt x="698" y="648" on="1"/>
        <pt x="698" y="604" on="1"/>
        <pt x="616" y="589" on="1"/>
        <pt x="616" y="59" on="1"/>
        <pt x="698" y="44" on="1"/>
        <pt x="698" y="0" on="1"/>
        <pt x="447" y="0" on="1"/>
        <pt x="447" y="44" on="1"/>
        <pt x="529" y="59" on="1"/>
        <pt x="529" y="305" on="1"/>
        <pt x="224" y="305" on="1"/>
        <pt x="224" y="59" on="1"/>
        <pt x="307" y="44" on="1"/>
        <pt x="307" y="0" on="1"/>
        <pt x="55" y="0" on="1"/>
        <pt x="55" y="44" on="1"/>
      </contour>
    </TTGlyph>
    <TTGlyph name="Hbar" xMin="55" yMin="0" xMax="698" yMax="648">
      <contour>
        <pt x="55" y="44" on="1"/>
        <pt x="138" y="59" on="1"/>
        <pt x="138" y="439" on="1"/>
        <pt x="60" y="439" on="1"/>
        <pt x="60" y="494" on="1"/>
        <pt x="138" y="494" on="1"/>
        <pt x="138" y="589" on="1"/>
        <pt x="55" y="604" on="1"/>
        <pt x="55" y="648" on="1"/>
        <pt x="307" y="648" on="1"/>
        <pt x="307" y="604" on="1"/>
        <pt x="224" y="589" on="1"/>
        <pt x="224" y="494" on="1"/>
        <pt x="529" y="494" on="1"/>
        <pt x="529" y="589" on="1"/>
        <pt x="447" y="604" on="1"/>
        <pt x="447" y="648" on="1"/>
        <pt x="698" y="648" on="1"/>
        <pt x="698" y="604" on="1"/>
        <pt x="616" y="589" on="1"/>
        <pt x="616" y="494" on="1"/>
        <pt x="698" y="494" on="1"/>
        <pt x="698" y="439" on="1"/>
        <pt x="616" y="439" on="1"/>
        <pt x="616" y="59" on="1"/>
        <pt x="698" y="44" on="1"/>
        <pt x="698" y="0" on="1"/>
        <pt x="447" y="0" on="1"/>
        <pt x="447" y="44" on="1"/>
        <pt x="529" y="59" on="1"/>
        <pt x="529" y="285" on="1"/>
        <pt x="224" y="285" on="1"/>
        <pt x="224" y="59" on="1"/>
        <pt x="307" y="44" on="1"/>
        <pt x="307" y="0" on="1"/>
        <pt x="55" y="0" on="1"/>
      </contour>
      <contour>
        <pt x="529" y="340" on="1"/>
        <pt x="529" y="439" on="1"/>
        <pt x="224" y="439" on="1"/>
        <pt x="224" y="340" on="1"/>
      </contour>
    </TTGlyph>
    <TTGlyph name="Hcircumflex" xMin="55" yMin="0" xMax="698" yMax="834">
      <component glyphName=".ttfautohint" x="55" y="0" flags="0x0"/>
      <component glyphName="H" x="0" y="0" flags="0x0"/>
      <component glyphName="uni0302.case" x="530" y="0" flags="0x0"/>
    </TTGlyph>
    <TTGlyph name="I" xMin="59" yMin="0" xMax="310" yMax="648">
      <contour>
        <pt x="141" y="59" on="1"/>
        <pt x="141" y="589" on="1"/>
        <pt x="59" y="604" on="1"/>
        <pt x="59" y="648" on="1"/>
        <pt x="310" y="648" on="1"/>
        <pt x="310" y="604" on="1"/>
        <pt x="228" y="589" on="1"/>
        <pt x="228" y="59" on="1"/>
        <pt x="310" y="44" on="1"/>
        <pt x="310" y="0" on="1"/>
        <pt x="59" y="0" on="1"/>
        <pt x="59" y="44" on="1"/>
      </contour>
    </TTGlyph>
    <TTGlyph name="IJ" xMin="59" yMin="-14" xMax="724" yMax="648">
      <component glyphName=".ttfautohint" x="59" y="0" flags="0x0"/>
      <component glyphName="I" x="0" y="0" flags="0x0"/>
      <component glyphName="J" x="369" y="0" flags="0x0"/>
    </TTGlyph>
    <TTGlyph name="Iacute" xMin="59" yMin="0" xMax="310" yMax="836">
      <contour>
        <pt x="215" y="814" on="1"/>
        <pt x="227" y="823" on="0"/>
        <pt x="250" y="836" on="0"/>
        <pt x="257" y="836" on="1"/>
        <pt x="272" y="836" on="0"/>
        <pt x="296" y="800" on="0"/>
        <pt x="299" y="767" on="1"/>
        <pt x="106" y="681" on="1"/>
        <pt x="84" y="716" on="1"/>
      </contour>
      <contour>
        <pt x="141" y="59" on="1"/>
        <pt x="141" y="589" on="1"/>
        <pt x="59" y="604" on="1"/>
        <pt x="59" y="648" on="1"/>
        <pt x="310" y="648" on="1"/>
        <pt x="310" y="604" on="1"/>
        <pt x="228" y="589" on="1"/>
        <pt x="228" y="59" on="1"/>
        <pt x="310" y="44" on="1"/>
        <pt x="310" y="0" on="1"/>
        <pt x="59" y="0" on="1"/>
        <pt x="59" y="44" on="1"/>
      </contour>
    </TTGlyph>
    <TTGlyph name="Iacute_J.loclNLD" xMin="59" yMin="-14" xMax="765" yMax="836">
      <component glyphName=".ttfautohint" x="59" y="0" flags="0x0"/>
      <component glyphName="I" x="0" y="0" flags="0x0"/>
      <component glyphName="acutecomb.case" x="342" y="0" flags="0x0"/>
      <component glyphName="J" x="369" y="0" flags="0x0"/>
      <component glyphName="acutecomb.case" x="765" y="0" flags="0x0"/>
    </TTGlyph>
    <TTGlyph name="Ibreve" xMin="45" yMin="0" xMax="324" yMax="821">
      <component glyphName=".ttfautohint" x="45" y="0" flags="0x0"/>
      <component glyphName="I" x="0" y="0" flags="0x0"/>
      <component glyphName="uni0306.case" x="324" y="0" flags="0x0"/>
    </TTGlyph>
    <TTGlyph name="Icircumflex" xMin="27" yMin="0" xMax="333" yMax="834">
      <contour>
        <pt x="106" y="780" on="1"/>
        <pt x="135" y="803" on="1"/>
        <pt x="151" y="817" on="0"/>
        <pt x="175" y="834" on="0"/>
        <pt x="182" y="834" on="1"/>
        <pt x="191" y="834" on="0"/>
        <pt x="213" y="819" on="0"/>
        <pt x="237" y="798" on="1"/>
        <pt x="245" y="792" on="0"/>
        <pt x="259" y="780" on="1"/>
        <pt x="333" y="719" on="1"/>
        <pt x="300" y="678" on="1"/>
        <pt x="178" y="743" on="1"/>
        <pt x="52" y="680" on="1"/>
        <pt x="27" y="716" on="1"/>
      </contour>
      <contour>
        <pt x="141" y="59" on="1"/>
        <pt x="141" y="589" on="1"/>
        <pt x="59" y="604" on="1"/>
        <pt x="59" y="648" on="1"/>
        <pt x="310" y="648" on="1"/>
        <pt x="310" y="604" on="1"/>
        <pt x="228" y="589" on="1"/>
        <pt x="228" y="59" on="1"/>
        <pt x="310" y="44" on="1"/>
        <pt x="310" y="0" on="1"/>
        <pt x="59" y="0" on="1"/>
        <pt x="59" y="44" on="1"/>
      </contour>
    </TTGlyph>
    <TTGlyph name="Idieresis" xMin="26" yMin="0" xMax="343" yMax="809">
      <contour>
        <pt x="54" y="693" on="0"/>
        <pt x="26" y="724" on="0"/>
        <pt x="26" y="749" on="1"/>
        <pt x="26" y="774" on="0"/>
        <pt x="57" y="809" on="0"/>
        <pt x="81" y="809" on="1"/>
        <pt x="104" y="809" on="0"/>
        <pt x="132" y="780" on="0"/>
        <pt x="132" y="755" on="1"/>
        <pt x="132" y="729" on="0"/>
        <pt x="102" y="693" on="0"/>
        <pt x="77" y="693" on="1"/>
      </contour>
      <contour>
        <pt x="265" y="693" on="0"/>
        <pt x="237" y="724" on="0"/>
        <pt x="237" y="749" on="1"/>
        <pt x="237" y="774" on="0"/>
        <pt x="268" y="809" on="0"/>
        <pt x="292" y="809" on="1"/>
        <pt x="315" y="809" on="0"/>
        <pt x="343" y="780" on="0"/>
        <pt x="343" y="755" on="1"/>
        <pt x="343" y="729" on="0"/>
        <pt x="313" y="693" on="0"/>
        <pt x="288" y="693" on="1"/>
      </contour>
      <contour>
        <pt x="59" y="44" on="1"/>
        <pt x="141" y="59" on="1"/>
        <pt x="141" y="589" on="1"/>
        <pt x="59" y="604" on="1"/>
        <pt x="59" y="648" on="1"/>
        <pt x="310" y="648" on="1"/>
        <pt x="310" y="604" on="1"/>
        <pt x="228" y="589" on="1"/>
        <pt x="228" y="59" on="1"/>
        <pt x="310" y="44" on="1"/>
        <pt x="310" y="0" on="1"/>
        <pt x="59" y="0" on="1"/>
      </contour>
    </TTGlyph>
    <TTGlyph name="Idotaccent" xMin="59" yMin="0" xMax="310" yMax="822">
      <contour>
        <pt x="157" y="694" on="0"/>
        <pt x="126" y="728" on="0"/>
        <pt x="126" y="756" on="1"/>
        <pt x="126" y="783" on="0"/>
        <pt x="161" y="822" on="0"/>
        <pt x="187" y="822" on="1"/>
        <pt x="213" y="822" on="0"/>
        <pt x="243" y="790" on="0"/>
        <pt x="243" y="762" on="1"/>
        <pt x="243" y="734" on="0"/>
        <pt x="210" y="694" on="0"/>
        <pt x="182" y="694" on="1"/>
      </contour>
      <contour>
        <pt x="141" y="59" on="1"/>
        <pt x="141" y="589" on="1"/>
        <pt x="59" y="604" on="1"/>
        <pt x="59" y="648" on="1"/>
        <pt x="310" y="648" on="1"/>
        <pt x="310" y="604" on="1"/>
        <pt x="228" y="589" on="1"/>
        <pt x="228" y="59" on="1"/>
        <pt x="310" y="44" on="1"/>
        <pt x="310" y="0" on="1"/>
        <pt x="59" y="0" on="1"/>
        <pt x="59" y="44" on="1"/>
      </contour>
    </TTGlyph>
    <TTGlyph name="Igrave" xMin="59" yMin="0" xMax="310" yMax="836">
      <contour>
        <pt x="78" y="800" on="0"/>
        <pt x="102" y="836" on="0"/>
        <pt x="117" y="836" on="1"/>
        <pt x="124" y="836" on="0"/>
        <pt x="147" y="823" on="0"/>
        <pt x="159" y="814" on="1"/>
        <pt x="290" y="716" on="1"/>
        <pt x="268" y="681" on="1"/>
        <pt x="75" y="767" on="1"/>
      </contour>
      <contour>
        <pt x="141" y="59" on="1"/>
        <pt x="141" y="589" on="1"/>
        <pt x="59" y="604" on="1"/>
        <pt x="59" y="648" on="1"/>
        <pt x="310" y="648" on="1"/>
        <pt x="310" y="604" on="1"/>
        <pt x="228" y="589" on="1"/>
        <pt x="228" y="59" on="1"/>
        <pt x="310" y="44" on="1"/>
        <pt x="310" y="0" on="1"/>
        <pt x="59" y="0" on="1"/>
        <pt x="59" y="44" on="1"/>
      </contour>
    </TTGlyph>
    <TTGlyph name="Imacron" xMin="33" yMin="0" xMax="335" yMax="781">
      <contour>
        <pt x="43" y="781" on="1"/>
        <pt x="335" y="781" on="1"/>
        <pt x="325" y="723" on="1"/>
        <pt x="33" y="723" on="1"/>
      </contour>
      <contour>
        <pt x="59" y="44" on="1"/>
        <pt x="141" y="59" on="1"/>
        <pt x="141" y="589" on="1"/>
        <pt x="59" y="604" on="1"/>
        <pt x="59" y="648" on="1"/>
        <pt x="310" y="648" on="1"/>
        <pt x="310" y="604" on="1"/>
        <pt x="228" y="589" on="1"/>
        <pt x="228" y="59" on="1"/>
        <pt x="310" y="44" on="1"/>
        <pt x="310" y="0" on="1"/>
        <pt x="59" y="0" on="1"/>
      </contour>
    </TTGlyph>
    <TTGlyph name="Iogonek" xMin="59" yMin="-187" xMax="341" yMax="648">
      <contour>
        <pt x="141" y="59" on="1"/>
        <pt x="141" y="589" on="1"/>
        <pt x="59" y="604" on="1"/>
        <pt x="59" y="648" on="1"/>
        <pt x="310" y="648" on="1"/>
        <pt x="310" y="604" on="1"/>
        <pt x="228" y="589" on="1"/>
        <pt x="228" y="59" on="1"/>
        <pt x="310" y="44" on="1"/>
        <pt x="310" y="0" on="1"/>
        <pt x="279" y="0" on="1"/>
        <pt x="223" y="-44" on="0"/>
        <pt x="223" y="-83" on="1"/>
        <pt x="223" y="-127" on="0"/>
        <pt x="266" y="-127" on="1"/>
        <pt x="287" y="-127" on="0"/>
        <pt x="323" y="-106" on="1"/>
        <pt x="341" y="-136" on="1"/>
        <pt x="341" y="-137" on="0"/>
        <pt x="310" y="-164" on="0"/>
        <pt x="265" y="-187" on="0"/>
        <pt x="240" y="-187" on="1"/>
        <pt x="203" y="-187" on="0"/>
        <pt x="157" y="-149" on="0"/>
        <pt x="157" y="-113" on="1"/>
        <pt x="157" y="-77" on="0"/>
        <pt x="199" y="-20" on="0"/>
        <pt x="232" y="0" on="1"/>
        <pt x="59" y="0" on="1"/>
        <pt x="59" y="44" on="1"/>
      </contour>
    </TTGlyph>
    <TTGlyph name="Itilde" xMin="10" yMin="0" xMax="360" yMax="806">
      <component glyphName=".ttfautohint" x="10" y="0" flags="0x0"/>
      <component glyphName="I" x="0" y="0" flags="0x0"/>
      <component glyphName="tildecomb.case" x="360" y="0" flags="0x0"/>
    </TTGlyph>
    <TTGlyph name="J" xMin="10" yMin="-14" xMax="355" yMax="648">
      <contour>
        <pt x="58" y="157" on="1"/>
        <pt x="87" y="47" on="1"/>
        <pt x="91" y="45" on="0"/>
        <pt x="119" y="37" on="0"/>
        <pt x="137" y="37" on="1"/>
        <pt x="195" y="37" on="0"/>
        <pt x="195" y="99" on="1"/>
        <pt x="195" y="587" on="1"/>
        <pt x="100" y="604" on="1"/>
        <pt x="100" y="648" on="1"/>
        <pt x="355" y="648" on="1"/>
        <pt x="355" y="604" on="1"/>
        <pt x="282" y="589" on="1"/>
        <pt x="282" y="111" on="1"/>
        <pt x="282" y="45" on="0"/>
        <pt x="207" y="-14" on="0"/>
        <pt x="135" y="-14" on="1"/>
        <pt x="102" y="-14" on="0"/>
        <pt x="47" y="-2" on="0"/>
        <pt x="14" y="11" on="0"/>
        <pt x="10" y="13" on="1"/>
        <pt x="10" y="157" on="1"/>
      </contour>
    </TTGlyph>
    <TTGlyph name="Jcircumflex" xMin="10" yMin="-14" xMax="392" yMax="834">
      <component glyphName=".ttfautohint" x="10" y="0" flags="0x0"/>
      <component glyphName="J" x="0" y="0" flags="0x0"/>
      <component glyphName="uni0302.case" x="392" y="0" flags="0x0"/>
    </TTGlyph>
    <TTGlyph name="K" xMin="55" yMin="0" xMax="605" yMax="648">
      <contour>
        <pt x="138" y="59" on="1"/>
        <pt x="138" y="589" on="1"/>
        <pt x="55" y="604" on="1"/>
        <pt x="55" y="648" on="1"/>
        <pt x="307" y="648" on="1"/>
        <pt x="307" y="604" on="1"/>
        <pt x="224" y="589" on="1"/>
        <pt x="224" y="359" on="1"/>
        <pt x="255" y="359" on="1"/>
        <pt x="439" y="582" on="1"/>
        <pt x="439" y="593" on="1"/>
        <pt x="381" y="605" on="1"/>
        <pt x="381" y="648" on="1"/>
        <pt x="585" y="648" on="1"/>
        <pt x="585" y="604" on="1"/>
        <pt x="528" y="592" on="1"/>
        <pt x="332" y="358" on="1"/>
        <pt x="541" y="60" on="1"/>
        <pt x="605" y="45" on="1"/>
        <pt x="605" y="0" on="1"/>
        <pt x="511" y="0" on="1"/>
        <pt x="486" y="0" on="0"/>
        <pt x="462" y="11" on="0"/>
        <pt x="450" y="29" on="1"/>
        <pt x="257" y="312" on="1"/>
        <pt x="224" y="312" on="1"/>
        <pt x="224" y="59" on="1"/>
        <pt x="307" y="44" on="1"/>
        <pt x="307" y="0" on="1"/>
        <pt x="55" y="0" on="1"/>
        <pt x="55" y="44" on="1"/>
      </contour>
    </TTGlyph>
    <TTGlyph name="Kcommaaccent" xMin="55" yMin="-189" xMax="605" yMax="648">
      <contour>
        <pt x="55" y="44" on="1"/>
        <pt x="138" y="59" on="1"/>
        <pt x="138" y="589" on="1"/>
        <pt x="55" y="604" on="1"/>
        <pt x="55" y="648" on="1"/>
        <pt x="307" y="648" on="1"/>
        <pt x="307" y="604" on="1"/>
        <pt x="224" y="589" on="1"/>
        <pt x="224" y="359" on="1"/>
        <pt x="255" y="359" on="1"/>
        <pt x="439" y="582" on="1"/>
        <pt x="439" y="593" on="1"/>
        <pt x="381" y="605" on="1"/>
        <pt x="381" y="648" on="1"/>
        <pt x="585" y="648" on="1"/>
        <pt x="585" y="604" on="1"/>
        <pt x="528" y="592" on="1"/>
        <pt x="332" y="358" on="1"/>
        <pt x="541" y="60" on="1"/>
        <pt x="605" y="45" on="1"/>
        <pt x="605" y="0" on="1"/>
        <pt x="511" y="0" on="1"/>
        <pt x="486" y="0" on="0"/>
        <pt x="462" y="11" on="0"/>
        <pt x="450" y="29" on="1"/>
        <pt x="257" y="312" on="1"/>
        <pt x="224" y="312" on="1"/>
        <pt x="224" y="59" on="1"/>
        <pt x="307" y="44" on="1"/>
        <pt x="307" y="0" on="1"/>
        <pt x="55" y="0" on="1"/>
      </contour>
      <contour>
        <pt x="317" y="-161" on="0"/>
        <pt x="325" y="-127" on="0"/>
        <pt x="325" y="-108" on="1"/>
        <pt x="325" y="-75" on="0"/>
        <pt x="299" y="-51" on="1"/>
        <pt x="309" y="-40" on="0"/>
        <pt x="333" y="-29" on="0"/>
        <pt x="344" y="-29" on="1"/>
        <pt x="368" y="-29" on="0"/>
        <pt x="392" y="-60" on="0"/>
        <pt x="392" y="-81" on="1"/>
        <pt x="392" y="-111" on="0"/>
        <pt x="368" y="-158" on="0"/>
        <pt x="339" y="-189" on="0"/>
        <pt x="339" y="-187" on="1"/>
        <pt x="308" y="-187" on="1"/>
      </contour>
    </TTGlyph>
    <TTGlyph name="L" xMin="55" yMin="0" xMax="506" yMax="648">
      <contour>
        <pt x="138" y="60" on="1"/>
        <pt x="138" y="588" on="1"/>
        <pt x="55" y="605" on="1"/>
        <pt x="55" y="648" on="1"/>
        <pt x="315" y="648" on="1"/>
        <pt x="315" y="601" on="1"/>
        <pt x="224" y="586" on="1"/>
        <pt x="224" y="63" on="1"/>
        <pt x="322" y="55" on="1"/>
        <pt x="435" y="55" on="1"/>
        <pt x="457" y="162" on="1"/>
        <pt x="506" y="162" on="1"/>
        <pt x="506" y="0" on="1"/>
        <pt x="55" y="0" on="1"/>
        <pt x="55" y="43" on="1"/>
      </contour>
    </TTGlyph>
    <TTGlyph name="Lacute" xMin="55" yMin="0" xMax="506" yMax="836">
      <contour>
        <pt x="130" y="716" on="1"/>
        <pt x="261" y="814" on="1"/>
        <pt x="273" y="823" on="0"/>
        <pt x="296" y="836" on="0"/>
        <pt x="303" y="836" on="1"/>
        <pt x="318" y="836" on="0"/>
        <pt x="342" y="800" on="0"/>
        <pt x="345" y="767" on="1"/>
        <pt x="152" y="681" on="1"/>
      </contour>
      <contour>
        <pt x="55" y="43" on="1"/>
        <pt x="138" y="60" on="1"/>
        <pt x="138" y="588" on="1"/>
        <pt x="55" y="605" on="1"/>
        <pt x="55" y="648" on="1"/>
        <pt x="315" y="648" on="1"/>
        <pt x="315" y="601" on="1"/>
        <pt x="224" y="586" on="1"/>
        <pt x="224" y="63" on="1"/>
        <pt x="322" y="55" on="1"/>
        <pt x="435" y="55" on="1"/>
        <pt x="457" y="162" on="1"/>
        <pt x="506" y="162" on="1"/>
        <pt x="506" y="0" on="1"/>
        <pt x="55" y="0" on="1"/>
      </contour>
    </TTGlyph>
    <TTGlyph name="Lcaron" xMin="59" yMin="0" xMax="510" yMax="658">
      <contour>
        <pt x="390" y="502" on="0"/>
        <pt x="399" y="555" on="0"/>
        <pt x="399" y="576" on="1"/>
        <pt x="399" y="605" on="0"/>
        <pt x="374" y="635" on="1"/>
        <pt x="390" y="658" on="0"/>
        <pt x="419" y="658" on="1"/>
        <pt x="444" y="658" on="0"/>
        <pt x="469" y="627" on="0"/>
        <pt x="469" y="604" on="1"/>
        <pt x="469" y="584" on="0"/>
        <pt x="445" y="529" on="0"/>
        <pt x="419" y="487" on="0"/>
        <pt x="415" y="481" on="1"/>
        <pt x="383" y="481" on="1"/>
      </contour>
      <contour>
        <pt x="59" y="43" on="1"/>
        <pt x="142" y="60" on="1"/>
        <pt x="142" y="588" on="1"/>
        <pt x="59" y="605" on="1"/>
        <pt x="59" y="648" on="1"/>
        <pt x="319" y="648" on="1"/>
        <pt x="319" y="601" on="1"/>
        <pt x="228" y="586" on="1"/>
        <pt x="228" y="63" on="1"/>
        <pt x="326" y="55" on="1"/>
        <pt x="439" y="55" on="1"/>
        <pt x="461" y="162" on="1"/>
        <pt x="510" y="162" on="1"/>
        <pt x="510" y="0" on="1"/>
        <pt x="59" y="0" on="1"/>
      </contour>
    </TTGlyph>
    <TTGlyph name="Lcommaaccent" xMin="59" yMin="-189" xMax="510" yMax="648">
      <contour>
        <pt x="59" y="43" on="1"/>
        <pt x="142" y="60" on="1"/>
        <pt x="142" y="588" on="1"/>
        <pt x="59" y="605" on="1"/>
        <pt x="59" y="648" on="1"/>
        <pt x="319" y="648" on="1"/>
        <pt x="319" y="601" on="1"/>
        <pt x="228" y="586" on="1"/>
        <pt x="228" y="63" on="1"/>
        <pt x="326" y="55" on="1"/>
        <pt x="439" y="55" on="1"/>
        <pt x="461" y="162" on="1"/>
        <pt x="510" y="162" on="1"/>
        <pt x="510" y="0" on="1"/>
        <pt x="59" y="0" on="1"/>
      </contour>
      <contour>
        <pt x="271" y="-161" on="0"/>
        <pt x="279" y="-127" on="0"/>
        <pt x="279" y="-108" on="1"/>
        <pt x="279" y="-75" on="0"/>
        <pt x="253" y="-51" on="1"/>
        <pt x="263" y="-40" on="0"/>
        <pt x="287" y="-29" on="0"/>
        <pt x="298" y="-29" on="1"/>
        <pt x="322" y="-29" on="0"/>
        <pt x="346" y="-60" on="0"/>
        <pt x="346" y="-81" on="1"/>
        <pt x="346" y="-111" on="0"/>
        <pt x="322" y="-158" on="0"/>
        <pt x="293" y="-189" on="0"/>
        <pt x="293" y="-187" on="1"/>
        <pt x="262" y="-187" on="1"/>
      </contour>
    </TTGlyph>
    <TTGlyph name="Ldot" xMin="55" yMin="0" xMax="506" yMax="648">
      <component glyphName=".ttfautohint" x="55" y="0" flags="0x0"/>
      <component glyphName="L" x="0" y="0" flags="0x0"/>
      <component glyphName="periodcentered" x="280" y="97" flags="0x4"/>
    </TTGlyph>
    <TTGlyph name="Lslash" xMin="55" yMin="0" xMax="506" yMax="648">
      <contour>
        <pt x="138" y="60" on="1"/>
        <pt x="138" y="271" on="1"/>
        <pt x="69" y="247" on="1"/>
        <pt x="69" y="306" on="1"/>
        <pt x="138" y="331" on="1"/>
        <pt x="138" y="588" on="1"/>
        <pt x="55" y="605" on="1"/>
        <pt x="55" y="648" on="1"/>
        <pt x="315" y="648" on="1"/>
        <pt x="315" y="601" on="1"/>
        <pt x="224" y="586" on="1"/>
        <pt x="224" y="362" on="1"/>
        <pt x="359" y="412" on="1"/>
        <pt x="359" y="349" on="1"/>
        <pt x="224" y="301" on="1"/>
        <pt x="224" y="63" on="1"/>
        <pt x="322" y="55" on="1"/>
        <pt x="435" y="55" on="1"/>
        <pt x="457" y="162" on="1"/>
        <pt x="506" y="162" on="1"/>
        <pt x="506" y="0" on="1"/>
        <pt x="55" y="0" on="1"/>
        <pt x="55" y="43" on="1"/>
      </contour>
    </TTGlyph>
    <TTGlyph name="M" xMin="55" yMin="0" xMax="826" yMax="648">
      <contour>
        <pt x="55" y="42" on="1"/>
        <pt x="128" y="58" on="1"/>
        <pt x="128" y="592" on="1"/>
        <pt x="64" y="604" on="1"/>
        <pt x="64" y="648" on="1"/>
        <pt x="269" y="648" on="1"/>
        <pt x="423" y="190" on="1"/>
        <pt x="438" y="134" on="1"/>
        <pt x="453" y="190" on="1"/>
        <pt x="604" y="648" on="1"/>
        <pt x="826" y="648" on="1"/>
        <pt x="826" y="604" on="1"/>
        <pt x="743" y="589" on="1"/>
        <pt x="743" y="59" on="1"/>
        <pt x="826" y="44" on="1"/>
        <pt x="826" y="0" on="1"/>
        <pt x="574" y="0" on="1"/>
        <pt x="574" y="44" on="1"/>
        <pt x="656" y="59" on="1"/>
        <pt x="656" y="581" on="1"/>
        <pt x="641" y="581" on="1"/>
        <pt x="633" y="557" on="1"/>
        <pt x="445" y="0" on="1"/>
        <pt x="397" y="0" on="1"/>
        <pt x="201" y="581" on="1"/>
        <pt x="189" y="581" on="1"/>
        <pt x="189" y="58" on="1"/>
        <pt x="262" y="42" on="1"/>
        <pt x="262" y="0" on="1"/>
        <pt x="55" y="0" on="1"/>
      </contour>
    </TTGlyph>
    <TTGlyph name="N" xMin="55" yMin="0" xMax="680" yMax="648">
      <contour>
        <pt x="55" y="42" on="1"/>
        <pt x="125" y="58" on="1"/>
        <pt x="125" y="590" on="1"/>
        <pt x="60" y="604" on="1"/>
        <pt x="60" y="648" on="1"/>
        <pt x="213" y="648" on="1"/>
        <pt x="528" y="149" on="1"/>
        <pt x="541" y="129" on="1"/>
        <pt x="550" y="129" on="1"/>
        <pt x="550" y="590" on="1"/>
        <pt x="481" y="606" on="1"/>
        <pt x="481" y="648" on="1"/>
        <pt x="680" y="648" on="1"/>
        <pt x="680" y="606" on="1"/>
        <pt x="611" y="590" on="1"/>
        <pt x="611" y="0" on="1"/>
        <pt x="519" y="0" on="1"/>
        <pt x="194" y="516" on="1"/>
        <pt x="185" y="516" on="1"/>
        <pt x="185" y="58" on="1"/>
        <pt x="255" y="42" on="1"/>
        <pt x="255" y="0" on="1"/>
        <pt x="55" y="0" on="1"/>
      </contour>
    </TTGlyph>
    <TTGlyph name="Nacute" xMin="55" yMin="0" xMax="680" yMax="836">
      <contour>
        <pt x="274" y="716" on="1"/>
        <pt x="405" y="814" on="1"/>
        <pt x="417" y="823" on="0"/>
        <pt x="440" y="836" on="0"/>
        <pt x="447" y="836" on="1"/>
        <pt x="462" y="836" on="0"/>
        <pt x="486" y="800" on="0"/>
        <pt x="489" y="767" on="1"/>
        <pt x="296" y="681" on="1"/>
      </contour>
      <contour>
        <pt x="55" y="42" on="1"/>
        <pt x="125" y="58" on="1"/>
        <pt x="125" y="590" on="1"/>
        <pt x="60" y="604" on="1"/>
        <pt x="60" y="648" on="1"/>
        <pt x="213" y="648" on="1"/>
        <pt x="527" y="151" on="1"/>
        <pt x="541" y="129" on="1"/>
        <pt x="550" y="129" on="1"/>
        <pt x="550" y="590" on="1"/>
        <pt x="481" y="606" on="1"/>
        <pt x="481" y="648" on="1"/>
        <pt x="680" y="648" on="1"/>
        <pt x="680" y="606" on="1"/>
        <pt x="611" y="590" on="1"/>
        <pt x="611" y="0" on="1"/>
        <pt x="519" y="0" on="1"/>
        <pt x="205" y="499" on="1"/>
        <pt x="194" y="516" on="1"/>
        <pt x="185" y="516" on="1"/>
        <pt x="185" y="58" on="1"/>
        <pt x="255" y="42" on="1"/>
        <pt x="255" y="0" on="1"/>
        <pt x="55" y="0" on="1"/>
      </contour>
    </TTGlyph>
    <TTGlyph name="Nacute.loclPLK" xMin="55" yMin="0" xMax="680" yMax="862">
      <contour>
        <pt x="338" y="692" on="1"/>
        <pt x="409" y="822" on="1"/>
        <pt x="421" y="843" on="0"/>
        <pt x="437" y="862" on="0"/>
        <pt x="448" y="862" on="1"/>
        <pt x="461" y="862" on="0"/>
        <pt x="491" y="838" on="0"/>
        <pt x="505" y="814" on="1"/>
        <pt x="374" y="666" on="1"/>
      </contour>
      <contour>
        <pt x="55" y="42" on="1"/>
        <pt x="125" y="58" on="1"/>
        <pt x="125" y="590" on="1"/>
        <pt x="60" y="604" on="1"/>
        <pt x="60" y="648" on="1"/>
        <pt x="213" y="648" on="1"/>
        <pt x="528" y="149" on="1"/>
        <pt x="541" y="129" on="1"/>
        <pt x="550" y="129" on="1"/>
        <pt x="550" y="590" on="1"/>
        <pt x="481" y="606" on="1"/>
        <pt x="481" y="648" on="1"/>
        <pt x="680" y="648" on="1"/>
        <pt x="680" y="606" on="1"/>
        <pt x="611" y="590" on="1"/>
        <pt x="611" y="0" on="1"/>
        <pt x="519" y="0" on="1"/>
        <pt x="194" y="516" on="1"/>
        <pt x="185" y="516" on="1"/>
        <pt x="185" y="58" on="1"/>
        <pt x="255" y="42" on="1"/>
        <pt x="255" y="0" on="1"/>
        <pt x="55" y="0" on="1"/>
      </contour>
    </TTGlyph>
    <TTGlyph name="Ncaron" xMin="55" yMin="0" xMax="680" yMax="834">
      <contour>
        <pt x="356" y="678" on="0"/>
        <pt x="334" y="693" on="0"/>
        <pt x="310" y="714" on="1"/>
        <pt x="302" y="720" on="0"/>
        <pt x="288" y="732" on="1"/>
        <pt x="214" y="793" on="1"/>
        <pt x="247" y="834" on="1"/>
        <pt x="369" y="769" on="1"/>
        <pt x="495" y="832" on="1"/>
        <pt x="520" y="796" on="1"/>
        <pt x="441" y="732" on="1"/>
        <pt x="412" y="709" on="1"/>
        <pt x="396" y="695" on="0"/>
        <pt x="372" y="678" on="0"/>
        <pt x="365" y="678" on="1"/>
      </contour>
      <contour>
        <pt x="55" y="42" on="1"/>
        <pt x="125" y="58" on="1"/>
        <pt x="125" y="590" on="1"/>
        <pt x="60" y="604" on="1"/>
        <pt x="60" y="648" on="1"/>
        <pt x="213" y="648" on="1"/>
        <pt x="527" y="152" on="1"/>
        <pt x="541" y="129" on="1"/>
        <pt x="550" y="129" on="1"/>
        <pt x="550" y="590" on="1"/>
        <pt x="481" y="606" on="1"/>
        <pt x="481" y="648" on="1"/>
        <pt x="680" y="648" on="1"/>
        <pt x="680" y="606" on="1"/>
        <pt x="611" y="590" on="1"/>
        <pt x="611" y="0" on="1"/>
        <pt x="519" y="0" on="1"/>
        <pt x="204" y="500" on="1"/>
        <pt x="194" y="516" on="1"/>
        <pt x="185" y="516" on="1"/>
        <pt x="185" y="58" on="1"/>
        <pt x="255" y="42" on="1"/>
        <pt x="255" y="0" on="1"/>
        <pt x="55" y="0" on="1"/>
      </contour>
    </TTGlyph>
    <TTGlyph name="Ncommaaccent" xMin="55" yMin="-189" xMax="680" yMax="648">
      <contour>
        <pt x="55" y="42" on="1"/>
        <pt x="125" y="58" on="1"/>
        <pt x="125" y="590" on="1"/>
        <pt x="60" y="604" on="1"/>
        <pt x="60" y="648" on="1"/>
        <pt x="213" y="648" on="1"/>
        <pt x="528" y="150" on="1"/>
        <pt x="541" y="129" on="1"/>
        <pt x="550" y="129" on="1"/>
        <pt x="550" y="590" on="1"/>
        <pt x="481" y="606" on="1"/>
        <pt x="481" y="648" on="1"/>
        <pt x="680" y="648" on="1"/>
        <pt x="680" y="606" on="1"/>
        <pt x="611" y="590" on="1"/>
        <pt x="611" y="0" on="1"/>
        <pt x="519" y="0" on="1"/>
        <pt x="204" y="500" on="1"/>
        <pt x="194" y="516" on="1"/>
        <pt x="185" y="516" on="1"/>
        <pt x="185" y="58" on="1"/>
        <pt x="255" y="42" on="1"/>
        <pt x="255" y="0" on="1"/>
        <pt x="55" y="0" on="1"/>
      </contour>
      <contour>
        <pt x="346" y="-161" on="0"/>
        <pt x="354" y="-127" on="0"/>
        <pt x="354" y="-108" on="1"/>
        <pt x="354" y="-75" on="0"/>
        <pt x="328" y="-51" on="1"/>
        <pt x="338" y="-40" on="0"/>
        <pt x="362" y="-29" on="0"/>
        <pt x="373" y="-29" on="1"/>
        <pt x="397" y="-29" on="0"/>
        <pt x="421" y="-60" on="0"/>
        <pt x="421" y="-81" on="1"/>
        <pt x="421" y="-111" on="0"/>
        <pt x="397" y="-158" on="0"/>
        <pt x="368" y="-189" on="0"/>
        <pt x="368" y="-187" on="1"/>
        <pt x="337" y="-187" on="1"/>
      </contour>
    </TTGlyph>
    <TTGlyph name="Ntilde" xMin="55" yMin="0" xMax="680" yMax="806">
      <contour>
        <pt x="425" y="698" on="0"/>
        <pt x="378" y="713" on="1"/>
        <pt x="299" y="738" on="1"/>
        <pt x="219" y="702" on="1"/>
        <pt x="196" y="728" on="1"/>
        <pt x="233" y="777" on="1"/>
        <pt x="254" y="806" on="0"/>
        <pt x="294" y="806" on="1"/>
        <pt x="317" y="806" on="0"/>
        <pt x="364" y="791" on="1"/>
        <pt x="443" y="766" on="1"/>
        <pt x="523" y="802" on="1"/>
        <pt x="546" y="776" on="1"/>
        <pt x="509" y="727" on="1"/>
        <pt x="488" y="698" on="0"/>
        <pt x="448" y="698" on="1"/>
      </contour>
      <contour>
        <pt x="55" y="42" on="1"/>
        <pt x="125" y="58" on="1"/>
        <pt x="125" y="590" on="1"/>
        <pt x="60" y="604" on="1"/>
        <pt x="60" y="648" on="1"/>
        <pt x="213" y="648" on="1"/>
        <pt x="527" y="151" on="1"/>
        <pt x="541" y="129" on="1"/>
        <pt x="550" y="129" on="1"/>
        <pt x="550" y="590" on="1"/>
        <pt x="481" y="606" on="1"/>
        <pt x="481" y="648" on="1"/>
        <pt x="680" y="648" on="1"/>
        <pt x="680" y="606" on="1"/>
        <pt x="611" y="590" on="1"/>
        <pt x="611" y="0" on="1"/>
        <pt x="519" y="0" on="1"/>
        <pt x="202" y="503" on="1"/>
        <pt x="194" y="516" on="1"/>
        <pt x="185" y="516" on="1"/>
        <pt x="185" y="58" on="1"/>
        <pt x="255" y="42" on="1"/>
        <pt x="255" y="0" on="1"/>
        <pt x="55" y="0" on="1"/>
      </contour>
    </TTGlyph>
    <TTGlyph name="O" xMin="45" yMin="-13" xMax="651" yMax="660">
      <contour>
        <pt x="199" y="-13" on="0"/>
        <pt x="45" y="160" on="0"/>
        <pt x="45" y="313" on="1"/>
        <pt x="45" y="410" on="0"/>
        <pt x="121" y="568" on="0"/>
        <pt x="266" y="660" on="0"/>
        <pt x="366" y="660" on="1"/>
        <pt x="455" y="660" on="0"/>
        <pt x="583" y="580" on="0"/>
        <pt x="651" y="435" on="0"/>
        <pt x="651" y="338" on="1"/>
        <pt x="651" y="237" on="0"/>
        <pt x="586" y="79" on="0"/>
        <pt x="448" y="-13" on="0"/>
        <pt x="344" y="-13" on="1"/>
      </contour>
      <contour>
        <pt x="461" y="44" on="0"/>
        <pt x="550" y="185" on="0"/>
        <pt x="550" y="319" on="1"/>
        <pt x="550" y="431" on="0"/>
        <pt x="501" y="554" on="0"/>
        <pt x="415" y="600" on="0"/>
        <pt x="352" y="600" on="1"/>
        <pt x="285" y="600" on="0"/>
        <pt x="199" y="563" on="0"/>
        <pt x="146" y="441" on="0"/>
        <pt x="146" y="319" on="1"/>
        <pt x="146" y="172" on="0"/>
        <pt x="254" y="44" on="0"/>
        <pt x="364" y="44" on="1"/>
      </contour>
    </TTGlyph>
    <TTGlyph name="OE" xMin="45" yMin="0" xMax="841" yMax="648">
      <contour>
        <pt x="211" y="0" on="0"/>
        <pt x="45" y="146" on="0"/>
        <pt x="45" y="313" on="1"/>
        <pt x="45" y="409" on="0"/>
        <pt x="124" y="561" on="0"/>
        <pt x="272" y="648" on="0"/>
        <pt x="373" y="648" on="1"/>
        <pt x="832" y="648" on="1"/>
        <pt x="832" y="484" on="1"/>
        <pt x="783" y="484" on="1"/>
        <pt x="762" y="593" on="1"/>
        <pt x="641" y="593" on="1"/>
        <pt x="543" y="587" on="1"/>
        <pt x="543" y="358" on="1"/>
        <pt x="701" y="358" on="1"/>
        <pt x="716" y="417" on="1"/>
        <pt x="758" y="417" on="1"/>
        <pt x="758" y="246" on="1"/>
        <pt x="716" y="246" on="1"/>
        <pt x="701" y="305" on="1"/>
        <pt x="543" y="305" on="1"/>
        <pt x="543" y="67" on="1"/>
        <pt x="562" y="63" on="0"/>
        <pt x="622" y="57" on="0"/>
        <pt x="650" y="57" on="1"/>
        <pt x="770" y="57" on="1"/>
        <pt x="792" y="164" on="1"/>
        <pt x="841" y="164" on="1"/>
        <pt x="841" y="0" on="1"/>
        <pt x="360" y="0" on="1"/>
      </contour>
      <contour>
        <pt x="427" y="50" on="0"/>
        <pt x="457" y="70" on="1"/>
        <pt x="457" y="578" on="1"/>
        <pt x="441" y="585" on="0"/>
        <pt x="396" y="594" on="0"/>
        <pt x="374" y="594" on="1"/>
        <pt x="306" y="594" on="0"/>
        <pt x="209" y="556" on="0"/>
        <pt x="146" y="436" on="0"/>
        <pt x="146" y="319" on="1"/>
        <pt x="146" y="178" on="0"/>
        <pt x="263" y="50" on="0"/>
        <pt x="374" y="50" on="1"/>
      </contour>
    </TTGlyph>
    <TTGlyph name="Oacute" xMin="45" yMin="-13" xMax="651" yMax="836">
      <contour>
        <pt x="250" y="716" on="1"/>
        <pt x="381" y="814" on="1"/>
        <pt x="393" y="823" on="0"/>
        <pt x="416" y="836" on="0"/>
        <pt x="423" y="836" on="1"/>
        <pt x="438" y="836" on="0"/>
        <pt x="462" y="800" on="0"/>
        <pt x="465" y="767" on="1"/>
        <pt x="272" y="681" on="1"/>
      </contour>
      <contour>
        <pt x="199" y="-13" on="0"/>
        <pt x="45" y="160" on="0"/>
        <pt x="45" y="313" on="1"/>
        <pt x="45" y="410" on="0"/>
        <pt x="121" y="568" on="0"/>
        <pt x="266" y="660" on="0"/>
        <pt x="366" y="660" on="1"/>
        <pt x="455" y="660" on="0"/>
        <pt x="583" y="580" on="0"/>
        <pt x="651" y="435" on="0"/>
        <pt x="651" y="338" on="1"/>
        <pt x="651" y="237" on="0"/>
        <pt x="586" y="79" on="0"/>
        <pt x="448" y="-13" on="0"/>
        <pt x="344" y="-13" on="1"/>
      </contour>
      <contour>
        <pt x="461" y="44" on="0"/>
        <pt x="550" y="185" on="0"/>
        <pt x="550" y="319" on="1"/>
        <pt x="550" y="431" on="0"/>
        <pt x="501" y="554" on="0"/>
        <pt x="415" y="600" on="0"/>
        <pt x="352" y="600" on="1"/>
        <pt x="285" y="600" on="0"/>
        <pt x="199" y="563" on="0"/>
        <pt x="146" y="441" on="0"/>
        <pt x="146" y="319" on="1"/>
        <pt x="146" y="172" on="0"/>
        <pt x="254" y="44" on="0"/>
        <pt x="364" y="44" on="1"/>
      </contour>
    </TTGlyph>
    <TTGlyph name="Oacute.loclPLK" xMin="45" yMin="-13" xMax="651" yMax="862">
      <contour>
        <pt x="322" y="692" on="1"/>
        <pt x="393" y="822" on="1"/>
        <pt x="405" y="843" on="0"/>
        <pt x="421" y="862" on="0"/>
        <pt x="432" y="862" on="1"/>
        <pt x="445" y="862" on="0"/>
        <pt x="475" y="838" on="0"/>
        <pt x="489" y="814" on="1"/>
        <pt x="358" y="666" on="1"/>
      </contour>
      <contour>
        <pt x="199" y="-13" on="0"/>
        <pt x="45" y="160" on="0"/>
        <pt x="45" y="313" on="1"/>
        <pt x="45" y="410" on="0"/>
        <pt x="121" y="568" on="0"/>
        <pt x="266" y="660" on="0"/>
        <pt x="366" y="660" on="1"/>
        <pt x="455" y="660" on="0"/>
        <pt x="583" y="580" on="0"/>
        <pt x="651" y="435" on="0"/>
        <pt x="651" y="338" on="1"/>
        <pt x="651" y="237" on="0"/>
        <pt x="586" y="79" on="0"/>
        <pt x="448" y="-13" on="0"/>
        <pt x="344" y="-13" on="1"/>
      </contour>
      <contour>
        <pt x="461" y="44" on="0"/>
        <pt x="550" y="185" on="0"/>
        <pt x="550" y="319" on="1"/>
        <pt x="550" y="431" on="0"/>
        <pt x="501" y="554" on="0"/>
        <pt x="415" y="600" on="0"/>
        <pt x="352" y="600" on="1"/>
        <pt x="285" y="600" on="0"/>
        <pt x="199" y="563" on="0"/>
        <pt x="146" y="441" on="0"/>
        <pt x="146" y="319" on="1"/>
        <pt x="146" y="172" on="0"/>
        <pt x="254" y="44" on="0"/>
        <pt x="364" y="44" on="1"/>
      </contour>
    </TTGlyph>
    <TTGlyph name="Obreve" xMin="45" yMin="-13" xMax="651" yMax="821">
      <component glyphName=".ttfautohint" x="45" y="0" flags="0x0"/>
      <component glyphName="O" x="0" y="0" flags="0x0"/>
      <component glyphName="uni0306.case" x="487" y="0" flags="0x0"/>
    </TTGlyph>
    <TTGlyph name="Ocircumflex" xMin="45" yMin="-13" xMax="651" yMax="834">
      <contour>
        <pt x="276" y="780" on="1"/>
        <pt x="305" y="803" on="1"/>
        <pt x="321" y="817" on="0"/>
        <pt x="345" y="834" on="0"/>
        <pt x="352" y="834" on="1"/>
        <pt x="361" y="834" on="0"/>
        <pt x="383" y="819" on="0"/>
        <pt x="407" y="798" on="1"/>
        <pt x="415" y="792" on="0"/>
        <pt x="429" y="780" on="1"/>
        <pt x="503" y="719" on="1"/>
        <pt x="470" y="678" on="1"/>
        <pt x="348" y="743" on="1"/>
        <pt x="222" y="680" on="1"/>
        <pt x="197" y="716" on="1"/>
      </contour>
      <contour>
        <pt x="199" y="-13" on="0"/>
        <pt x="45" y="160" on="0"/>
        <pt x="45" y="313" on="1"/>
        <pt x="45" y="410" on="0"/>
        <pt x="121" y="568" on="0"/>
        <pt x="266" y="660" on="0"/>
        <pt x="366" y="660" on="1"/>
        <pt x="455" y="660" on="0"/>
        <pt x="583" y="580" on="0"/>
        <pt x="651" y="435" on="0"/>
        <pt x="651" y="338" on="1"/>
        <pt x="651" y="237" on="0"/>
        <pt x="586" y="79" on="0"/>
        <pt x="448" y="-13" on="0"/>
        <pt x="344" y="-13" on="1"/>
      </contour>
      <contour>
        <pt x="461" y="44" on="0"/>
        <pt x="550" y="185" on="0"/>
        <pt x="550" y="319" on="1"/>
        <pt x="550" y="431" on="0"/>
        <pt x="501" y="554" on="0"/>
        <pt x="415" y="600" on="0"/>
        <pt x="352" y="600" on="1"/>
        <pt x="285" y="600" on="0"/>
        <pt x="199" y="563" on="0"/>
        <pt x="146" y="441" on="0"/>
        <pt x="146" y="319" on="1"/>
        <pt x="146" y="172" on="0"/>
        <pt x="254" y="44" on="0"/>
        <pt x="364" y="44" on="1"/>
      </contour>
    </TTGlyph>
    <TTGlyph name="Odieresis" xMin="45" yMin="-13" xMax="651" yMax="809">
      <contour>
        <pt x="223" y="693" on="0"/>
        <pt x="195" y="724" on="0"/>
        <pt x="195" y="749" on="1"/>
        <pt x="195" y="774" on="0"/>
        <pt x="226" y="809" on="0"/>
        <pt x="250" y="809" on="1"/>
        <pt x="273" y="809" on="0"/>
        <pt x="301" y="780" on="0"/>
        <pt x="301" y="755" on="1"/>
        <pt x="301" y="729" on="0"/>
        <pt x="271" y="693" on="0"/>
        <pt x="246" y="693" on="1"/>
      </contour>
      <contour>
        <pt x="434" y="693" on="0"/>
        <pt x="406" y="724" on="0"/>
        <pt x="406" y="749" on="1"/>
        <pt x="406" y="774" on="0"/>
        <pt x="437" y="809" on="0"/>
        <pt x="461" y="809" on="1"/>
        <pt x="484" y="809" on="0"/>
        <pt x="512" y="780" on="0"/>
        <pt x="512" y="755" on="1"/>
        <pt x="512" y="729" on="0"/>
        <pt x="482" y="693" on="0"/>
        <pt x="457" y="693" on="1"/>
      </contour>
      <contour>
        <pt x="199" y="-13" on="0"/>
        <pt x="45" y="160" on="0"/>
        <pt x="45" y="313" on="1"/>
        <pt x="45" y="410" on="0"/>
        <pt x="121" y="568" on="0"/>
        <pt x="266" y="660" on="0"/>
        <pt x="366" y="660" on="1"/>
        <pt x="455" y="660" on="0"/>
        <pt x="583" y="580" on="0"/>
        <pt x="651" y="435" on="0"/>
        <pt x="651" y="338" on="1"/>
        <pt x="651" y="237" on="0"/>
        <pt x="586" y="79" on="0"/>
        <pt x="448" y="-13" on="0"/>
        <pt x="344" y="-13" on="1"/>
      </contour>
      <contour>
        <pt x="461" y="44" on="0"/>
        <pt x="550" y="185" on="0"/>
        <pt x="550" y="319" on="1"/>
        <pt x="550" y="431" on="0"/>
        <pt x="501" y="554" on="0"/>
        <pt x="415" y="600" on="0"/>
        <pt x="352" y="600" on="1"/>
        <pt x="285" y="600" on="0"/>
        <pt x="199" y="563" on="0"/>
        <pt x="146" y="441" on="0"/>
        <pt x="146" y="319" on="1"/>
        <pt x="146" y="172" on="0"/>
        <pt x="254" y="44" on="0"/>
        <pt x="364" y="44" on="1"/>
      </contour>
    </TTGlyph>
    <TTGlyph name="Ograve" xMin="45" yMin="-13" xMax="651" yMax="836">
      <contour>
        <pt x="238" y="767" on="1"/>
        <pt x="241" y="800" on="0"/>
        <pt x="265" y="836" on="0"/>
        <pt x="280" y="836" on="1"/>
        <pt x="287" y="836" on="0"/>
        <pt x="310" y="823" on="0"/>
        <pt x="322" y="814" on="1"/>
        <pt x="453" y="716" on="1"/>
        <pt x="431" y="681" on="1"/>
      </contour>
      <contour>
        <pt x="199" y="-13" on="0"/>
        <pt x="45" y="160" on="0"/>
        <pt x="45" y="313" on="1"/>
        <pt x="45" y="410" on="0"/>
        <pt x="121" y="568" on="0"/>
        <pt x="266" y="660" on="0"/>
        <pt x="366" y="660" on="1"/>
        <pt x="455" y="660" on="0"/>
        <pt x="583" y="580" on="0"/>
        <pt x="651" y="435" on="0"/>
        <pt x="651" y="338" on="1"/>
        <pt x="651" y="237" on="0"/>
        <pt x="586" y="79" on="0"/>
        <pt x="448" y="-13" on="0"/>
        <pt x="344" y="-13" on="1"/>
      </contour>
      <contour>
        <pt x="461" y="44" on="0"/>
        <pt x="550" y="185" on="0"/>
        <pt x="550" y="319" on="1"/>
        <pt x="550" y="431" on="0"/>
        <pt x="501" y="554" on="0"/>
        <pt x="415" y="600" on="0"/>
        <pt x="352" y="600" on="1"/>
        <pt x="285" y="600" on="0"/>
        <pt x="199" y="563" on="0"/>
        <pt x="146" y="441" on="0"/>
        <pt x="146" y="319" on="1"/>
        <pt x="146" y="172" on="0"/>
        <pt x="254" y="44" on="0"/>
        <pt x="364" y="44" on="1"/>
      </contour>
    </TTGlyph>
    <TTGlyph name="Ohorn" xMin="45" yMin="-13" xMax="729" yMax="716">
      <contour>
        <pt x="729" y="624" on="0"/>
        <pt x="676" y="548" on="0"/>
        <pt x="617" y="507" on="1"/>
        <pt x="651" y="433" on="0"/>
        <pt x="651" y="338" on="1"/>
        <pt x="651" y="237" on="0"/>
        <pt x="586" y="79" on="0"/>
        <pt x="448" y="-13" on="0"/>
        <pt x="344" y="-13" on="1"/>
        <pt x="199" y="-13" on="0"/>
        <pt x="45" y="160" on="0"/>
        <pt x="45" y="313" on="1"/>
        <pt x="45" y="410" on="0"/>
        <pt x="121" y="568" on="0"/>
        <pt x="266" y="660" on="0"/>
        <pt x="366" y="660" on="1"/>
        <pt x="446" y="660" on="0"/>
        <pt x="567" y="594" on="0"/>
        <pt x="603" y="534" on="1"/>
        <pt x="663" y="583" on="0"/>
        <pt x="663" y="628" on="1"/>
        <pt x="663" y="640" on="0"/>
        <pt x="653" y="654" on="0"/>
        <pt x="642" y="662" on="1"/>
        <pt x="642" y="677" on="1"/>
        <pt x="697" y="716" on="1"/>
        <pt x="713" y="704" on="0"/>
        <pt x="729" y="681" on="0"/>
        <pt x="729" y="654" on="1"/>
      </contour>
      <contour>
        <pt x="461" y="44" on="0"/>
        <pt x="550" y="185" on="0"/>
        <pt x="550" y="319" on="1"/>
        <pt x="550" y="431" on="0"/>
        <pt x="501" y="554" on="0"/>
        <pt x="415" y="600" on="0"/>
        <pt x="352" y="600" on="1"/>
        <pt x="285" y="600" on="0"/>
        <pt x="199" y="563" on="0"/>
        <pt x="146" y="441" on="0"/>
        <pt x="146" y="319" on="1"/>
        <pt x="146" y="172" on="0"/>
        <pt x="254" y="44" on="0"/>
        <pt x="364" y="44" on="1"/>
      </contour>
    </TTGlyph>
    <TTGlyph name="Ohungarumlaut" xMin="45" yMin="-13" xMax="651" yMax="838">
      <contour>
        <pt x="192" y="703" on="1"/>
        <pt x="271" y="806" on="1"/>
        <pt x="285" y="825" on="0"/>
        <pt x="306" y="838" on="0"/>
        <pt x="318" y="838" on="1"/>
        <pt x="332" y="838" on="0"/>
        <pt x="357" y="807" on="0"/>
        <pt x="364" y="778" on="1"/>
        <pt x="220" y="676" on="1"/>
      </contour>
      <contour>
        <pt x="376" y="703" on="1"/>
        <pt x="455" y="806" on="1"/>
        <pt x="469" y="825" on="0"/>
        <pt x="490" y="838" on="0"/>
        <pt x="502" y="838" on="1"/>
        <pt x="516" y="838" on="0"/>
        <pt x="541" y="807" on="0"/>
        <pt x="548" y="778" on="1"/>
        <pt x="404" y="676" on="1"/>
      </contour>
      <contour>
        <pt x="199" y="-13" on="0"/>
        <pt x="45" y="160" on="0"/>
        <pt x="45" y="313" on="1"/>
        <pt x="45" y="410" on="0"/>
        <pt x="121" y="568" on="0"/>
        <pt x="266" y="660" on="0"/>
        <pt x="366" y="660" on="1"/>
        <pt x="455" y="660" on="0"/>
        <pt x="583" y="580" on="0"/>
        <pt x="651" y="435" on="0"/>
        <pt x="651" y="338" on="1"/>
        <pt x="651" y="237" on="0"/>
        <pt x="586" y="79" on="0"/>
        <pt x="448" y="-13" on="0"/>
        <pt x="344" y="-13" on="1"/>
      </contour>
      <contour>
        <pt x="461" y="44" on="0"/>
        <pt x="550" y="185" on="0"/>
        <pt x="550" y="319" on="1"/>
        <pt x="550" y="431" on="0"/>
        <pt x="501" y="554" on="0"/>
        <pt x="415" y="600" on="0"/>
        <pt x="352" y="600" on="1"/>
        <pt x="285" y="600" on="0"/>
        <pt x="199" y="563" on="0"/>
        <pt x="146" y="441" on="0"/>
        <pt x="146" y="319" on="1"/>
        <pt x="146" y="172" on="0"/>
        <pt x="254" y="44" on="0"/>
        <pt x="364" y="44" on="1"/>
      </contour>
    </TTGlyph>
    <TTGlyph name="Omacron" xMin="50" yMin="-13" xMax="656" yMax="781">
      <contour>
        <pt x="202" y="781" on="1"/>
        <pt x="534" y="781" on="1"/>
        <pt x="524" y="723" on="1"/>
        <pt x="192" y="723" on="1"/>
      </contour>
      <contour>
        <pt x="204" y="-13" on="0"/>
        <pt x="50" y="160" on="0"/>
        <pt x="50" y="313" on="1"/>
        <pt x="50" y="410" on="0"/>
        <pt x="126" y="568" on="0"/>
        <pt x="271" y="660" on="0"/>
        <pt x="371" y="660" on="1"/>
        <pt x="460" y="660" on="0"/>
        <pt x="588" y="580" on="0"/>
        <pt x="656" y="435" on="0"/>
        <pt x="656" y="338" on="1"/>
        <pt x="656" y="237" on="0"/>
        <pt x="591" y="79" on="0"/>
        <pt x="453" y="-13" on="0"/>
        <pt x="349" y="-13" on="1"/>
      </contour>
      <contour>
        <pt x="466" y="44" on="0"/>
        <pt x="555" y="185" on="0"/>
        <pt x="555" y="319" on="1"/>
        <pt x="555" y="431" on="0"/>
        <pt x="506" y="554" on="0"/>
        <pt x="420" y="600" on="0"/>
        <pt x="357" y="600" on="1"/>
        <pt x="290" y="600" on="0"/>
        <pt x="204" y="563" on="0"/>
        <pt x="151" y="441" on="0"/>
        <pt x="151" y="319" on="1"/>
        <pt x="151" y="172" on="0"/>
        <pt x="259" y="44" on="0"/>
        <pt x="369" y="44" on="1"/>
      </contour>
    </TTGlyph>
    <TTGlyph name="Oslash" xMin="45" yMin="-72" xMax="651" yMax="720">
      <contour>
        <pt x="113" y="66" on="0"/>
        <pt x="45" y="212" on="0"/>
        <pt x="45" y="313" on="1"/>
        <pt x="45" y="410" on="0"/>
        <pt x="121" y="568" on="0"/>
        <pt x="266" y="660" on="0"/>
        <pt x="366" y="660" on="1"/>
        <pt x="405" y="660" on="0"/>
        <pt x="447" y="650" on="1"/>
        <pt x="478" y="720" on="1"/>
        <pt x="538" y="693" on="1"/>
        <pt x="509" y="626" on="1"/>
        <pt x="577" y="588" on="0"/>
        <pt x="651" y="438" on="0"/>
        <pt x="651" y="338" on="1"/>
        <pt x="651" y="237" on="0"/>
        <pt x="586" y="79" on="0"/>
        <pt x="448" y="-13" on="0"/>
        <pt x="344" y="-13" on="1"/>
        <pt x="291" y="-13" on="0"/>
        <pt x="241" y="0" on="1"/>
        <pt x="210" y="-72" on="1"/>
        <pt x="148" y="-45" on="1"/>
        <pt x="179" y="27" on="1"/>
      </contour>
      <contour>
        <pt x="394" y="600" on="0"/>
        <pt x="352" y="600" on="1"/>
        <pt x="285" y="600" on="0"/>
        <pt x="199" y="563" on="0"/>
        <pt x="146" y="441" on="0"/>
        <pt x="146" y="319" on="1"/>
        <pt x="146" y="164" on="0"/>
        <pt x="209" y="98" on="1"/>
        <pt x="422" y="592" on="1"/>
      </contour>
      <contour>
        <pt x="307" y="44" on="0"/>
        <pt x="364" y="44" on="1"/>
        <pt x="461" y="44" on="0"/>
        <pt x="550" y="185" on="0"/>
        <pt x="550" y="319" on="1"/>
        <pt x="550" y="414" on="0"/>
        <pt x="515" y="530" on="0"/>
        <pt x="481" y="560" on="1"/>
        <pt x="266" y="60" on="1"/>
      </contour>
    </TTGlyph>
    <TTGlyph name="Oslashacute" xMin="45" yMin="-72" xMax="651" yMax="836">
      <component glyphName=".ttfautohint" x="45" y="0" flags="0x0"/>
      <component glyphName="Oslash" x="0" y="0" flags="0x0"/>
      <component glyphName="acutecomb.case" x="470" y="0" flags="0x0"/>
    </TTGlyph>
    <TTGlyph name="Otilde" xMin="45" yMin="-13" xMax="651" yMax="806">
      <contour>
        <pt x="411" y="698" on="0"/>
        <pt x="364" y="713" on="1"/>
        <pt x="285" y="738" on="1"/>
        <pt x="205" y="702" on="1"/>
        <pt x="182" y="728" on="1"/>
        <pt x="219" y="777" on="1"/>
        <pt x="240" y="806" on="0"/>
        <pt x="280" y="806" on="1"/>
        <pt x="303" y="806" on="0"/>
        <pt x="350" y="791" on="1"/>
        <pt x="429" y="766" on="1"/>
        <pt x="509" y="802" on="1"/>
        <pt x="532" y="776" on="1"/>
        <pt x="495" y="727" on="1"/>
        <pt x="474" y="698" on="0"/>
        <pt x="434" y="698" on="1"/>
      </contour>
      <contour>
        <pt x="199" y="-13" on="0"/>
        <pt x="45" y="160" on="0"/>
        <pt x="45" y="313" on="1"/>
        <pt x="45" y="410" on="0"/>
        <pt x="121" y="568" on="0"/>
        <pt x="266" y="660" on="0"/>
        <pt x="366" y="660" on="1"/>
        <pt x="455" y="660" on="0"/>
        <pt x="583" y="580" on="0"/>
        <pt x="651" y="435" on="0"/>
        <pt x="651" y="338" on="1"/>
        <pt x="651" y="237" on="0"/>
        <pt x="586" y="79" on="0"/>
        <pt x="448" y="-13" on="0"/>
        <pt x="344" y="-13" on="1"/>
      </contour>
      <contour>
        <pt x="461" y="44" on="0"/>
        <pt x="550" y="185" on="0"/>
        <pt x="550" y="319" on="1"/>
        <pt x="550" y="431" on="0"/>
        <pt x="501" y="554" on="0"/>
        <pt x="415" y="600" on="0"/>
        <pt x="352" y="600" on="1"/>
        <pt x="285" y="600" on="0"/>
        <pt x="199" y="563" on="0"/>
        <pt x="146" y="441" on="0"/>
        <pt x="146" y="319" on="1"/>
        <pt x="146" y="172" on="0"/>
        <pt x="254" y="44" on="0"/>
        <pt x="364" y="44" on="1"/>
      </contour>
    </TTGlyph>
    <TTGlyph name="P" xMin="55" yMin="0" xMax="547" yMax="648">
      <contour>
        <pt x="55" y="43" on="1"/>
        <pt x="138" y="60" on="1"/>
        <pt x="138" y="588" on="1"/>
        <pt x="55" y="605" on="1"/>
        <pt x="55" y="648" on="1"/>
        <pt x="304" y="648" on="1"/>
        <pt x="547" y="648" on="0"/>
        <pt x="547" y="484" on="1"/>
        <pt x="547" y="375" on="0"/>
        <pt x="419" y="260" on="0"/>
        <pt x="309" y="260" on="1"/>
        <pt x="285" y="260" on="0"/>
        <pt x="273" y="262" on="1"/>
        <pt x="268" y="301" on="1"/>
        <pt x="359" y="301" on="0"/>
        <pt x="455" y="372" on="0"/>
        <pt x="455" y="454" on="1"/>
        <pt x="455" y="591" on="0"/>
        <pt x="303" y="591" on="1"/>
        <pt x="278" y="591" on="0"/>
        <pt x="231" y="587" on="0"/>
        <pt x="224" y="586" on="1"/>
        <pt x="224" y="63" on="1"/>
        <pt x="335" y="46" on="1"/>
        <pt x="335" y="0" on="1"/>
        <pt x="55" y="0" on="1"/>
      </contour>
    </TTGlyph>
    <TTGlyph name="Q" xMin="45" yMin="-156" xMax="696" yMax="660">
      <contour>
        <pt x="373" y="-31" on="0"/>
        <pt x="337" y="-14" on="0"/>
        <pt x="307" y="-9" on="1"/>
        <pt x="181" y="-3" on="0"/>
        <pt x="45" y="171" on="0"/>
        <pt x="45" y="318" on="1"/>
        <pt x="45" y="409" on="0"/>
        <pt x="126" y="566" on="0"/>
        <pt x="272" y="660" on="0"/>
        <pt x="366" y="660" on="1"/>
        <pt x="455" y="660" on="0"/>
        <pt x="583" y="582" on="0"/>
        <pt x="651" y="439" on="0"/>
        <pt x="651" y="343" on="1"/>
        <pt x="651" y="278" on="0"/>
        <pt x="613" y="144" on="0"/>
        <pt x="520" y="32" on="0"/>
        <pt x="443" y="7" on="1"/>
        <pt x="591" y="-86" on="1"/>
        <pt x="696" y="-86" on="1"/>
        <pt x="696" y="-121" on="1"/>
        <pt x="692" y="-124" on="0"/>
        <pt x="660" y="-140" on="0"/>
        <pt x="613" y="-156" on="0"/>
        <pt x="591" y="-156" on="1"/>
        <pt x="551" y="-156" on="0"/>
        <pt x="519" y="-135" on="1"/>
        <pt x="390" y="-43" on="1"/>
      </contour>
      <contour>
        <pt x="461" y="45" on="0"/>
        <pt x="550" y="191" on="0"/>
        <pt x="550" y="324" on="1"/>
        <pt x="550" y="436" on="0"/>
        <pt x="500" y="557" on="0"/>
        <pt x="414" y="601" on="0"/>
        <pt x="352" y="601" on="1"/>
        <pt x="286" y="601" on="0"/>
        <pt x="200" y="564" on="0"/>
        <pt x="146" y="443" on="0"/>
        <pt x="146" y="324" on="1"/>
        <pt x="146" y="184" on="0"/>
        <pt x="262" y="45" on="0"/>
        <pt x="370" y="45" on="1"/>
      </contour>
    </TTGlyph>
    <TTGlyph name="R" xMin="55" yMin="0" xMax="606" yMax="648">
      <contour>
        <pt x="55" y="43" on="1"/>
        <pt x="138" y="60" on="1"/>
        <pt x="138" y="588" on="1"/>
        <pt x="55" y="605" on="1"/>
        <pt x="55" y="648" on="1"/>
        <pt x="339" y="648" on="1"/>
        <pt x="428" y="648" on="0"/>
        <pt x="538" y="568" on="0"/>
        <pt x="538" y="488" on="1"/>
        <pt x="538" y="429" on="0"/>
        <pt x="497" y="353" on="0"/>
        <pt x="438" y="311" on="0"/>
        <pt x="397" y="293" on="1"/>
        <pt x="538" y="62" on="1"/>
        <pt x="606" y="43" on="1"/>
        <pt x="606" y="0" on="1"/>
        <pt x="502" y="0" on="1"/>
        <pt x="485" y="0" on="0"/>
        <pt x="455" y="15" on="0"/>
        <pt x="447" y="30" on="1"/>
        <pt x="310" y="273" on="1"/>
        <pt x="224" y="273" on="1"/>
        <pt x="224" y="60" on="1"/>
        <pt x="307" y="43" on="1"/>
        <pt x="307" y="0" on="1"/>
        <pt x="55" y="0" on="1"/>
      </contour>
      <contour>
        <pt x="287" y="328" on="1"/>
        <pt x="356" y="328" on="0"/>
        <pt x="444" y="407" on="0"/>
        <pt x="444" y="470" on="1"/>
        <pt x="444" y="543" on="0"/>
        <pt x="365" y="591" on="0"/>
        <pt x="305" y="591" on="1"/>
        <pt x="264" y="591" on="0"/>
        <pt x="224" y="586" on="1"/>
        <pt x="224" y="328" on="1"/>
      </contour>
    </TTGlyph>
    <TTGlyph name="Racute" xMin="55" yMin="0" xMax="606" yMax="836">
      <contour>
        <pt x="199" y="716" on="1"/>
        <pt x="330" y="814" on="1"/>
        <pt x="342" y="823" on="0"/>
        <pt x="365" y="836" on="0"/>
        <pt x="372" y="836" on="1"/>
        <pt x="387" y="836" on="0"/>
        <pt x="411" y="800" on="0"/>
        <pt x="414" y="767" on="1"/>
        <pt x="221" y="681" on="1"/>
      </contour>
      <contour>
        <pt x="55" y="43" on="1"/>
        <pt x="138" y="60" on="1"/>
        <pt x="138" y="588" on="1"/>
        <pt x="55" y="605" on="1"/>
        <pt x="55" y="648" on="1"/>
        <pt x="339" y="648" on="1"/>
        <pt x="428" y="648" on="0"/>
        <pt x="538" y="568" on="0"/>
        <pt x="538" y="488" on="1"/>
        <pt x="538" y="429" on="0"/>
        <pt x="497" y="353" on="0"/>
        <pt x="438" y="311" on="0"/>
        <pt x="397" y="293" on="1"/>
        <pt x="538" y="62" on="1"/>
        <pt x="606" y="43" on="1"/>
        <pt x="606" y="0" on="1"/>
        <pt x="502" y="0" on="1"/>
        <pt x="485" y="0" on="0"/>
        <pt x="455" y="15" on="0"/>
        <pt x="447" y="30" on="1"/>
        <pt x="310" y="273" on="1"/>
        <pt x="224" y="273" on="1"/>
        <pt x="224" y="60" on="1"/>
        <pt x="307" y="43" on="1"/>
        <pt x="307" y="0" on="1"/>
        <pt x="55" y="0" on="1"/>
      </contour>
      <contour>
        <pt x="287" y="328" on="1"/>
        <pt x="356" y="328" on="0"/>
        <pt x="444" y="407" on="0"/>
        <pt x="444" y="470" on="1"/>
        <pt x="444" y="543" on="0"/>
        <pt x="365" y="591" on="0"/>
        <pt x="305" y="591" on="1"/>
        <pt x="264" y="591" on="0"/>
        <pt x="224" y="586" on="1"/>
        <pt x="224" y="328" on="1"/>
      </contour>
    </TTGlyph>
    <TTGlyph name="Rcaron" xMin="55" yMin="0" xMax="606" yMax="834">
      <contour>
        <pt x="292" y="678" on="0"/>
        <pt x="270" y="693" on="0"/>
        <pt x="246" y="714" on="1"/>
        <pt x="238" y="720" on="0"/>
        <pt x="224" y="732" on="1"/>
        <pt x="150" y="793" on="1"/>
        <pt x="183" y="834" on="1"/>
        <pt x="305" y="769" on="1"/>
        <pt x="431" y="832" on="1"/>
        <pt x="456" y="796" on="1"/>
        <pt x="377" y="732" on="1"/>
        <pt x="348" y="709" on="1"/>
        <pt x="332" y="695" on="0"/>
        <pt x="308" y="678" on="0"/>
        <pt x="301" y="678" on="1"/>
      </contour>
      <contour>
        <pt x="55" y="43" on="1"/>
        <pt x="138" y="60" on="1"/>
        <pt x="138" y="588" on="1"/>
        <pt x="55" y="605" on="1"/>
        <pt x="55" y="648" on="1"/>
        <pt x="339" y="648" on="1"/>
        <pt x="428" y="648" on="0"/>
        <pt x="538" y="568" on="0"/>
        <pt x="538" y="488" on="1"/>
        <pt x="538" y="429" on="0"/>
        <pt x="497" y="353" on="0"/>
        <pt x="438" y="311" on="0"/>
        <pt x="397" y="293" on="1"/>
        <pt x="538" y="62" on="1"/>
        <pt x="606" y="43" on="1"/>
        <pt x="606" y="0" on="1"/>
        <pt x="502" y="0" on="1"/>
        <pt x="485" y="0" on="0"/>
        <pt x="455" y="15" on="0"/>
        <pt x="447" y="30" on="1"/>
        <pt x="310" y="273" on="1"/>
        <pt x="224" y="273" on="1"/>
        <pt x="224" y="60" on="1"/>
        <pt x="307" y="43" on="1"/>
        <pt x="307" y="0" on="1"/>
        <pt x="55" y="0" on="1"/>
      </contour>
      <contour>
        <pt x="287" y="328" on="1"/>
        <pt x="356" y="328" on="0"/>
        <pt x="444" y="407" on="0"/>
        <pt x="444" y="470" on="1"/>
        <pt x="444" y="543" on="0"/>
        <pt x="365" y="591" on="0"/>
        <pt x="305" y="591" on="1"/>
        <pt x="264" y="591" on="0"/>
        <pt x="224" y="586" on="1"/>
        <pt x="224" y="328" on="1"/>
      </contour>
    </TTGlyph>
    <TTGlyph name="Rcommaaccent" xMin="55" yMin="-189" xMax="606" yMax="648">
      <contour>
        <pt x="55" y="43" on="1"/>
        <pt x="138" y="60" on="1"/>
        <pt x="138" y="588" on="1"/>
        <pt x="55" y="605" on="1"/>
        <pt x="55" y="648" on="1"/>
        <pt x="339" y="648" on="1"/>
        <pt x="428" y="648" on="0"/>
        <pt x="538" y="568" on="0"/>
        <pt x="538" y="488" on="1"/>
        <pt x="538" y="429" on="0"/>
        <pt x="497" y="353" on="0"/>
        <pt x="438" y="311" on="0"/>
        <pt x="397" y="293" on="1"/>
        <pt x="538" y="62" on="1"/>
        <pt x="606" y="43" on="1"/>
        <pt x="606" y="0" on="1"/>
        <pt x="502" y="0" on="1"/>
        <pt x="485" y="0" on="0"/>
        <pt x="455" y="15" on="0"/>
        <pt x="447" y="30" on="1"/>
        <pt x="310" y="273" on="1"/>
        <pt x="224" y="273" on="1"/>
        <pt x="224" y="60" on="1"/>
        <pt x="307" y="43" on="1"/>
        <pt x="307" y="0" on="1"/>
        <pt x="55" y="0" on="1"/>
      </contour>
      <contour>
        <pt x="287" y="328" on="1"/>
        <pt x="356" y="328" on="0"/>
        <pt x="444" y="407" on="0"/>
        <pt x="444" y="470" on="1"/>
        <pt x="444" y="543" on="0"/>
        <pt x="365" y="591" on="0"/>
        <pt x="305" y="591" on="1"/>
        <pt x="264" y="591" on="0"/>
        <pt x="224" y="586" on="1"/>
        <pt x="224" y="328" on="1"/>
      </contour>
      <contour>
        <pt x="298" y="-161" on="0"/>
        <pt x="306" y="-127" on="0"/>
        <pt x="306" y="-108" on="1"/>
        <pt x="306" y="-75" on="0"/>
        <pt x="280" y="-51" on="1"/>
        <pt x="290" y="-40" on="0"/>
        <pt x="314" y="-29" on="0"/>
        <pt x="325" y="-29" on="1"/>
        <pt x="349" y="-29" on="0"/>
        <pt x="373" y="-60" on="0"/>
        <pt x="373" y="-81" on="1"/>
        <pt x="373" y="-111" on="0"/>
        <pt x="349" y="-158" on="0"/>
        <pt x="320" y="-189" on="0"/>
        <pt x="320" y="-187" on="1"/>
        <pt x="289" y="-187" on="1"/>
      </contour>
    </TTGlyph>
    <TTGlyph name="S" xMin="58" yMin="-10" xMax="469" yMax="660">
      <contour>
        <pt x="193" y="-10" on="0"/>
        <pt x="82" y="23" on="0"/>
        <pt x="58" y="44" on="1"/>
        <pt x="58" y="187" on="1"/>
        <pt x="112" y="187" on="1"/>
        <pt x="127" y="87" on="1"/>
        <pt x="149" y="71" on="0"/>
        <pt x="216" y="48" on="0"/>
        <pt x="244" y="48" on="1"/>
        <pt x="319" y="48" on="0"/>
        <pt x="383" y="98" on="0"/>
        <pt x="383" y="162" on="1"/>
        <pt x="383" y="197" on="0"/>
        <pt x="347" y="244" on="0"/>
        <pt x="292" y="274" on="0"/>
        <pt x="248" y="290" on="1"/>
        <pt x="183" y="313" on="0"/>
        <pt x="112" y="349" on="0"/>
        <pt x="59" y="419" on="0"/>
        <pt x="59" y="477" on="1"/>
        <pt x="59" y="560" on="0"/>
        <pt x="175" y="660" on="0"/>
        <pt x="273" y="660" on="1"/>
        <pt x="319" y="660" on="0"/>
        <pt x="423" y="643" on="0"/>
        <pt x="442" y="635" on="1"/>
        <pt x="442" y="484" on="1"/>
        <pt x="393" y="484" on="1"/>
        <pt x="374" y="578" on="1"/>
        <pt x="371" y="580" on="0"/>
        <pt x="343" y="591" on="0"/>
        <pt x="297" y="601" on="0"/>
        <pt x="270" y="601" on="1"/>
        <pt x="199" y="601" on="0"/>
        <pt x="146" y="551" on="0"/>
        <pt x="146" y="505" on="1"/>
        <pt x="146" y="467" on="0"/>
        <pt x="189" y="419" on="0"/>
        <pt x="245" y="393" on="0"/>
        <pt x="305" y="370" on="1"/>
        <pt x="356" y="351" on="0"/>
        <pt x="424" y="310" on="0"/>
        <pt x="469" y="238" on="0"/>
        <pt x="469" y="184" on="1"/>
        <pt x="469" y="117" on="0"/>
        <pt x="405" y="30" on="0"/>
        <pt x="305" y="-10" on="0"/>
        <pt x="250" y="-10" on="1"/>
      </contour>
    </TTGlyph>
    <TTGlyph name="Sacute" xMin="58" yMin="-10" xMax="469" yMax="836">
      <contour>
        <pt x="177" y="716" on="1"/>
        <pt x="308" y="814" on="1"/>
        <pt x="320" y="823" on="0"/>
        <pt x="343" y="836" on="0"/>
        <pt x="350" y="836" on="1"/>
        <pt x="365" y="836" on="0"/>
        <pt x="389" y="800" on="0"/>
        <pt x="392" y="767" on="1"/>
        <pt x="199" y="681" on="1"/>
      </contour>
      <contour>
        <pt x="193" y="-10" on="0"/>
        <pt x="82" y="23" on="0"/>
        <pt x="58" y="44" on="1"/>
        <pt x="58" y="187" on="1"/>
        <pt x="112" y="187" on="1"/>
        <pt x="127" y="87" on="1"/>
        <pt x="149" y="71" on="0"/>
        <pt x="216" y="48" on="0"/>
        <pt x="244" y="48" on="1"/>
        <pt x="319" y="48" on="0"/>
        <pt x="383" y="98" on="0"/>
        <pt x="383" y="162" on="1"/>
        <pt x="383" y="197" on="0"/>
        <pt x="347" y="244" on="0"/>
        <pt x="292" y="274" on="0"/>
        <pt x="248" y="290" on="1"/>
        <pt x="183" y="313" on="0"/>
        <pt x="112" y="349" on="0"/>
        <pt x="59" y="419" on="0"/>
        <pt x="59" y="477" on="1"/>
        <pt x="59" y="560" on="0"/>
        <pt x="175" y="660" on="0"/>
        <pt x="273" y="660" on="1"/>
        <pt x="319" y="660" on="0"/>
        <pt x="423" y="643" on="0"/>
        <pt x="442" y="635" on="1"/>
        <pt x="442" y="484" on="1"/>
        <pt x="393" y="484" on="1"/>
        <pt x="374" y="578" on="1"/>
        <pt x="371" y="580" on="0"/>
        <pt x="343" y="591" on="0"/>
        <pt x="297" y="601" on="0"/>
        <pt x="270" y="601" on="1"/>
        <pt x="199" y="601" on="0"/>
        <pt x="146" y="551" on="0"/>
        <pt x="146" y="505" on="1"/>
        <pt x="146" y="467" on="0"/>
        <pt x="189" y="419" on="0"/>
        <pt x="245" y="393" on="0"/>
        <pt x="305" y="370" on="1"/>
        <pt x="356" y="351" on="0"/>
        <pt x="424" y="310" on="0"/>
        <pt x="469" y="238" on="0"/>
        <pt x="469" y="184" on="1"/>
        <pt x="469" y="117" on="0"/>
        <pt x="405" y="30" on="0"/>
        <pt x="305" y="-10" on="0"/>
        <pt x="250" y="-10" on="1"/>
      </contour>
    </TTGlyph>
    <TTGlyph name="Sacute.loclPLK" xMin="58" yMin="-10" xMax="469" yMax="862">
      <contour>
        <pt x="231" y="692" on="1"/>
        <pt x="302" y="822" on="1"/>
        <pt x="314" y="843" on="0"/>
        <pt x="330" y="862" on="0"/>
        <pt x="341" y="862" on="1"/>
        <pt x="354" y="862" on="0"/>
        <pt x="384" y="838" on="0"/>
        <pt x="398" y="814" on="1"/>
        <pt x="267" y="666" on="1"/>
      </contour>
      <contour>
        <pt x="193" y="-10" on="0"/>
        <pt x="82" y="23" on="0"/>
        <pt x="58" y="44" on="1"/>
        <pt x="58" y="187" on="1"/>
        <pt x="112" y="187" on="1"/>
        <pt x="127" y="87" on="1"/>
        <pt x="149" y="71" on="0"/>
        <pt x="216" y="48" on="0"/>
        <pt x="244" y="48" on="1"/>
        <pt x="319" y="48" on="0"/>
        <pt x="383" y="98" on="0"/>
        <pt x="383" y="162" on="1"/>
        <pt x="383" y="197" on="0"/>
        <pt x="347" y="244" on="0"/>
        <pt x="292" y="274" on="0"/>
        <pt x="248" y="290" on="1"/>
        <pt x="183" y="313" on="0"/>
        <pt x="112" y="349" on="0"/>
        <pt x="59" y="419" on="0"/>
        <pt x="59" y="477" on="1"/>
        <pt x="59" y="560" on="0"/>
        <pt x="175" y="660" on="0"/>
        <pt x="273" y="660" on="1"/>
        <pt x="319" y="660" on="0"/>
        <pt x="423" y="643" on="0"/>
        <pt x="442" y="635" on="1"/>
        <pt x="442" y="484" on="1"/>
        <pt x="393" y="484" on="1"/>
        <pt x="374" y="578" on="1"/>
        <pt x="371" y="580" on="0"/>
        <pt x="343" y="591" on="0"/>
        <pt x="297" y="601" on="0"/>
        <pt x="270" y="601" on="1"/>
        <pt x="199" y="601" on="0"/>
        <pt x="146" y="551" on="0"/>
        <pt x="146" y="505" on="1"/>
        <pt x="146" y="467" on="0"/>
        <pt x="189" y="419" on="0"/>
        <pt x="245" y="393" on="0"/>
        <pt x="305" y="370" on="1"/>
        <pt x="356" y="351" on="0"/>
        <pt x="424" y="310" on="0"/>
        <pt x="469" y="238" on="0"/>
        <pt x="469" y="184" on="1"/>
        <pt x="469" y="117" on="0"/>
        <pt x="405" y="30" on="0"/>
        <pt x="305" y="-10" on="0"/>
        <pt x="250" y="-10" on="1"/>
      </contour>
    </TTGlyph>
    <TTGlyph name="Scaron" xMin="58" yMin="-10" xMax="469" yMax="834">
      <contour>
        <pt x="250" y="678" on="0"/>
        <pt x="228" y="693" on="0"/>
        <pt x="204" y="714" on="1"/>
        <pt x="196" y="720" on="0"/>
        <pt x="182" y="732" on="1"/>
        <pt x="108" y="793" on="1"/>
        <pt x="141" y="834" on="1"/>
        <pt x="263" y="769" on="1"/>
        <pt x="389" y="832" on="1"/>
        <pt x="414" y="796" on="1"/>
        <pt x="335" y="732" on="1"/>
        <pt x="306" y="709" on="1"/>
        <pt x="290" y="695" on="0"/>
        <pt x="266" y="678" on="0"/>
        <pt x="259" y="678" on="1"/>
      </contour>
      <contour>
        <pt x="193" y="-10" on="0"/>
        <pt x="82" y="23" on="0"/>
        <pt x="58" y="44" on="1"/>
        <pt x="58" y="187" on="1"/>
        <pt x="112" y="187" on="1"/>
        <pt x="127" y="87" on="1"/>
        <pt x="149" y="71" on="0"/>
        <pt x="216" y="48" on="0"/>
        <pt x="244" y="48" on="1"/>
        <pt x="319" y="48" on="0"/>
        <pt x="383" y="98" on="0"/>
        <pt x="383" y="162" on="1"/>
        <pt x="383" y="197" on="0"/>
        <pt x="347" y="244" on="0"/>
        <pt x="292" y="274" on="0"/>
        <pt x="248" y="290" on="1"/>
        <pt x="183" y="313" on="0"/>
        <pt x="112" y="349" on="0"/>
        <pt x="59" y="419" on="0"/>
        <pt x="59" y="477" on="1"/>
        <pt x="59" y="560" on="0"/>
        <pt x="175" y="660" on="0"/>
        <pt x="273" y="660" on="1"/>
        <pt x="319" y="660" on="0"/>
        <pt x="423" y="643" on="0"/>
        <pt x="442" y="635" on="1"/>
        <pt x="442" y="484" on="1"/>
        <pt x="393" y="484" on="1"/>
        <pt x="374" y="578" on="1"/>
        <pt x="371" y="580" on="0"/>
        <pt x="343" y="591" on="0"/>
        <pt x="297" y="601" on="0"/>
        <pt x="270" y="601" on="1"/>
        <pt x="199" y="601" on="0"/>
        <pt x="146" y="551" on="0"/>
        <pt x="146" y="505" on="1"/>
        <pt x="146" y="467" on="0"/>
        <pt x="189" y="419" on="0"/>
        <pt x="245" y="393" on="0"/>
        <pt x="305" y="370" on="1"/>
        <pt x="356" y="351" on="0"/>
        <pt x="424" y="310" on="0"/>
        <pt x="469" y="238" on="0"/>
        <pt x="469" y="184" on="1"/>
        <pt x="469" y="117" on="0"/>
        <pt x="405" y="30" on="0"/>
        <pt x="305" y="-10" on="0"/>
        <pt x="250" y="-10" on="1"/>
      </contour>
    </TTGlyph>
    <TTGlyph name="Scedilla" xMin="58" yMin="-187" xMax="469" yMax="660">
      <contour>
        <pt x="219" y="-187" on="0"/>
        <pt x="186" y="-179" on="0"/>
        <pt x="167" y="-171" on="1"/>
        <pt x="183" y="-134" on="1"/>
        <pt x="211" y="-145" on="0"/>
        <pt x="237" y="-145" on="1"/>
        <pt x="296" y="-145" on="0"/>
        <pt x="296" y="-115" on="1"/>
        <pt x="296" y="-100" on="0"/>
        <pt x="282" y="-89" on="0"/>
        <pt x="265" y="-86" on="1"/>
        <pt x="228" y="-78" on="1"/>
        <pt x="209" y="-59" on="1"/>
        <pt x="230" y="-9" on="1"/>
        <pt x="176" y="-6" on="0"/>
        <pt x="79" y="25" on="0"/>
        <pt x="58" y="44" on="1"/>
        <pt x="58" y="187" on="1"/>
        <pt x="112" y="187" on="1"/>
        <pt x="127" y="87" on="1"/>
        <pt x="149" y="71" on="0"/>
        <pt x="216" y="48" on="0"/>
        <pt x="244" y="48" on="1"/>
        <pt x="317" y="48" on="0"/>
        <pt x="383" y="97" on="0"/>
        <pt x="383" y="162" on="1"/>
        <pt x="383" y="212" on="0"/>
        <pt x="317" y="265" on="0"/>
        <pt x="254" y="288" on="1"/>
        <pt x="183" y="314" on="0"/>
        <pt x="114" y="347" on="0"/>
        <pt x="59" y="418" on="0"/>
        <pt x="59" y="477" on="1"/>
        <pt x="59" y="560" on="0"/>
        <pt x="175" y="660" on="0"/>
        <pt x="273" y="660" on="1"/>
        <pt x="319" y="660" on="0"/>
        <pt x="423" y="643" on="0"/>
        <pt x="442" y="635" on="1"/>
        <pt x="442" y="484" on="1"/>
        <pt x="393" y="484" on="1"/>
        <pt x="374" y="578" on="1"/>
        <pt x="356" y="588" on="0"/>
        <pt x="297" y="601" on="0"/>
        <pt x="270" y="601" on="1"/>
        <pt x="199" y="601" on="0"/>
        <pt x="146" y="551" on="0"/>
        <pt x="146" y="505" on="1"/>
        <pt x="146" y="469" on="0"/>
        <pt x="185" y="422" on="0"/>
        <pt x="242" y="394" on="0"/>
        <pt x="294" y="375" on="1"/>
        <pt x="349" y="354" on="0"/>
        <pt x="420" y="314" on="0"/>
        <pt x="469" y="241" on="0"/>
        <pt x="469" y="184" on="1"/>
        <pt x="469" y="94" on="0"/>
        <pt x="356" y="-2" on="0"/>
        <pt x="275" y="-9" on="1"/>
        <pt x="275" y="-29" on="1"/>
        <pt x="292" y="-33" on="1"/>
        <pt x="328" y="-42" on="0"/>
        <pt x="364" y="-66" on="0"/>
        <pt x="364" y="-96" on="1"/>
        <pt x="364" y="-144" on="0"/>
        <pt x="293" y="-187" on="0"/>
        <pt x="241" y="-187" on="1"/>
      </contour>
    </TTGlyph>
    <TTGlyph name="Scircumflex" xMin="58" yMin="-10" xMax="469" yMax="834">
      <component glyphName=".ttfautohint" x="58" y="0" flags="0x0"/>
      <component glyphName="S" x="0" y="0" flags="0x0"/>
      <component glyphName="uni0302.case" x="410" y="0" flags="0x0"/>
    </TTGlyph>
    <TTGlyph name="Scommaaccent" xMin="58" yMin="-189" xMax="469" yMax="660">
      <contour>
        <pt x="193" y="-10" on="0"/>
        <pt x="82" y="23" on="0"/>
        <pt x="58" y="44" on="1"/>
        <pt x="58" y="187" on="1"/>
        <pt x="112" y="187" on="1"/>
        <pt x="127" y="87" on="1"/>
        <pt x="149" y="71" on="0"/>
        <pt x="216" y="48" on="0"/>
        <pt x="244" y="48" on="1"/>
        <pt x="319" y="48" on="0"/>
        <pt x="383" y="98" on="0"/>
        <pt x="383" y="162" on="1"/>
        <pt x="383" y="213" on="0"/>
        <pt x="316" y="266" on="0"/>
        <pt x="250" y="289" on="1"/>
        <pt x="182" y="314" on="0"/>
        <pt x="113" y="348" on="0"/>
        <pt x="59" y="419" on="0"/>
        <pt x="59" y="477" on="1"/>
        <pt x="59" y="560" on="0"/>
        <pt x="175" y="660" on="0"/>
        <pt x="273" y="660" on="1"/>
        <pt x="319" y="660" on="0"/>
        <pt x="423" y="643" on="0"/>
        <pt x="442" y="635" on="1"/>
        <pt x="442" y="484" on="1"/>
        <pt x="393" y="484" on="1"/>
        <pt x="374" y="578" on="1"/>
        <pt x="356" y="588" on="0"/>
        <pt x="297" y="601" on="0"/>
        <pt x="270" y="601" on="1"/>
        <pt x="199" y="601" on="0"/>
        <pt x="146" y="551" on="0"/>
        <pt x="146" y="505" on="1"/>
        <pt x="146" y="469" on="0"/>
        <pt x="186" y="421" on="0"/>
        <pt x="243" y="393" on="0"/>
        <pt x="296" y="373" on="1"/>
        <pt x="351" y="352" on="0"/>
        <pt x="421" y="312" on="0"/>
        <pt x="469" y="240" on="0"/>
        <pt x="469" y="184" on="1"/>
        <pt x="469" y="117" on="0"/>
        <pt x="405" y="30" on="0"/>
        <pt x="305" y="-10" on="0"/>
        <pt x="250" y="-10" on="1"/>
      </contour>
      <contour>
        <pt x="234" y="-161" on="0"/>
        <pt x="242" y="-127" on="0"/>
        <pt x="242" y="-108" on="1"/>
        <pt x="242" y="-75" on="0"/>
        <pt x="216" y="-51" on="1"/>
        <pt x="226" y="-40" on="0"/>
        <pt x="250" y="-29" on="0"/>
        <pt x="261" y="-29" on="1"/>
        <pt x="285" y="-29" on="0"/>
        <pt x="309" y="-60" on="0"/>
        <pt x="309" y="-81" on="1"/>
        <pt x="309" y="-111" on="0"/>
        <pt x="285" y="-158" on="0"/>
        <pt x="256" y="-189" on="0"/>
        <pt x="256" y="-187" on="1"/>
        <pt x="225" y="-187" on="1"/>
      </contour>
    </TTGlyph>
    <TTGlyph name="T" xMin="15" yMin="0" xMax="526" yMax="648">
      <contour>
        <pt x="227" y="59" on="1"/>
        <pt x="227" y="590" on="1"/>
        <pt x="85" y="590" on="1"/>
        <pt x="64" y="484" on="1"/>
        <pt x="15" y="484" on="1"/>
        <pt x="15" y="648" on="1"/>
        <pt x="526" y="648" on="1"/>
        <pt x="526" y="484" on="1"/>
        <pt x="477" y="484" on="1"/>
        <pt x="457" y="590" on="1"/>
        <pt x="314" y="590" on="1"/>
        <pt x="314" y="59" on="1"/>
        <pt x="396" y="44" on="1"/>
        <pt x="396" y="0" on="1"/>
        <pt x="145" y="0" on="1"/>
        <pt x="145" y="44" on="1"/>
      </contour>
    </TTGlyph>
    <TTGlyph name="Tbar" xMin="15" yMin="0" xMax="526" yMax="648">
      <contour>
        <pt x="314" y="590" on="1"/>
        <pt x="314" y="362" on="1"/>
        <pt x="491" y="362" on="1"/>
        <pt x="491" y="305" on="1"/>
        <pt x="314" y="305" on="1"/>
        <pt x="314" y="59" on="1"/>
        <pt x="396" y="44" on="1"/>
        <pt x="396" y="0" on="1"/>
        <pt x="145" y="0" on="1"/>
        <pt x="145" y="44" on="1"/>
        <pt x="227" y="59" on="1"/>
        <pt x="227" y="305" on="1"/>
        <pt x="50" y="305" on="1"/>
        <pt x="50" y="362" on="1"/>
        <pt x="227" y="362" on="1"/>
        <pt x="227" y="590" on="1"/>
        <pt x="85" y="590" on="1"/>
        <pt x="64" y="484" on="1"/>
        <pt x="15" y="484" on="1"/>
        <pt x="15" y="648" on="1"/>
        <pt x="526" y="648" on="1"/>
        <pt x="526" y="484" on="1"/>
        <pt x="477" y="484" on="1"/>
        <pt x="457" y="590" on="1"/>
      </contour>
    </TTGlyph>
    <TTGlyph name="Tcaron" xMin="15" yMin="0" xMax="526" yMax="834">
      <contour>
        <pt x="270" y="769" on="1"/>
        <pt x="396" y="832" on="1"/>
        <pt x="421" y="796" on="1"/>
        <pt x="342" y="732" on="1"/>
        <pt x="313" y="709" on="1"/>
        <pt x="297" y="695" on="0"/>
        <pt x="273" y="678" on="0"/>
        <pt x="266" y="678" on="1"/>
        <pt x="257" y="678" on="0"/>
        <pt x="235" y="693" on="0"/>
        <pt x="211" y="714" on="1"/>
        <pt x="203" y="720" on="0"/>
        <pt x="189" y="732" on="1"/>
        <pt x="115" y="793" on="1"/>
        <pt x="148" y="834" on="1"/>
      </contour>
      <contour>
        <pt x="227" y="59" on="1"/>
        <pt x="227" y="590" on="1"/>
        <pt x="85" y="590" on="1"/>
        <pt x="64" y="484" on="1"/>
        <pt x="15" y="484" on="1"/>
        <pt x="15" y="648" on="1"/>
        <pt x="526" y="648" on="1"/>
        <pt x="526" y="484" on="1"/>
        <pt x="477" y="484" on="1"/>
        <pt x="457" y="590" on="1"/>
        <pt x="314" y="590" on="1"/>
        <pt x="314" y="59" on="1"/>
        <pt x="396" y="44" on="1"/>
        <pt x="396" y="0" on="1"/>
        <pt x="145" y="0" on="1"/>
        <pt x="145" y="44" on="1"/>
      </contour>
    </TTGlyph>
    <TTGlyph name="Thorn" xMin="59" yMin="0" xMax="536" yMax="648">
      <contour>
        <pt x="59" y="44" on="1"/>
        <pt x="141" y="59" on="1"/>
        <pt x="141" y="589" on="1"/>
        <pt x="59" y="604" on="1"/>
        <pt x="59" y="648" on="1"/>
        <pt x="310" y="648" on="1"/>
        <pt x="310" y="604" on="1"/>
        <pt x="228" y="589" on="1"/>
        <pt x="228" y="510" on="1"/>
        <pt x="317" y="510" on="1"/>
        <pt x="429" y="510" on="0"/>
        <pt x="536" y="442" on="0"/>
        <pt x="536" y="357" on="1"/>
        <pt x="536" y="252" on="0"/>
        <pt x="421" y="156" on="0"/>
        <pt x="306" y="156" on="1"/>
        <pt x="228" y="156" on="1"/>
        <pt x="228" y="59" on="1"/>
        <pt x="310" y="44" on="1"/>
        <pt x="310" y="0" on="1"/>
        <pt x="59" y="0" on="1"/>
      </contour>
      <contour>
        <pt x="288" y="206" on="1"/>
        <pt x="371" y="206" on="0"/>
        <pt x="444" y="264" on="0"/>
        <pt x="444" y="336" on="1"/>
        <pt x="444" y="401" on="0"/>
        <pt x="379" y="453" on="0"/>
        <pt x="311" y="453" on="1"/>
        <pt x="228" y="453" on="1"/>
        <pt x="228" y="206" on="1"/>
      </contour>
    </TTGlyph>
    <TTGlyph name="U" xMin="45" yMin="-13" xMax="697" yMax="648">
      <contour>
        <pt x="45" y="604" on="1"/>
        <pt x="45" y="648" on="1"/>
        <pt x="296" y="648" on="1"/>
        <pt x="296" y="604" on="1"/>
        <pt x="214" y="589" on="1"/>
        <pt x="214" y="278" on="1"/>
        <pt x="214" y="187" on="0"/>
        <pt x="243" y="92" on="0"/>
        <pt x="318" y="53" on="0"/>
        <pt x="390" y="53" on="1"/>
        <pt x="480" y="53" on="0"/>
        <pt x="550" y="162" on="0"/>
        <pt x="550" y="278" on="1"/>
        <pt x="550" y="587" on="1"/>
        <pt x="468" y="603" on="1"/>
        <pt x="468" y="648" on="1"/>
        <pt x="697" y="648" on="1"/>
        <pt x="697" y="603" on="1"/>
        <pt x="615" y="587" on="1"/>
        <pt x="615" y="278" on="1"/>
        <pt x="615" y="177" on="0"/>
        <pt x="572" y="52" on="0"/>
        <pt x="461" y="-13" on="0"/>
        <pt x="359" y="-13" on="1"/>
        <pt x="266" y="-13" on="0"/>
        <pt x="166" y="51" on="0"/>
        <pt x="127" y="175" on="0"/>
        <pt x="127" y="278" on="1"/>
        <pt x="127" y="589" on="1"/>
      </contour>
    </TTGlyph>
    <TTGlyph name="Uacute" xMin="45" yMin="-13" xMax="697" yMax="836">
      <contour>
        <pt x="297" y="716" on="1"/>
        <pt x="428" y="814" on="1"/>
        <pt x="440" y="823" on="0"/>
        <pt x="463" y="836" on="0"/>
        <pt x="470" y="836" on="1"/>
        <pt x="485" y="836" on="0"/>
        <pt x="509" y="800" on="0"/>
        <pt x="512" y="767" on="1"/>
        <pt x="319" y="681" on="1"/>
      </contour>
      <contour>
        <pt x="266" y="-13" on="0"/>
        <pt x="166" y="51" on="0"/>
        <pt x="127" y="175" on="0"/>
        <pt x="127" y="278" on="1"/>
        <pt x="127" y="589" on="1"/>
        <pt x="45" y="604" on="1"/>
        <pt x="45" y="648" on="1"/>
        <pt x="296" y="648" on="1"/>
        <pt x="296" y="604" on="1"/>
        <pt x="214" y="589" on="1"/>
        <pt x="214" y="278" on="1"/>
        <pt x="214" y="187" on="0"/>
        <pt x="243" y="92" on="0"/>
        <pt x="318" y="53" on="0"/>
        <pt x="390" y="53" on="1"/>
        <pt x="480" y="53" on="0"/>
        <pt x="550" y="162" on="0"/>
        <pt x="550" y="278" on="1"/>
        <pt x="550" y="587" on="1"/>
        <pt x="468" y="603" on="1"/>
        <pt x="468" y="648" on="1"/>
        <pt x="697" y="648" on="1"/>
        <pt x="697" y="603" on="1"/>
        <pt x="615" y="587" on="1"/>
        <pt x="615" y="278" on="1"/>
        <pt x="615" y="177" on="0"/>
        <pt x="572" y="52" on="0"/>
        <pt x="461" y="-13" on="0"/>
        <pt x="359" y="-13" on="1"/>
      </contour>
    </TTGlyph>
    <TTGlyph name="Ubreve" xMin="45" yMin="-13" xMax="697" yMax="821">
      <component glyphName=".ttfautohint" x="45" y="0" flags="0x0"/>
      <component glyphName="U" x="0" y="0" flags="0x0"/>
      <component glyphName="uni0306.case" x="505" y="0" flags="0x0"/>
    </TTGlyph>
    <TTGlyph name="Ucircumflex" xMin="45" yMin="-13" xMax="697" yMax="834">
      <contour>
        <pt x="305" y="780" on="1"/>
        <pt x="334" y="803" on="1"/>
        <pt x="350" y="817" on="0"/>
        <pt x="374" y="834" on="0"/>
        <pt x="381" y="834" on="1"/>
        <pt x="390" y="834" on="0"/>
        <pt x="412" y="819" on="0"/>
        <pt x="436" y="798" on="1"/>
        <pt x="444" y="792" on="0"/>
        <pt x="458" y="780" on="1"/>
        <pt x="532" y="719" on="1"/>
        <pt x="499" y="678" on="1"/>
        <pt x="377" y="743" on="1"/>
        <pt x="251" y="680" on="1"/>
        <pt x="226" y="716" on="1"/>
      </contour>
      <contour>
        <pt x="45" y="604" on="1"/>
        <pt x="45" y="648" on="1"/>
        <pt x="296" y="648" on="1"/>
        <pt x="296" y="604" on="1"/>
        <pt x="214" y="589" on="1"/>
        <pt x="214" y="278" on="1"/>
        <pt x="214" y="187" on="0"/>
        <pt x="243" y="92" on="0"/>
        <pt x="318" y="53" on="0"/>
        <pt x="390" y="53" on="1"/>
        <pt x="480" y="53" on="0"/>
        <pt x="550" y="162" on="0"/>
        <pt x="550" y="278" on="1"/>
        <pt x="550" y="587" on="1"/>
        <pt x="468" y="603" on="1"/>
        <pt x="468" y="648" on="1"/>
        <pt x="697" y="648" on="1"/>
        <pt x="697" y="603" on="1"/>
        <pt x="615" y="587" on="1"/>
        <pt x="615" y="278" on="1"/>
        <pt x="615" y="177" on="0"/>
        <pt x="572" y="52" on="0"/>
        <pt x="461" y="-13" on="0"/>
        <pt x="359" y="-13" on="1"/>
        <pt x="266" y="-13" on="0"/>
        <pt x="166" y="51" on="0"/>
        <pt x="127" y="175" on="0"/>
        <pt x="127" y="278" on="1"/>
        <pt x="127" y="589" on="1"/>
      </contour>
    </TTGlyph>
    <TTGlyph name="Udieresis" xMin="45" yMin="-13" xMax="697" yMax="819">
      <contour>
        <pt x="253" y="703" on="0"/>
        <pt x="225" y="734" on="0"/>
        <pt x="225" y="759" on="1"/>
        <pt x="225" y="784" on="0"/>
        <pt x="256" y="819" on="0"/>
        <pt x="280" y="819" on="1"/>
        <pt x="303" y="819" on="0"/>
        <pt x="331" y="790" on="0"/>
        <pt x="331" y="765" on="1"/>
        <pt x="331" y="739" on="0"/>
        <pt x="301" y="703" on="0"/>
        <pt x="276" y="703" on="1"/>
      </contour>
      <contour>
        <pt x="464" y="703" on="0"/>
        <pt x="436" y="734" on="0"/>
        <pt x="436" y="759" on="1"/>
        <pt x="436" y="784" on="0"/>
        <pt x="467" y="819" on="0"/>
        <pt x="491" y="819" on="1"/>
        <pt x="514" y="819" on="0"/>
        <pt x="542" y="790" on="0"/>
        <pt x="542" y="765" on="1"/>
        <pt x="542" y="739" on="0"/>
        <pt x="512" y="703" on="0"/>
        <pt x="487" y="703" on="1"/>
      </contour>
      <contour>
        <pt x="266" y="-13" on="0"/>
        <pt x="166" y="51" on="0"/>
        <pt x="127" y="175" on="0"/>
        <pt x="127" y="278" on="1"/>
        <pt x="127" y="589" on="1"/>
        <pt x="45" y="604" on="1"/>
        <pt x="45" y="648" on="1"/>
        <pt x="296" y="648" on="1"/>
        <pt x="296" y="604" on="1"/>
        <pt x="214" y="589" on="1"/>
        <pt x="214" y="278" on="1"/>
        <pt x="214" y="187" on="0"/>
        <pt x="243" y="92" on="0"/>
        <pt x="318" y="53" on="0"/>
        <pt x="390" y="53" on="1"/>
        <pt x="480" y="53" on="0"/>
        <pt x="550" y="162" on="0"/>
        <pt x="550" y="278" on="1"/>
        <pt x="550" y="587" on="1"/>
        <pt x="468" y="603" on="1"/>
        <pt x="468" y="648" on="1"/>
        <pt x="697" y="648" on="1"/>
        <pt x="697" y="603" on="1"/>
        <pt x="615" y="587" on="1"/>
        <pt x="615" y="278" on="1"/>
        <pt x="615" y="177" on="0"/>
        <pt x="572" y="52" on="0"/>
        <pt x="461" y="-13" on="0"/>
        <pt x="359" y="-13" on="1"/>
      </contour>
    </TTGlyph>
    <TTGlyph name="Ugrave" xMin="45" yMin="-13" xMax="697" yMax="836">
      <contour>
        <pt x="245" y="767" on="1"/>
        <pt x="248" y="800" on="0"/>
        <pt x="272" y="836" on="0"/>
        <pt x="287" y="836" on="1"/>
        <pt x="294" y="836" on="0"/>
        <pt x="317" y="823" on="0"/>
        <pt x="329" y="814" on="1"/>
        <pt x="460" y="716" on="1"/>
        <pt x="438" y="681" on="1"/>
      </contour>
      <contour>
        <pt x="266" y="-13" on="0"/>
        <pt x="166" y="51" on="0"/>
        <pt x="127" y="175" on="0"/>
        <pt x="127" y="278" on="1"/>
        <pt x="127" y="589" on="1"/>
        <pt x="45" y="604" on="1"/>
        <pt x="45" y="648" on="1"/>
        <pt x="296" y="648" on="1"/>
        <pt x="296" y="604" on="1"/>
        <pt x="214" y="589" on="1"/>
        <pt x="214" y="278" on="1"/>
        <pt x="214" y="187" on="0"/>
        <pt x="243" y="92" on="0"/>
        <pt x="318" y="53" on="0"/>
        <pt x="390" y="53" on="1"/>
        <pt x="480" y="53" on="0"/>
        <pt x="550" y="162" on="0"/>
        <pt x="550" y="278" on="1"/>
        <pt x="550" y="587" on="1"/>
        <pt x="468" y="603" on="1"/>
        <pt x="468" y="648" on="1"/>
        <pt x="697" y="648" on="1"/>
        <pt x="697" y="603" on="1"/>
        <pt x="615" y="587" on="1"/>
        <pt x="615" y="278" on="1"/>
        <pt x="615" y="177" on="0"/>
        <pt x="572" y="52" on="0"/>
        <pt x="461" y="-13" on="0"/>
        <pt x="359" y="-13" on="1"/>
      </contour>
    </TTGlyph>
    <TTGlyph name="Uhorn" xMin="45" yMin="-13" xMax="790" yMax="776">
      <contour>
        <pt x="266" y="-13" on="0"/>
        <pt x="166" y="51" on="0"/>
        <pt x="127" y="175" on="0"/>
        <pt x="127" y="278" on="1"/>
        <pt x="127" y="589" on="1"/>
        <pt x="45" y="604" on="1"/>
        <pt x="45" y="648" on="1"/>
        <pt x="296" y="648" on="1"/>
        <pt x="296" y="604" on="1"/>
        <pt x="214" y="589" on="1"/>
        <pt x="214" y="278" on="1"/>
        <pt x="214" y="187" on="0"/>
        <pt x="243" y="92" on="0"/>
        <pt x="318" y="53" on="0"/>
        <pt x="390" y="53" on="1"/>
        <pt x="480" y="53" on="0"/>
        <pt x="550" y="162" on="0"/>
        <pt x="550" y="278" on="1"/>
        <pt x="550" y="587" on="1"/>
        <pt x="468" y="603" on="1"/>
        <pt x="468" y="648" on="1"/>
        <pt x="661" y="648" on="1"/>
        <pt x="694" y="648" on="0"/>
        <pt x="724" y="665" on="0"/>
        <pt x="724" y="688" on="1"/>
        <pt x="724" y="700" on="0"/>
        <pt x="714" y="714" on="0"/>
        <pt x="703" y="722" on="1"/>
        <pt x="703" y="737" on="1"/>
        <pt x="758" y="776" on="1"/>
        <pt x="774" y="764" on="0"/>
        <pt x="790" y="741" on="0"/>
        <pt x="790" y="714" on="1"/>
        <pt x="790" y="696" on="0"/>
        <pt x="759" y="648" on="0"/>
        <pt x="681" y="600" on="0"/>
        <pt x="615" y="584" on="1"/>
        <pt x="615" y="278" on="1"/>
        <pt x="615" y="177" on="0"/>
        <pt x="572" y="52" on="0"/>
        <pt x="461" y="-13" on="0"/>
        <pt x="359" y="-13" on="1"/>
      </contour>
    </TTGlyph>
    <TTGlyph name="Uhungarumlaut" xMin="45" yMin="-13" xMax="697" yMax="838">
      <contour>
        <pt x="222" y="703" on="1"/>
        <pt x="301" y="806" on="1"/>
        <pt x="315" y="825" on="0"/>
        <pt x="336" y="838" on="0"/>
        <pt x="348" y="838" on="1"/>
        <pt x="362" y="838" on="0"/>
        <pt x="387" y="807" on="0"/>
        <pt x="394" y="778" on="1"/>
        <pt x="250" y="676" on="1"/>
      </contour>
      <contour>
        <pt x="406" y="703" on="1"/>
        <pt x="485" y="806" on="1"/>
        <pt x="499" y="825" on="0"/>
        <pt x="520" y="838" on="0"/>
        <pt x="532" y="838" on="1"/>
        <pt x="546" y="838" on="0"/>
        <pt x="571" y="807" on="0"/>
        <pt x="578" y="778" on="1"/>
        <pt x="434" y="676" on="1"/>
      </contour>
      <contour>
        <pt x="266" y="-13" on="0"/>
        <pt x="166" y="51" on="0"/>
        <pt x="127" y="175" on="0"/>
        <pt x="127" y="278" on="1"/>
        <pt x="127" y="589" on="1"/>
        <pt x="45" y="604" on="1"/>
        <pt x="45" y="648" on="1"/>
        <pt x="296" y="648" on="1"/>
        <pt x="296" y="604" on="1"/>
        <pt x="214" y="589" on="1"/>
        <pt x="214" y="278" on="1"/>
        <pt x="214" y="187" on="0"/>
        <pt x="243" y="92" on="0"/>
        <pt x="318" y="53" on="0"/>
        <pt x="390" y="53" on="1"/>
        <pt x="480" y="53" on="0"/>
        <pt x="550" y="162" on="0"/>
        <pt x="550" y="278" on="1"/>
        <pt x="550" y="587" on="1"/>
        <pt x="468" y="603" on="1"/>
        <pt x="468" y="648" on="1"/>
        <pt x="697" y="648" on="1"/>
        <pt x="697" y="603" on="1"/>
        <pt x="615" y="587" on="1"/>
        <pt x="615" y="278" on="1"/>
        <pt x="615" y="177" on="0"/>
        <pt x="572" y="52" on="0"/>
        <pt x="461" y="-13" on="0"/>
        <pt x="359" y="-13" on="1"/>
      </contour>
    </TTGlyph>
    <TTGlyph name="Umacron" xMin="45" yMin="-13" xMax="697" yMax="781">
      <contour>
        <pt x="550" y="781" on="1"/>
        <pt x="540" y="723" on="1"/>
        <pt x="208" y="723" on="1"/>
        <pt x="218" y="781" on="1"/>
      </contour>
      <contour>
        <pt x="45" y="604" on="1"/>
        <pt x="45" y="648" on="1"/>
        <pt x="296" y="648" on="1"/>
        <pt x="296" y="604" on="1"/>
        <pt x="214" y="589" on="1"/>
        <pt x="214" y="278" on="1"/>
        <pt x="214" y="187" on="0"/>
        <pt x="243" y="92" on="0"/>
        <pt x="318" y="53" on="0"/>
        <pt x="390" y="53" on="1"/>
        <pt x="480" y="53" on="0"/>
        <pt x="550" y="162" on="0"/>
        <pt x="550" y="278" on="1"/>
        <pt x="550" y="587" on="1"/>
        <pt x="468" y="603" on="1"/>
        <pt x="468" y="648" on="1"/>
        <pt x="697" y="648" on="1"/>
        <pt x="697" y="603" on="1"/>
        <pt x="615" y="587" on="1"/>
        <pt x="615" y="278" on="1"/>
        <pt x="615" y="177" on="0"/>
        <pt x="572" y="52" on="0"/>
        <pt x="461" y="-13" on="0"/>
        <pt x="359" y="-13" on="1"/>
        <pt x="266" y="-13" on="0"/>
        <pt x="166" y="51" on="0"/>
        <pt x="127" y="175" on="0"/>
        <pt x="127" y="278" on="1"/>
        <pt x="127" y="589" on="1"/>
      </contour>
    </TTGlyph>
    <TTGlyph name="Uogonek" xMin="45" yMin="-187" xMax="697" yMax="648">
      <contour>
        <pt x="411" y="-187" on="0"/>
        <pt x="365" y="-149" on="0"/>
        <pt x="365" y="-113" on="1"/>
        <pt x="365" y="-53" on="0"/>
        <pt x="427" y="-9" on="1"/>
        <pt x="399" y="-13" on="0"/>
        <pt x="359" y="-13" on="1"/>
        <pt x="266" y="-13" on="0"/>
        <pt x="166" y="51" on="0"/>
        <pt x="127" y="175" on="0"/>
        <pt x="127" y="278" on="1"/>
        <pt x="127" y="589" on="1"/>
        <pt x="45" y="604" on="1"/>
        <pt x="45" y="648" on="1"/>
        <pt x="296" y="648" on="1"/>
        <pt x="296" y="604" on="1"/>
        <pt x="214" y="589" on="1"/>
        <pt x="214" y="278" on="1"/>
        <pt x="214" y="187" on="0"/>
        <pt x="243" y="92" on="0"/>
        <pt x="318" y="53" on="0"/>
        <pt x="390" y="53" on="1"/>
        <pt x="480" y="53" on="0"/>
        <pt x="550" y="162" on="0"/>
        <pt x="550" y="278" on="1"/>
        <pt x="550" y="587" on="1"/>
        <pt x="468" y="603" on="1"/>
        <pt x="468" y="648" on="1"/>
        <pt x="697" y="648" on="1"/>
        <pt x="697" y="603" on="1"/>
        <pt x="615" y="587" on="1"/>
        <pt x="615" y="278" on="1"/>
        <pt x="615" y="171" on="0"/>
        <pt x="566" y="42" on="0"/>
        <pt x="504" y="13" on="1"/>
        <pt x="431" y="-39" on="0"/>
        <pt x="431" y="-83" on="1"/>
        <pt x="431" y="-127" on="0"/>
        <pt x="474" y="-127" on="1"/>
        <pt x="495" y="-127" on="0"/>
        <pt x="531" y="-106" on="1"/>
        <pt x="549" y="-136" on="1"/>
        <pt x="532" y="-156" on="0"/>
        <pt x="477" y="-187" on="0"/>
        <pt x="448" y="-187" on="1"/>
      </contour>
    </TTGlyph>
    <TTGlyph name="Uring" xMin="45" yMin="-13" xMax="697" yMax="823">
      <contour>
        <pt x="294" y="777" on="0"/>
        <pt x="346" y="823" on="0"/>
        <pt x="387" y="823" on="1"/>
        <pt x="427" y="823" on="0"/>
        <pt x="476" y="783" on="0"/>
        <pt x="476" y="740" on="1"/>
        <pt x="476" y="695" on="0"/>
        <pt x="422" y="649" on="0"/>
        <pt x="381" y="649" on="1"/>
        <pt x="340" y="649" on="0"/>
        <pt x="294" y="689" on="0"/>
        <pt x="294" y="733" on="1"/>
      </contour>
      <contour>
        <pt x="410" y="692" on="0"/>
        <pt x="428" y="711" on="0"/>
        <pt x="428" y="735" on="1"/>
        <pt x="428" y="759" on="0"/>
        <pt x="412" y="780" on="0"/>
        <pt x="386" y="780" on="1"/>
        <pt x="362" y="780" on="0"/>
        <pt x="342" y="761" on="0"/>
        <pt x="342" y="737" on="1"/>
        <pt x="342" y="713" on="0"/>
        <pt x="359" y="692" on="0"/>
        <pt x="386" y="692" on="1"/>
      </contour>
      <contour>
        <pt x="45" y="604" on="1"/>
        <pt x="45" y="648" on="1"/>
        <pt x="296" y="648" on="1"/>
        <pt x="296" y="604" on="1"/>
        <pt x="214" y="589" on="1"/>
        <pt x="214" y="278" on="1"/>
        <pt x="214" y="187" on="0"/>
        <pt x="243" y="92" on="0"/>
        <pt x="318" y="53" on="0"/>
        <pt x="390" y="53" on="1"/>
        <pt x="480" y="53" on="0"/>
        <pt x="550" y="162" on="0"/>
        <pt x="550" y="278" on="1"/>
        <pt x="550" y="587" on="1"/>
        <pt x="468" y="603" on="1"/>
        <pt x="468" y="648" on="1"/>
        <pt x="697" y="648" on="1"/>
        <pt x="697" y="603" on="1"/>
        <pt x="615" y="587" on="1"/>
        <pt x="615" y="278" on="1"/>
        <pt x="615" y="177" on="0"/>
        <pt x="572" y="52" on="0"/>
        <pt x="461" y="-13" on="0"/>
        <pt x="359" y="-13" on="1"/>
        <pt x="266" y="-13" on="0"/>
        <pt x="166" y="51" on="0"/>
        <pt x="127" y="175" on="0"/>
        <pt x="127" y="278" on="1"/>
        <pt x="127" y="589" on="1"/>
      </contour>
    </TTGlyph>
    <TTGlyph name="Utilde" xMin="45" yMin="-13" xMax="697" yMax="806">
      <component glyphName=".ttfautohint" x="45" y="0" flags="0x0"/>
      <component glyphName="U" x="0" y="0" flags="0x0"/>
      <component glyphName="tildecomb.case" x="541" y="0" flags="0x0"/>
    </TTGlyph>
    <TTGlyph name="V" xMin="-9" yMin="-5" xMax="611" yMax="648">
      <contour>
        <pt x="52" y="591" on="1"/>
        <pt x="-9" y="607" on="1"/>
        <pt x="-9" y="648" on="1"/>
        <pt x="231" y="648" on="1"/>
        <pt x="231" y="607" on="1"/>
        <pt x="156" y="591" on="1"/>
        <pt x="156" y="576" on="1"/>
        <pt x="308" y="155" on="1"/>
        <pt x="320" y="121" on="1"/>
        <pt x="334" y="159" on="1"/>
        <pt x="480" y="573" on="1"/>
        <pt x="480" y="591" on="1"/>
        <pt x="400" y="607" on="1"/>
        <pt x="400" y="648" on="1"/>
        <pt x="611" y="648" on="1"/>
        <pt x="611" y="607" on="1"/>
        <pt x="552" y="591" on="1"/>
        <pt x="332" y="-5" on="1"/>
        <pt x="283" y="-5" on="1"/>
      </contour>
    </TTGlyph>
    <TTGlyph name="W" xMin="0" yMin="-5" xMax="945" yMax="648">
      <contour>
        <pt x="61" y="591" on="1"/>
        <pt x="0" y="607" on="1"/>
        <pt x="0" y="648" on="1"/>
        <pt x="240" y="648" on="1"/>
        <pt x="240" y="607" on="1"/>
        <pt x="165" y="591" on="1"/>
        <pt x="165" y="573" on="1"/>
        <pt x="291" y="152" on="1"/>
        <pt x="301" y="120" on="1"/>
        <pt x="304" y="120" on="1"/>
        <pt x="315" y="153" on="1"/>
        <pt x="442" y="515" on="1"/>
        <pt x="414" y="591" on="1"/>
        <pt x="340" y="607" on="1"/>
        <pt x="340" y="648" on="1"/>
        <pt x="593" y="648" on="1"/>
        <pt x="593" y="607" on="1"/>
        <pt x="518" y="591" on="1"/>
        <pt x="518" y="573" on="1"/>
        <pt x="670" y="153" on="1"/>
        <pt x="681" y="122" on="1"/>
        <pt x="686" y="122" on="1"/>
        <pt x="695" y="153" on="1"/>
        <pt x="814" y="573" on="1"/>
        <pt x="814" y="591" on="1"/>
        <pt x="734" y="607" on="1"/>
        <pt x="734" y="648" on="1"/>
        <pt x="945" y="648" on="1"/>
        <pt x="945" y="607" on="1"/>
        <pt x="886" y="591" on="1"/>
        <pt x="702" y="-5" on="1"/>
        <pt x="643" y="-5" on="1"/>
        <pt x="483" y="405" on="1"/>
        <pt x="477" y="421" on="1"/>
        <pt x="470" y="421" on="1"/>
        <pt x="463" y="402" on="1"/>
        <pt x="315" y="-5" on="1"/>
        <pt x="256" y="-5" on="1"/>
      </contour>
    </TTGlyph>
    <TTGlyph name="Wacute" xMin="0" yMin="-5" xMax="945" yMax="836">
      <component glyphName=".ttfautohint" x="0" y="0" flags="0x0"/>
      <component glyphName="W" x="0" y="0" flags="0x0"/>
      <component glyphName="acutecomb.case" x="630" y="0" flags="0x0"/>
    </TTGlyph>
    <TTGlyph name="Wcircumflex" xMin="0" yMin="-5" xMax="945" yMax="834">
      <component glyphName=".ttfautohint" x="0" y="0" flags="0x0"/>
      <component glyphName="W" x="0" y="0" flags="0x0"/>
      <component glyphName="uni0302.case" x="626" y="0" flags="0x0"/>
    </TTGlyph>
    <TTGlyph name="Wdieresis" xMin="0" yMin="-5" xMax="945" yMax="802">
      <component glyphName=".ttfautohint" x="0" y="0" flags="0x0"/>
      <component glyphName="W" x="0" y="0" flags="0x0"/>
      <component glyphName="uni0308.case" x="631" y="0" flags="0x0"/>
    </TTGlyph>
    <TTGlyph name="Wgrave" xMin="0" yMin="-5" xMax="945" yMax="836">
      <component glyphName=".ttfautohint" x="0" y="0" flags="0x0"/>
      <component glyphName="W" x="0" y="0" flags="0x0"/>
      <component glyphName="gravecomb.case" x="545" y="0" flags="0x0"/>
    </TTGlyph>
    <TTGlyph name="X" xMin="5" yMin="0" xMax="608" yMax="648">
      <contour>
        <pt x="68" y="58" on="1"/>
        <pt x="251" y="323" on="1"/>
        <pt x="71" y="582" on="1"/>
        <pt x="8" y="603" on="1"/>
        <pt x="8" y="648" on="1"/>
        <pt x="250" y="648" on="1"/>
        <pt x="250" y="603" on="1"/>
        <pt x="190" y="590" on="1"/>
        <pt x="190" y="571" on="1"/>
        <pt x="312" y="394" on="1"/>
        <pt x="440" y="574" on="1"/>
        <pt x="440" y="592" on="1"/>
        <pt x="371" y="605" on="1"/>
        <pt x="371" y="648" on="1"/>
        <pt x="592" y="648" on="1"/>
        <pt x="592" y="606" on="1"/>
        <pt x="526" y="592" on="1"/>
        <pt x="346" y="342" on="1"/>
        <pt x="537" y="59" on="1"/>
        <pt x="608" y="45" on="1"/>
        <pt x="608" y="0" on="1"/>
        <pt x="356" y="0" on="1"/>
        <pt x="356" y="45" on="1"/>
        <pt x="426" y="59" on="1"/>
        <pt x="426" y="71" on="1"/>
        <pt x="286" y="272" on="1"/>
        <pt x="148" y="74" on="1"/>
        <pt x="148" y="56" on="1"/>
        <pt x="213" y="43" on="1"/>
        <pt x="213" y="0" on="1"/>
        <pt x="5" y="0" on="1"/>
        <pt x="5" y="45" on="1"/>
      </contour>
    </TTGlyph>
    <TTGlyph name="Y" xMin="-1" yMin="0" xMax="598" yMax="648">
      <contour>
        <pt x="261" y="59" on="1"/>
        <pt x="261" y="232" on="1"/>
        <pt x="61" y="591" on="1"/>
        <pt x="-1" y="607" on="1"/>
        <pt x="-1" y="648" on="1"/>
        <pt x="240" y="648" on="1"/>
        <pt x="240" y="607" on="1"/>
        <pt x="165" y="591" on="1"/>
        <pt x="165" y="573" on="1"/>
        <pt x="310" y="299" on="1"/>
        <pt x="324" y="299" on="1"/>
        <pt x="466" y="573" on="1"/>
        <pt x="466" y="591" on="1"/>
        <pt x="387" y="607" on="1"/>
        <pt x="387" y="648" on="1"/>
        <pt x="598" y="648" on="1"/>
        <pt x="598" y="607" on="1"/>
        <pt x="538" y="591" on="1"/>
        <pt x="348" y="244" on="1"/>
        <pt x="348" y="59" on="1"/>
        <pt x="430" y="44" on="1"/>
        <pt x="430" y="0" on="1"/>
        <pt x="179" y="0" on="1"/>
        <pt x="179" y="44" on="1"/>
      </contour>
    </TTGlyph>
    <TTGlyph name="Y.loclGUA" xMin="45" yMin="-14" xMax="668" yMax="648">
      <contour>
        <pt x="668" y="648" on="1"/>
        <pt x="668" y="604" on="1"/>
        <pt x="595" y="589" on="1"/>
        <pt x="595" y="251" on="1"/>
        <pt x="595" y="112" on="0"/>
        <pt x="465" y="-14" on="0"/>
        <pt x="341" y="-14" on="1"/>
        <pt x="283" y="-14" on="0"/>
        <pt x="178" y="13" on="0"/>
        <pt x="123" y="43" on="1"/>
        <pt x="123" y="187" on="1"/>
        <pt x="171" y="187" on="1"/>
        <pt x="200" y="77" on="1"/>
        <pt x="273" y="37" on="0"/>
        <pt x="341" y="37" on="1"/>
        <pt x="430" y="37" on="0"/>
        <pt x="508" y="149" on="0"/>
        <pt x="508" y="239" on="1"/>
        <pt x="508" y="259" on="1"/>
        <pt x="467" y="228" on="0"/>
        <pt x="383" y="199" on="0"/>
        <pt x="331" y="199" on="1"/>
        <pt x="217" y="199" on="0"/>
        <pt x="127" y="324" on="0"/>
        <pt x="127" y="445" on="1"/>
        <pt x="127" y="589" on="1"/>
        <pt x="45" y="604" on="1"/>
        <pt x="45" y="648" on="1"/>
        <pt x="296" y="648" on="1"/>
        <pt x="296" y="604" on="1"/>
        <pt x="214" y="589" on="1"/>
        <pt x="214" y="465" on="1"/>
        <pt x="214" y="366" on="0"/>
        <pt x="273" y="262" on="0"/>
        <pt x="352" y="262" on="1"/>
        <pt x="441" y="262" on="0"/>
        <pt x="508" y="337" on="1"/>
        <pt x="508" y="587" on="1"/>
        <pt x="413" y="604" on="1"/>
        <pt x="413" y="648" on="1"/>
      </contour>
    </TTGlyph>
    <TTGlyph name="Yacute" xMin="-5" yMin="0" xMax="594" yMax="836">
      <contour>
        <pt x="222" y="716" on="1"/>
        <pt x="353" y="814" on="1"/>
        <pt x="365" y="823" on="0"/>
        <pt x="388" y="836" on="0"/>
        <pt x="395" y="836" on="1"/>
        <pt x="410" y="836" on="0"/>
        <pt x="434" y="800" on="0"/>
        <pt x="437" y="767" on="1"/>
        <pt x="244" y="681" on="1"/>
      </contour>
      <contour>
        <pt x="175" y="44" on="1"/>
        <pt x="257" y="59" on="1"/>
        <pt x="257" y="232" on="1"/>
        <pt x="57" y="591" on="1"/>
        <pt x="-5" y="607" on="1"/>
        <pt x="-5" y="648" on="1"/>
        <pt x="236" y="648" on="1"/>
        <pt x="236" y="607" on="1"/>
        <pt x="161" y="591" on="1"/>
        <pt x="161" y="573" on="1"/>
        <pt x="306" y="299" on="1"/>
        <pt x="320" y="299" on="1"/>
        <pt x="462" y="573" on="1"/>
        <pt x="462" y="591" on="1"/>
        <pt x="383" y="607" on="1"/>
        <pt x="383" y="648" on="1"/>
        <pt x="594" y="648" on="1"/>
        <pt x="594" y="607" on="1"/>
        <pt x="534" y="591" on="1"/>
        <pt x="344" y="244" on="1"/>
        <pt x="344" y="59" on="1"/>
        <pt x="426" y="44" on="1"/>
        <pt x="426" y="0" on="1"/>
        <pt x="175" y="0" on="1"/>
      </contour>
    </TTGlyph>
    <TTGlyph name="Yacute.loclGUA" xMin="45" yMin="-14" xMax="668" yMax="836">
      <component glyphName=".ttfautohint" x="45" y="0" flags="0x0"/>
      <component glyphName="Y.loclGUA" x="0" y="0" flags="0x0"/>
      <component glyphName="acutecomb.case" x="523" y="0" flags="0x0"/>
    </TTGlyph>
    <TTGlyph name="Ycircumflex" xMin="-1" yMin="0" xMax="598" yMax="834">
      <component glyphName=".ttfautohint" x="0" y="0" flags="0x0"/>
      <component glyphName="Y" x="0" y="0" flags="0x0"/>
      <component glyphName="uni0302.case" x="467" y="0" flags="0x0"/>
    </TTGlyph>
    <TTGlyph name="Ycircumflex.loclGUA" xMin="45" yMin="-14" xMax="668" yMax="834">
      <component glyphName=".ttfautohint" x="45" y="0" flags="0x0"/>
      <component glyphName="Y.loclGUA" x="0" y="0" flags="0x0"/>
      <component glyphName="uni0302.case" x="519" y="0" flags="0x0"/>
    </TTGlyph>
    <TTGlyph name="Ydieresis" xMin="-5" yMin="0" xMax="594" yMax="810">
      <contour>
        <pt x="179" y="694" on="0"/>
        <pt x="151" y="725" on="0"/>
        <pt x="151" y="750" on="1"/>
        <pt x="151" y="775" on="0"/>
        <pt x="182" y="810" on="0"/>
        <pt x="206" y="810" on="1"/>
        <pt x="229" y="810" on="0"/>
        <pt x="257" y="781" on="0"/>
        <pt x="257" y="756" on="1"/>
        <pt x="257" y="730" on="0"/>
        <pt x="227" y="694" on="0"/>
        <pt x="202" y="694" on="1"/>
      </contour>
      <contour>
        <pt x="390" y="694" on="0"/>
        <pt x="362" y="725" on="0"/>
        <pt x="362" y="750" on="1"/>
        <pt x="362" y="775" on="0"/>
        <pt x="393" y="810" on="0"/>
        <pt x="417" y="810" on="1"/>
        <pt x="440" y="810" on="0"/>
        <pt x="468" y="781" on="0"/>
        <pt x="468" y="756" on="1"/>
        <pt x="468" y="730" on="0"/>
        <pt x="438" y="694" on="0"/>
        <pt x="413" y="694" on="1"/>
      </contour>
      <contour>
        <pt x="257" y="59" on="1"/>
        <pt x="257" y="232" on="1"/>
        <pt x="57" y="591" on="1"/>
        <pt x="-5" y="607" on="1"/>
        <pt x="-5" y="648" on="1"/>
        <pt x="236" y="648" on="1"/>
        <pt x="236" y="607" on="1"/>
        <pt x="161" y="591" on="1"/>
        <pt x="161" y="573" on="1"/>
        <pt x="306" y="299" on="1"/>
        <pt x="320" y="299" on="1"/>
        <pt x="462" y="573" on="1"/>
        <pt x="462" y="591" on="1"/>
        <pt x="383" y="607" on="1"/>
        <pt x="383" y="648" on="1"/>
        <pt x="594" y="648" on="1"/>
        <pt x="594" y="607" on="1"/>
        <pt x="534" y="591" on="1"/>
        <pt x="344" y="244" on="1"/>
        <pt x="344" y="59" on="1"/>
        <pt x="426" y="44" on="1"/>
        <pt x="426" y="0" on="1"/>
        <pt x="175" y="0" on="1"/>
        <pt x="175" y="44" on="1"/>
      </contour>
    </TTGlyph>
    <TTGlyph name="Ydieresis.loclGUA" xMin="45" yMin="-14" xMax="668" yMax="802">
      <component glyphName=".ttfautohint" x="45" y="0" flags="0x0"/>
      <component glyphName="Y.loclGUA" x="0" y="0" flags="0x0"/>
      <component glyphName="uni0308.case" x="524" y="0" flags="0x0"/>
    </TTGlyph>
    <TTGlyph name="Ygrave" xMin="-1" yMin="0" xMax="598" yMax="836">
      <component glyphName=".ttfautohint" x="0" y="0" flags="0x0"/>
      <component glyphName="Y" x="0" y="0" flags="0x0"/>
      <component glyphName="gravecomb.case" x="386" y="0" flags="0x0"/>
    </TTGlyph>
    <TTGlyph name="Ygrave.loclGUA" xMin="45" yMin="-14" xMax="668" yMax="836">
      <component glyphName=".ttfautohint" x="45" y="0" flags="0x0"/>
      <component glyphName="Y.loclGUA" x="0" y="0" flags="0x0"/>
      <component glyphName="gravecomb.case" x="438" y="0" flags="0x0"/>
    </TTGlyph>
    <TTGlyph name="Z" xMin="35" yMin="0" xMax="524" yMax="648">
      <contour>
        <pt x="395" y="570" on="1"/>
        <pt x="395" y="589" on="1"/>
        <pt x="123" y="589" on="1"/>
        <pt x="94" y="485" on="1"/>
        <pt x="45" y="485" on="1"/>
        <pt x="45" y="648" on="1"/>
        <pt x="515" y="648" on="1"/>
        <pt x="515" y="582" on="1"/>
        <pt x="145" y="71" on="1"/>
        <pt x="145" y="59" on="1"/>
        <pt x="446" y="59" on="1"/>
        <pt x="475" y="163" on="1"/>
        <pt x="524" y="163" on="1"/>
        <pt x="524" y="0" on="1"/>
        <pt x="35" y="0" on="1"/>
        <pt x="35" y="59" on="1"/>
      </contour>
    </TTGlyph>
    <TTGlyph name="Zacute" xMin="35" yMin="0" xMax="524" yMax="836">
      <contour>
        <pt x="194" y="716" on="1"/>
        <pt x="325" y="814" on="1"/>
        <pt x="337" y="823" on="0"/>
        <pt x="360" y="836" on="0"/>
        <pt x="367" y="836" on="1"/>
        <pt x="382" y="836" on="0"/>
        <pt x="406" y="800" on="0"/>
        <pt x="409" y="767" on="1"/>
        <pt x="216" y="681" on="1"/>
      </contour>
      <contour>
        <pt x="35" y="59" on="1"/>
        <pt x="395" y="570" on="1"/>
        <pt x="395" y="589" on="1"/>
        <pt x="123" y="589" on="1"/>
        <pt x="94" y="485" on="1"/>
        <pt x="45" y="485" on="1"/>
        <pt x="45" y="648" on="1"/>
        <pt x="515" y="648" on="1"/>
        <pt x="515" y="582" on="1"/>
        <pt x="145" y="71" on="1"/>
        <pt x="145" y="59" on="1"/>
        <pt x="446" y="59" on="1"/>
        <pt x="475" y="163" on="1"/>
        <pt x="524" y="163" on="1"/>
        <pt x="524" y="0" on="1"/>
        <pt x="35" y="0" on="1"/>
      </contour>
    </TTGlyph>
    <TTGlyph name="Zacute.loclPLK" xMin="35" yMin="0" xMax="524" yMax="862">
      <contour>
        <pt x="254" y="692" on="1"/>
        <pt x="325" y="822" on="1"/>
        <pt x="337" y="843" on="0"/>
        <pt x="353" y="862" on="0"/>
        <pt x="364" y="862" on="1"/>
        <pt x="377" y="862" on="0"/>
        <pt x="407" y="838" on="0"/>
        <pt x="421" y="814" on="1"/>
        <pt x="290" y="666" on="1"/>
      </contour>
      <contour>
        <pt x="395" y="570" on="1"/>
        <pt x="395" y="589" on="1"/>
        <pt x="123" y="589" on="1"/>
        <pt x="94" y="485" on="1"/>
        <pt x="45" y="485" on="1"/>
        <pt x="45" y="648" on="1"/>
        <pt x="515" y="648" on="1"/>
        <pt x="515" y="582" on="1"/>
        <pt x="145" y="71" on="1"/>
        <pt x="145" y="59" on="1"/>
        <pt x="446" y="59" on="1"/>
        <pt x="475" y="163" on="1"/>
        <pt x="524" y="163" on="1"/>
        <pt x="524" y="0" on="1"/>
        <pt x="35" y="0" on="1"/>
        <pt x="35" y="59" on="1"/>
      </contour>
    </TTGlyph>
    <TTGlyph name="Zcaron" xMin="35" yMin="0" xMax="524" yMax="834">
      <contour>
        <pt x="282" y="769" on="1"/>
        <pt x="408" y="832" on="1"/>
        <pt x="433" y="796" on="1"/>
        <pt x="354" y="732" on="1"/>
        <pt x="325" y="709" on="1"/>
        <pt x="309" y="695" on="0"/>
        <pt x="285" y="678" on="0"/>
        <pt x="278" y="678" on="1"/>
        <pt x="269" y="678" on="0"/>
        <pt x="247" y="693" on="0"/>
        <pt x="223" y="714" on="1"/>
        <pt x="215" y="720" on="0"/>
        <pt x="201" y="732" on="1"/>
        <pt x="127" y="793" on="1"/>
        <pt x="160" y="834" on="1"/>
      </contour>
      <contour>
        <pt x="395" y="570" on="1"/>
        <pt x="395" y="589" on="1"/>
        <pt x="123" y="589" on="1"/>
        <pt x="94" y="485" on="1"/>
        <pt x="45" y="485" on="1"/>
        <pt x="45" y="648" on="1"/>
        <pt x="515" y="648" on="1"/>
        <pt x="515" y="582" on="1"/>
        <pt x="145" y="71" on="1"/>
        <pt x="145" y="59" on="1"/>
        <pt x="446" y="59" on="1"/>
        <pt x="475" y="163" on="1"/>
        <pt x="524" y="163" on="1"/>
        <pt x="524" y="0" on="1"/>
        <pt x="35" y="0" on="1"/>
        <pt x="35" y="59" on="1"/>
      </contour>
    </TTGlyph>
    <TTGlyph name="Zdotaccent" xMin="35" yMin="0" xMax="524" yMax="815">
      <contour>
        <pt x="247" y="687" on="0"/>
        <pt x="216" y="721" on="0"/>
        <pt x="216" y="749" on="1"/>
        <pt x="216" y="776" on="0"/>
        <pt x="251" y="815" on="0"/>
        <pt x="277" y="815" on="1"/>
        <pt x="303" y="815" on="0"/>
        <pt x="333" y="783" on="0"/>
        <pt x="333" y="755" on="1"/>
        <pt x="333" y="727" on="0"/>
        <pt x="300" y="687" on="0"/>
        <pt x="272" y="687" on="1"/>
      </contour>
      <contour>
        <pt x="395" y="570" on="1"/>
        <pt x="395" y="589" on="1"/>
        <pt x="123" y="589" on="1"/>
        <pt x="94" y="485" on="1"/>
        <pt x="45" y="485" on="1"/>
        <pt x="45" y="648" on="1"/>
        <pt x="515" y="648" on="1"/>
        <pt x="515" y="582" on="1"/>
        <pt x="145" y="71" on="1"/>
        <pt x="145" y="59" on="1"/>
        <pt x="446" y="59" on="1"/>
        <pt x="475" y="163" on="1"/>
        <pt x="524" y="163" on="1"/>
        <pt x="524" y="0" on="1"/>
        <pt x="35" y="0" on="1"/>
        <pt x="35" y="59" on="1"/>
      </contour>
    </TTGlyph>
    <TTGlyph name="a" xMin="38" yMin="-7" xMax="460" yMax="504">
      <contour>
        <pt x="108" y="-7" on="0"/>
        <pt x="38" y="63" on="0"/>
        <pt x="38" y="117" on="1"/>
        <pt x="38" y="243" on="0"/>
        <pt x="217" y="268" on="1"/>
        <pt x="307" y="281" on="1"/>
        <pt x="307" y="356" on="1"/>
        <pt x="307" y="440" on="0"/>
        <pt x="209" y="440" on="1"/>
        <pt x="187" y="440" on="0"/>
        <pt x="152" y="433" on="0"/>
        <pt x="147" y="432" on="1"/>
        <pt x="132" y="340" on="1"/>
        <pt x="132" y="339" on="0"/>
        <pt x="114" y="333" on="0"/>
        <pt x="100" y="333" on="1"/>
        <pt x="82" y="333" on="0"/>
        <pt x="54" y="359" on="0"/>
        <pt x="54" y="379" on="1"/>
        <pt x="54" y="417" on="0"/>
        <pt x="128" y="474" on="0"/>
        <pt x="227" y="504" on="0"/>
        <pt x="258" y="504" on="1"/>
        <pt x="321" y="504" on="0"/>
        <pt x="389" y="439" on="0"/>
        <pt x="389" y="389" on="1"/>
        <pt x="389" y="68" on="1"/>
        <pt x="460" y="54" on="1"/>
        <pt x="460" y="16" on="1"/>
        <pt x="456" y="14" on="0"/>
        <pt x="428" y="5" on="0"/>
        <pt x="384" y="-4" on="0"/>
        <pt x="360" y="-4" on="1"/>
        <pt x="316" y="-4" on="0"/>
        <pt x="312" y="42" on="1"/>
        <pt x="308" y="42" on="1"/>
        <pt x="295" y="28" on="0"/>
        <pt x="222" y="-7" on="0"/>
        <pt x="180" y="-7" on="1"/>
      </contour>
      <contour>
        <pt x="240" y="56" on="0"/>
        <pt x="280" y="64" on="0"/>
        <pt x="304" y="73" on="0"/>
        <pt x="307" y="74" on="1"/>
        <pt x="307" y="233" on="1"/>
        <pt x="212" y="226" on="0"/>
        <pt x="126" y="179" on="0"/>
        <pt x="126" y="132" on="1"/>
        <pt x="126" y="100" on="0"/>
        <pt x="175" y="56" on="0"/>
        <pt x="218" y="56" on="1"/>
      </contour>
    </TTGlyph>
    <TTGlyph name="aacute" xMin="33" yMin="-7" xMax="455" yMax="717">
      <contour>
        <pt x="138" y="565" on="1"/>
        <pt x="247" y="686" on="1"/>
        <pt x="262" y="702" on="0"/>
        <pt x="279" y="717" on="0"/>
        <pt x="289" y="717" on="1"/>
        <pt x="303" y="717" on="0"/>
        <pt x="331" y="684" on="0"/>
        <pt x="340" y="655" on="1"/>
        <pt x="166" y="535" on="1"/>
      </contour>
      <contour>
        <pt x="103" y="-7" on="0"/>
        <pt x="33" y="63" on="0"/>
        <pt x="33" y="117" on="1"/>
        <pt x="33" y="243" on="0"/>
        <pt x="212" y="268" on="1"/>
        <pt x="302" y="281" on="1"/>
        <pt x="302" y="356" on="1"/>
        <pt x="302" y="440" on="0"/>
        <pt x="204" y="440" on="1"/>
        <pt x="182" y="440" on="0"/>
        <pt x="147" y="433" on="0"/>
        <pt x="142" y="432" on="1"/>
        <pt x="127" y="340" on="1"/>
        <pt x="127" y="339" on="0"/>
        <pt x="109" y="333" on="0"/>
        <pt x="95" y="333" on="1"/>
        <pt x="77" y="333" on="0"/>
        <pt x="49" y="359" on="0"/>
        <pt x="49" y="379" on="1"/>
        <pt x="49" y="417" on="0"/>
        <pt x="123" y="474" on="0"/>
        <pt x="222" y="504" on="0"/>
        <pt x="253" y="504" on="1"/>
        <pt x="316" y="504" on="0"/>
        <pt x="384" y="439" on="0"/>
        <pt x="384" y="389" on="1"/>
        <pt x="384" y="68" on="1"/>
        <pt x="455" y="54" on="1"/>
        <pt x="455" y="16" on="1"/>
        <pt x="451" y="14" on="0"/>
        <pt x="423" y="5" on="0"/>
        <pt x="379" y="-4" on="0"/>
        <pt x="355" y="-4" on="1"/>
        <pt x="311" y="-4" on="0"/>
        <pt x="307" y="42" on="1"/>
        <pt x="303" y="42" on="1"/>
        <pt x="290" y="28" on="0"/>
        <pt x="217" y="-7" on="0"/>
        <pt x="175" y="-7" on="1"/>
      </contour>
      <contour>
        <pt x="235" y="56" on="0"/>
        <pt x="275" y="64" on="0"/>
        <pt x="299" y="73" on="0"/>
        <pt x="302" y="74" on="1"/>
        <pt x="302" y="233" on="1"/>
        <pt x="207" y="226" on="0"/>
        <pt x="121" y="179" on="0"/>
        <pt x="121" y="132" on="1"/>
        <pt x="121" y="100" on="0"/>
        <pt x="170" y="56" on="0"/>
        <pt x="213" y="56" on="1"/>
      </contour>
    </TTGlyph>
    <TTGlyph name="abreve" xMin="33" yMin="-7" xMax="455" yMax="708">
      <contour>
        <pt x="159" y="553" on="0"/>
        <pt x="91" y="615" on="0"/>
        <pt x="70" y="681" on="0"/>
        <pt x="70" y="693" on="1"/>
        <pt x="121" y="706" on="1"/>
        <pt x="121" y="699" on="0"/>
        <pt x="137" y="657" on="0"/>
        <pt x="185" y="618" on="0"/>
        <pt x="230" y="618" on="1"/>
        <pt x="274" y="618" on="0"/>
        <pt x="322" y="658" on="0"/>
        <pt x="338" y="701" on="0"/>
        <pt x="338" y="708" on="1"/>
        <pt x="372" y="700" on="1"/>
        <pt x="372" y="686" on="0"/>
        <pt x="353" y="618" on="0"/>
        <pt x="287" y="553" on="0"/>
        <pt x="223" y="553" on="1"/>
      </contour>
      <contour>
        <pt x="103" y="-7" on="0"/>
        <pt x="33" y="63" on="0"/>
        <pt x="33" y="117" on="1"/>
        <pt x="33" y="243" on="0"/>
        <pt x="212" y="268" on="1"/>
        <pt x="302" y="281" on="1"/>
        <pt x="302" y="356" on="1"/>
        <pt x="302" y="440" on="0"/>
        <pt x="204" y="440" on="1"/>
        <pt x="182" y="440" on="0"/>
        <pt x="147" y="433" on="0"/>
        <pt x="142" y="432" on="1"/>
        <pt x="127" y="340" on="1"/>
        <pt x="127" y="339" on="0"/>
        <pt x="109" y="333" on="0"/>
        <pt x="95" y="333" on="1"/>
        <pt x="77" y="333" on="0"/>
        <pt x="49" y="359" on="0"/>
        <pt x="49" y="379" on="1"/>
        <pt x="49" y="417" on="0"/>
        <pt x="123" y="474" on="0"/>
        <pt x="222" y="504" on="0"/>
        <pt x="253" y="504" on="1"/>
        <pt x="316" y="504" on="0"/>
        <pt x="384" y="439" on="0"/>
        <pt x="384" y="389" on="1"/>
        <pt x="384" y="68" on="1"/>
        <pt x="455" y="54" on="1"/>
        <pt x="455" y="16" on="1"/>
        <pt x="451" y="14" on="0"/>
        <pt x="423" y="5" on="0"/>
        <pt x="379" y="-4" on="0"/>
        <pt x="355" y="-4" on="1"/>
        <pt x="311" y="-4" on="0"/>
        <pt x="307" y="42" on="1"/>
        <pt x="303" y="42" on="1"/>
        <pt x="290" y="28" on="0"/>
        <pt x="217" y="-7" on="0"/>
        <pt x="175" y="-7" on="1"/>
      </contour>
      <contour>
        <pt x="235" y="56" on="0"/>
        <pt x="275" y="64" on="0"/>
        <pt x="299" y="73" on="0"/>
        <pt x="302" y="74" on="1"/>
        <pt x="302" y="233" on="1"/>
        <pt x="207" y="226" on="0"/>
        <pt x="121" y="179" on="0"/>
        <pt x="121" y="132" on="1"/>
        <pt x="121" y="100" on="0"/>
        <pt x="170" y="56" on="0"/>
        <pt x="213" y="56" on="1"/>
      </contour>
    </TTGlyph>
    <TTGlyph name="acircumflex" xMin="33" yMin="-7" xMax="455" yMax="710">
      <contour>
        <pt x="221" y="628" on="1"/>
        <pt x="106" y="545" on="1"/>
        <pt x="78" y="577" on="1"/>
        <pt x="184" y="683" on="1"/>
        <pt x="211" y="710" on="0"/>
        <pt x="230" y="710" on="1"/>
        <pt x="247" y="710" on="0"/>
        <pt x="268" y="689" on="1"/>
        <pt x="374" y="579" on="1"/>
        <pt x="339" y="544" on="1"/>
      </contour>
      <contour>
        <pt x="103" y="-7" on="0"/>
        <pt x="33" y="63" on="0"/>
        <pt x="33" y="117" on="1"/>
        <pt x="33" y="243" on="0"/>
        <pt x="212" y="268" on="1"/>
        <pt x="302" y="281" on="1"/>
        <pt x="302" y="356" on="1"/>
        <pt x="302" y="440" on="0"/>
        <pt x="204" y="440" on="1"/>
        <pt x="182" y="440" on="0"/>
        <pt x="147" y="433" on="0"/>
        <pt x="142" y="432" on="1"/>
        <pt x="127" y="340" on="1"/>
        <pt x="127" y="339" on="0"/>
        <pt x="109" y="333" on="0"/>
        <pt x="95" y="333" on="1"/>
        <pt x="77" y="333" on="0"/>
        <pt x="49" y="359" on="0"/>
        <pt x="49" y="379" on="1"/>
        <pt x="49" y="417" on="0"/>
        <pt x="123" y="474" on="0"/>
        <pt x="222" y="504" on="0"/>
        <pt x="253" y="504" on="1"/>
        <pt x="316" y="504" on="0"/>
        <pt x="384" y="439" on="0"/>
        <pt x="384" y="389" on="1"/>
        <pt x="384" y="68" on="1"/>
        <pt x="455" y="54" on="1"/>
        <pt x="455" y="16" on="1"/>
        <pt x="451" y="14" on="0"/>
        <pt x="423" y="5" on="0"/>
        <pt x="379" y="-4" on="0"/>
        <pt x="355" y="-4" on="1"/>
        <pt x="311" y="-4" on="0"/>
        <pt x="307" y="42" on="1"/>
        <pt x="303" y="42" on="1"/>
        <pt x="290" y="28" on="0"/>
        <pt x="217" y="-7" on="0"/>
        <pt x="175" y="-7" on="1"/>
      </contour>
      <contour>
        <pt x="235" y="56" on="0"/>
        <pt x="275" y="64" on="0"/>
        <pt x="299" y="73" on="0"/>
        <pt x="302" y="74" on="1"/>
        <pt x="302" y="233" on="1"/>
        <pt x="207" y="226" on="0"/>
        <pt x="121" y="179" on="0"/>
        <pt x="121" y="132" on="1"/>
        <pt x="121" y="100" on="0"/>
        <pt x="170" y="56" on="0"/>
        <pt x="213" y="56" on="1"/>
      </contour>
    </TTGlyph>
    <TTGlyph name="acute" xMin="0" yMin="535" xMax="202" yMax="717">
      <contour>
        <pt x="109" y="686" on="1"/>
        <pt x="124" y="702" on="0"/>
        <pt x="141" y="717" on="0"/>
        <pt x="151" y="717" on="1"/>
        <pt x="165" y="717" on="0"/>
        <pt x="193" y="684" on="0"/>
        <pt x="202" y="655" on="1"/>
        <pt x="28" y="535" on="1"/>
        <pt x="0" y="565" on="1"/>
      </contour>
    </TTGlyph>
    <TTGlyph name="acutecomb" xMin="-202" yMin="535" xMax="0" yMax="717">
      <contour>
        <pt x="-93" y="686" on="1"/>
        <pt x="-78" y="702" on="0"/>
        <pt x="-61" y="717" on="0"/>
        <pt x="-51" y="717" on="1"/>
        <pt x="-37" y="717" on="0"/>
        <pt x="-9" y="684" on="0"/>
        <pt x="0" y="655" on="1"/>
        <pt x="-174" y="535" on="1"/>
        <pt x="-202" y="565" on="1"/>
      </contour>
    </TTGlyph>
    <TTGlyph name="acutecomb.case" xMin="-215" yMin="681" xMax="0" yMax="836">
      <contour>
        <pt x="-215" y="716" on="1"/>
        <pt x="-84" y="814" on="1"/>
        <pt x="-72" y="823" on="0"/>
        <pt x="-49" y="836" on="0"/>
        <pt x="-42" y="836" on="1"/>
        <pt x="-27" y="836" on="0"/>
        <pt x="-3" y="800" on="0"/>
        <pt x="0" y="767" on="1"/>
        <pt x="-193" y="681" on="1"/>
      </contour>
    </TTGlyph>
    <TTGlyph name="adieresis" xMin="33" yMin="-7" xMax="455" yMax="691">
      <contour>
        <pt x="85" y="575" on="0"/>
        <pt x="57" y="606" on="0"/>
        <pt x="57" y="631" on="1"/>
        <pt x="57" y="656" on="0"/>
        <pt x="88" y="691" on="0"/>
        <pt x="112" y="691" on="1"/>
        <pt x="135" y="691" on="0"/>
        <pt x="163" y="662" on="0"/>
        <pt x="163" y="637" on="1"/>
        <pt x="163" y="611" on="0"/>
        <pt x="133" y="575" on="0"/>
        <pt x="108" y="575" on="1"/>
      </contour>
      <contour>
        <pt x="296" y="575" on="0"/>
        <pt x="268" y="606" on="0"/>
        <pt x="268" y="631" on="1"/>
        <pt x="268" y="656" on="0"/>
        <pt x="299" y="691" on="0"/>
        <pt x="323" y="691" on="1"/>
        <pt x="346" y="691" on="0"/>
        <pt x="374" y="662" on="0"/>
        <pt x="374" y="637" on="1"/>
        <pt x="374" y="611" on="0"/>
        <pt x="344" y="575" on="0"/>
        <pt x="319" y="575" on="1"/>
      </contour>
      <contour>
        <pt x="103" y="-7" on="0"/>
        <pt x="33" y="63" on="0"/>
        <pt x="33" y="117" on="1"/>
        <pt x="33" y="243" on="0"/>
        <pt x="212" y="268" on="1"/>
        <pt x="302" y="281" on="1"/>
        <pt x="302" y="356" on="1"/>
        <pt x="302" y="440" on="0"/>
        <pt x="204" y="440" on="1"/>
        <pt x="182" y="440" on="0"/>
        <pt x="147" y="433" on="0"/>
        <pt x="142" y="432" on="1"/>
        <pt x="127" y="340" on="1"/>
        <pt x="127" y="339" on="0"/>
        <pt x="109" y="333" on="0"/>
        <pt x="95" y="333" on="1"/>
        <pt x="77" y="333" on="0"/>
        <pt x="49" y="359" on="0"/>
        <pt x="49" y="379" on="1"/>
        <pt x="49" y="417" on="0"/>
        <pt x="123" y="474" on="0"/>
        <pt x="222" y="504" on="0"/>
        <pt x="253" y="504" on="1"/>
        <pt x="316" y="504" on="0"/>
        <pt x="384" y="439" on="0"/>
        <pt x="384" y="389" on="1"/>
        <pt x="384" y="68" on="1"/>
        <pt x="455" y="54" on="1"/>
        <pt x="455" y="16" on="1"/>
        <pt x="451" y="14" on="0"/>
        <pt x="423" y="5" on="0"/>
        <pt x="379" y="-4" on="0"/>
        <pt x="355" y="-4" on="1"/>
        <pt x="311" y="-4" on="0"/>
        <pt x="307" y="42" on="1"/>
        <pt x="303" y="42" on="1"/>
        <pt x="290" y="28" on="0"/>
        <pt x="217" y="-7" on="0"/>
        <pt x="175" y="-7" on="1"/>
      </contour>
      <contour>
        <pt x="235" y="56" on="0"/>
        <pt x="275" y="64" on="0"/>
        <pt x="299" y="73" on="0"/>
        <pt x="302" y="74" on="1"/>
        <pt x="302" y="233" on="1"/>
        <pt x="207" y="226" on="0"/>
        <pt x="121" y="179" on="0"/>
        <pt x="121" y="132" on="1"/>
        <pt x="121" y="100" on="0"/>
        <pt x="170" y="56" on="0"/>
        <pt x="213" y="56" on="1"/>
      </contour>
    </TTGlyph>
    <TTGlyph name="ae" xMin="45" yMin="-9" xMax="699" yMax="504">
      <contour>
        <pt x="313" y="350" on="1"/>
        <pt x="313" y="393" on="0"/>
        <pt x="264" y="434" on="0"/>
        <pt x="216" y="434" on="1"/>
        <pt x="194" y="434" on="0"/>
        <pt x="160" y="428" on="0"/>
        <pt x="155" y="427" on="1"/>
        <pt x="133" y="340" on="1"/>
        <pt x="131" y="339" on="0"/>
        <pt x="116" y="333" on="0"/>
        <pt x="103" y="333" on="1"/>
        <pt x="60" y="333" on="0"/>
        <pt x="60" y="378" on="1"/>
        <pt x="60" y="417" on="0"/>
        <pt x="135" y="474" on="0"/>
        <pt x="233" y="504" on="0"/>
        <pt x="265" y="504" on="1"/>
        <pt x="306" y="504" on="0"/>
        <pt x="369" y="467" on="0"/>
        <pt x="384" y="436" on="1"/>
        <pt x="411" y="469" on="0"/>
        <pt x="485" y="504" on="0"/>
        <pt x="528" y="504" on="1"/>
        <pt x="624" y="504" on="0"/>
        <pt x="699" y="381" on="0"/>
        <pt x="699" y="260" on="1"/>
        <pt x="699" y="235" on="0"/>
        <pt x="670" y="233" on="1"/>
        <pt x="401" y="223" on="1"/>
        <pt x="401" y="176" on="0"/>
        <pt x="417" y="108" on="0"/>
        <pt x="471" y="61" on="0"/>
        <pt x="525" y="61" on="1"/>
        <pt x="565" y="61" on="0"/>
        <pt x="631" y="68" on="0"/>
        <pt x="668" y="76" on="0"/>
        <pt x="673" y="77" on="1"/>
        <pt x="682" y="44" on="1"/>
        <pt x="682" y="42" on="0"/>
        <pt x="639" y="15" on="0"/>
        <pt x="569" y="-9" on="0"/>
        <pt x="523" y="-9" on="1"/>
        <pt x="416" y="-9" on="0"/>
        <pt x="365" y="58" on="1"/>
        <pt x="332" y="28" on="0"/>
        <pt x="247" y="-7" on="0"/>
        <pt x="187" y="-7" on="1"/>
        <pt x="115" y="-7" on="0"/>
        <pt x="45" y="63" on="0"/>
        <pt x="45" y="117" on="1"/>
        <pt x="45" y="181" on="0"/>
        <pt x="141" y="262" on="0"/>
        <pt x="224" y="266" on="1"/>
        <pt x="313" y="271" on="1"/>
      </contour>
      <contour>
        <pt x="616" y="305" on="0"/>
        <pt x="616" y="329" on="1"/>
        <pt x="616" y="373" on="0"/>
        <pt x="596" y="420" on="0"/>
        <pt x="553" y="437" on="0"/>
        <pt x="514" y="437" on="1"/>
        <pt x="454" y="437" on="0"/>
        <pt x="401" y="349" on="0"/>
        <pt x="401" y="275" on="1"/>
        <pt x="613" y="287" on="1"/>
      </contour>
      <contour>
        <pt x="218" y="218" on="0"/>
        <pt x="133" y="180" on="0"/>
        <pt x="133" y="136" on="1"/>
        <pt x="133" y="102" on="0"/>
        <pt x="178" y="55" on="0"/>
        <pt x="223" y="55" on="1"/>
        <pt x="245" y="55" on="0"/>
        <pt x="285" y="67" on="0"/>
        <pt x="310" y="80" on="0"/>
        <pt x="313" y="82" on="1"/>
        <pt x="313" y="219" on="1"/>
      </contour>
    </TTGlyph>
    <TTGlyph name="aeacute" xMin="45" yMin="-9" xMax="699" yMax="717">
      <component glyphName=".ttfautohint" x="45" y="0" flags="0x0"/>
      <component glyphName="ae" x="0" y="0" flags="0x0"/>
      <component glyphName="acutecomb" x="519" y="0" flags="0x0"/>
    </TTGlyph>
    <TTGlyph name="agrave" xMin="33" yMin="-7" xMax="455" yMax="717">
      <contour>
        <pt x="118" y="655" on="1"/>
        <pt x="127" y="684" on="0"/>
        <pt x="155" y="717" on="0"/>
        <pt x="169" y="717" on="1"/>
        <pt x="179" y="717" on="0"/>
        <pt x="196" y="702" on="0"/>
        <pt x="211" y="686" on="1"/>
        <pt x="320" y="565" on="1"/>
        <pt x="292" y="535" on="1"/>
      </contour>
      <contour>
        <pt x="103" y="-7" on="0"/>
        <pt x="33" y="63" on="0"/>
        <pt x="33" y="117" on="1"/>
        <pt x="33" y="243" on="0"/>
        <pt x="212" y="268" on="1"/>
        <pt x="302" y="281" on="1"/>
        <pt x="302" y="356" on="1"/>
        <pt x="302" y="440" on="0"/>
        <pt x="204" y="440" on="1"/>
        <pt x="182" y="440" on="0"/>
        <pt x="147" y="433" on="0"/>
        <pt x="142" y="432" on="1"/>
        <pt x="127" y="340" on="1"/>
        <pt x="127" y="339" on="0"/>
        <pt x="109" y="333" on="0"/>
        <pt x="95" y="333" on="1"/>
        <pt x="77" y="333" on="0"/>
        <pt x="49" y="359" on="0"/>
        <pt x="49" y="379" on="1"/>
        <pt x="49" y="417" on="0"/>
        <pt x="123" y="474" on="0"/>
        <pt x="222" y="504" on="0"/>
        <pt x="253" y="504" on="1"/>
        <pt x="316" y="504" on="0"/>
        <pt x="384" y="439" on="0"/>
        <pt x="384" y="389" on="1"/>
        <pt x="384" y="68" on="1"/>
        <pt x="455" y="54" on="1"/>
        <pt x="455" y="16" on="1"/>
        <pt x="451" y="14" on="0"/>
        <pt x="423" y="5" on="0"/>
        <pt x="379" y="-4" on="0"/>
        <pt x="355" y="-4" on="1"/>
        <pt x="311" y="-4" on="0"/>
        <pt x="307" y="42" on="1"/>
        <pt x="303" y="42" on="1"/>
        <pt x="290" y="28" on="0"/>
        <pt x="217" y="-7" on="0"/>
        <pt x="175" y="-7" on="1"/>
      </contour>
      <contour>
        <pt x="235" y="56" on="0"/>
        <pt x="275" y="64" on="0"/>
        <pt x="299" y="73" on="0"/>
        <pt x="302" y="74" on="1"/>
        <pt x="302" y="233" on="1"/>
        <pt x="207" y="226" on="0"/>
        <pt x="121" y="179" on="0"/>
        <pt x="121" y="132" on="1"/>
        <pt x="121" y="100" on="0"/>
        <pt x="170" y="56" on="0"/>
        <pt x="213" y="56" on="1"/>
      </contour>
    </TTGlyph>
    <TTGlyph name="amacron" xMin="33" yMin="-7" xMax="455" yMax="663">
      <contour>
        <pt x="59" y="663" on="1"/>
        <pt x="391" y="663" on="1"/>
        <pt x="381" y="606" on="1"/>
        <pt x="49" y="606" on="1"/>
      </contour>
      <contour>
        <pt x="103" y="-7" on="0"/>
        <pt x="33" y="63" on="0"/>
        <pt x="33" y="117" on="1"/>
        <pt x="33" y="243" on="0"/>
        <pt x="212" y="268" on="1"/>
        <pt x="302" y="281" on="1"/>
        <pt x="302" y="356" on="1"/>
        <pt x="302" y="440" on="0"/>
        <pt x="204" y="440" on="1"/>
        <pt x="182" y="440" on="0"/>
        <pt x="147" y="433" on="0"/>
        <pt x="142" y="432" on="1"/>
        <pt x="127" y="340" on="1"/>
        <pt x="127" y="339" on="0"/>
        <pt x="109" y="333" on="0"/>
        <pt x="95" y="333" on="1"/>
        <pt x="77" y="333" on="0"/>
        <pt x="49" y="359" on="0"/>
        <pt x="49" y="379" on="1"/>
        <pt x="49" y="417" on="0"/>
        <pt x="123" y="474" on="0"/>
        <pt x="222" y="504" on="0"/>
        <pt x="253" y="504" on="1"/>
        <pt x="316" y="504" on="0"/>
        <pt x="384" y="439" on="0"/>
        <pt x="384" y="389" on="1"/>
        <pt x="384" y="68" on="1"/>
        <pt x="455" y="54" on="1"/>
        <pt x="455" y="16" on="1"/>
        <pt x="451" y="14" on="0"/>
        <pt x="423" y="5" on="0"/>
        <pt x="379" y="-4" on="0"/>
        <pt x="355" y="-4" on="1"/>
        <pt x="311" y="-4" on="0"/>
        <pt x="307" y="42" on="1"/>
        <pt x="303" y="42" on="1"/>
        <pt x="290" y="28" on="0"/>
        <pt x="217" y="-7" on="0"/>
        <pt x="175" y="-7" on="1"/>
      </contour>
      <contour>
        <pt x="235" y="56" on="0"/>
        <pt x="275" y="64" on="0"/>
        <pt x="299" y="73" on="0"/>
        <pt x="302" y="74" on="1"/>
        <pt x="302" y="233" on="1"/>
        <pt x="207" y="226" on="0"/>
        <pt x="121" y="179" on="0"/>
        <pt x="121" y="132" on="1"/>
        <pt x="121" y="100" on="0"/>
        <pt x="170" y="56" on="0"/>
        <pt x="213" y="56" on="1"/>
      </contour>
    </TTGlyph>
</ttFont>
